{
.appVersion = "3260";
.formatVersion = 3;
date = "2024-08-05 16:00:01 +0000";
familyName = "MFB Oldstyle";
featurePrefixes = (
{
automatic = 1;
code = "languagesystem DFLT dflt;

languagesystem latn dflt;
languagesystem latn AZE;
languagesystem latn CRT;
languagesystem latn KAZ;
languagesystem latn TAT;
languagesystem latn TRK;
languagesystem latn ROM;
languagesystem latn MOL;
languagesystem latn MAH;
languagesystem latn CAT;
languagesystem latn NLD;
";
name = Languagesystems;
}
);
features = (
{
automatic = 1;
code = "feature locl;
feature subs;
feature sinf;
feature sups;
feature numr;
feature dnom;
feature frac;
feature ordn;
feature pnum;
feature tnum;
";
tag = aalt;
},
{
automatic = 1;
code = "lookup ccmp_DFLT_1 {
	lookupflag 0;
	sub brevecomb acutecomb by brevecomb_acutecomb;
	sub brevecomb gravecomb by brevecomb_gravecomb;
	sub brevecomb hookabovecomb by brevecomb_hookabovecomb;
	sub brevecomb tildecomb by brevecomb_tildecomb;
	sub circumflexcomb acutecomb by circumflexcomb_acutecomb;
	sub circumflexcomb caroncomb by circumflexcomb_caroncomb;
	sub circumflexcomb gravecomb by circumflexcomb_gravecomb;
	sub circumflexcomb hookabovecomb by circumflexcomb_hookabovecomb;
	sub circumflexcomb tildecomb by circumflexcomb_tildecomb;
} ccmp_DFLT_1;

lookup ccmp_Other_1 {
	@CombiningTopAccents = [acutecomb brevecomb breveinvertedcomb candraBinducomb caroncomb circumflexcomb commaturnedabovecomb dblgravecomb dieresiscomb dotaccentcomb gravecomb hookabovecomb hungarumlautcomb macroncomb ringcomb tildecomb];
	lookupflag UseMarkFilteringSet @CombiningTopAccents;
	sub i' @CombiningTopAccents by idotless;
	sub j' @CombiningTopAccents by jdotless;
} ccmp_Other_1;

lookup ccmp_latn_1 {
	lookupflag 0;
	sub fi by f i;
	sub fl by f l;
} ccmp_latn_1;

script latn;
lookup ccmp_latn_1;
";
tag = ccmp;
},
{
automatic = 1;
code = "script latn;
language AZE;
lookup locl_latn_0 {
	sub i by idotaccent;
} locl_latn_0;
language CRT;
lookup locl_latn_0;
language KAZ;
lookup locl_latn_0;

glyphs = (
{
glyphname = A;
kernLeft = A;
kernRight = A;
lastChange = "2024-08-06 02:24:23 +0000";
layers = (
{
anchors = (
{
name = dotbelow;
pos = (304,0);
},
{
name = ogonek;
pos = (546,0);
},
{
name = top;
pos = (499,741);
}
);
layerId = m01;
shapes = (
{
closed = 1;
nodes = (
(231,0,l),
(242,40,l),
(185,42,o),
(163,59,o),
(163,81,cs),
(163,94,o),
(171,118,o),
(178,133,cs),
(232,250,l),
(476,250,l),
(492,155,ls),
(496,131,o),
(502,103,o),
(502,82,cs),
(502,57,o),
(493,44,o),
(419,40,c),
(410,0,l),
(668,0,l),
(679,40,l),
(618,40,o),
(608,51,o),
(597,116,cs),
(492,739,l),
(465,729,o),
(432,718,o),
(402,712,c),
(126,147,ls),
(101,95,o),
(80,53,o),
(13,40,c),
(2,0,l)
);
},
{
closed = 1;
nodes = (
(416,652,l),
(468,296,l),
(254,296,l)
);
}
);
width = 689;
}
);
unicode = 65;
},
{
glyphname = AE;
kernLeft = A;
kernRight = E;
lastChange = "2024-08-06 02:24:23 +0000";
layers = (
{
anchors = (
{
name = top;
pos = (805,741);
}
);
layerId = m01;
shapes = (
{
closed = 1;
nodes = (
(181,0,l),
(190,40,l),
(149,46,o),
(118,56,o),
(118,83,cs),
(118,98,o),
(128,110,o),
(151,138,cs),
(240,246,l),
(524,246,l),
(489,114,ls),
(473,53,o),
(452,43,o),
(383,40,c),
(372,0,l),
(933,0,l),
(1021,174,l),
(986,196,l),
(890,93,o),
(817,43,o),
(668,43,cs),
(601,43,o),
(582,53,o),
(582,74,cs),
(582,82,o),
(585,99,o),
(589,114,cs),
(654,356,l),
(706,353,o),
(764,355,o),
(795,321,cs),
(805,310,o),
(810,298,o),
(810,269,cs),
(810,251,o),
(808,233,o),
(806,217,c),
(843,217,l),
(919,502,l),
(882,502,l),
(830,401,o),
(797,395,o),
(665,395,c),
(716,584,ls),
(736,659,o),
(742,679,o),
(818,679,cs),
(918,679,o),
(965,645,o),
(1021,532,c),
(1058,539,l),
(1028,721,l),
(462,721,l),
(444,682,l),
(508,682,ls),
(520,682,o),
(529,678,o),
(529,668,cs),
(529,657,o),
(518,641,o),
(505,626,cs),
(86,148,ls),
(46,103,o),
(9,58,o),
(-59,40,c),
(-70,0,l)
);
},
{
closed = 1;
nodes = (
(581,641,ls),
(595,657,o),
(618,683,o),
(630,683,cs),
(635,683,o),
(638,679,o),
(638,672,c),
(536,293,l),
(278,293,l)
);
}
);
width = 1075;
}
);
unicode = 198;
},
{
glyphname = B;
kernLeft = I;
kernRight = B;
lastChange = "2024-08-06 02:24:23 +0000";
layers = (
{
anchors = (
{
name = dotbelow;
pos = (248,0);
},
{
name = top;
pos = (492,741);
}
);
layerId = m01;
shapes = (
{
closed = 1;
nodes = (
(265,0,ls),
(358,0,o),
(434,10,o),
(482,27,cs),
(560,55,o),
(625,127,o),
(625,215,cs),
(625,295,o),
(571,358,o),
(470,383,c),
(574,404,o),
(683,454,o),
(683,559,cs),
(683,635,o),
(625,721,o),
(400,721,cs),
(162,721,l),
(151,681,l),
(227,681,o),
(239,668,o),
(239,639,cs),
(239,630,o),
(238,626,o),
(231,600,cs),
(101,114,ls),
(85,53,o),
(64,43,o),
(-5,40,c),
(-16,0,l)
);
},
{
closed = 1;
nodes = (
(212,40,o),
(194,53,o),
(194,74,cs),
(194,82,o),
(197,99,o),
(201,114,cs),
(268,362,l),
(359,362,ls),
(443,362,o),
(523,358,o),
(523,254,cs),
(523,186,o),
(487,120,o),
(459,92,cs),
(420,52,o),
(350,40,o),
(282,40,cs)
);
},
{
closed = 1;
nodes = (
(328,584,ls),
(348,658,o),
(354,679,o),
(436,679,cs),
(521,679,o),
(578,656,o),
(578,579,cs),
(578,505,o),
(526,426,o),
(437,410,cs),
(397,403,o),
(333,403,o),
(279,403,c)
);
}
);
width = 675;
}
);
unicode = 66;
},
{
glyphname = Bstroke;
kernLeft = I;
kernRight = B;
lastChange = "2024-08-06 02:24:23 +0000";
layers = (
{
layerId = m01;
shapes = (
{
closed = 1;
nodes = (
(378,204,l),
(388,244,l),
(37,244,l),
(27,204,l)
);
},
{
ref = B;
}
);
width = 675;
}
);
unicode = 579;
},
{
glyphname = C;
kernLeft = C;
kernRight = C;
lastChange = "2024-08-06 02:24:23 +0000";
layers = (
{
anchors = (
{
name = attachcedilla;
pos = (302,0);
},
{
name = top;
pos = (508,741);
}
);
layerId = m01;
shapes = (
{
closed = 1;
nodes = (
(472,-18,o),
(573,74,o),
(644,199,c),
(610,221,l),
(556,136,o),
(481,54,o),
(363,54,cs),
(239,54,o),
(175,146,o),
(175,276,cs),
(175,458,o),
(302,699,o),
(468,699,cs),
(565,699,o),
(619,616,o),
(657,517,c),
(699,523,l),
(671,729,l),
(649,718,o),
(624,703,o),
(603,703,cs),
(571,703,o),
(534,739,o),
(460,739,cs),
(263,739,o),
(65,488,o),
(65,267,cs),
(65,104,o),
(172,-18,o),
(333,-18,cs)
);
}
);
width = 675;
}
);
unicode = 67;
},
{
glyphname = D;
kernLeft = I;
kernRight = D;
lastChange = "2024-08-06 02:24:23 +0000";
layers = (
{
anchors = (
{
name = commaaccentbelow;
pos = (262,0);
},
{
name = dotbelow;
pos = (268,0);
},
{
name = top;
pos = (506,741);
}
);
layerId = m01;
shapes = (
{
closed = 1;
nodes = (
(272,0,ls),
(392,0,o),
(485,42,o),
(551,96,cs),
(633,163,o),
(714,282,o),
(714,434,cs),
(714,553,o),
(664,625,o),
(604,669,cs),
(548,710,o),
(490,721,o),
(410,721,cs),
(162,721,l),
(151,681,l),
(227,681,o),
(239,668,o),
(239,639,cs),
(239,630,o),
(238,626,o),
(231,600,cs),
(101,114,ls),
(85,53,o),
(64,43,o),
(-5,40,c),
(-16,0,l)
);
},
{
closed = 1;
nodes = (
(195,40,o),
(192,56,o),
(192,68,cs),
(192,78,o),
(194,88,o),
(201,114,cs),
(328,584,ls),
(347,655,o),
(354,680,o),
(426,680,cs),
(533,680,o),
(608,626,o),
(608,499,cs),
(608,412,o),
(573,235,o),
(490,137,cs),
(428,64,o),
(343,40,o),
(262,40,cs)
);
}
);
width = 716;
}
);
unicode = 68;
},
{
glyphname = Eth;
kernLeft = I;
kernRight = D;
lastChange = "2024-08-06 02:24:23 +0000";
layers = (
{
layerId = m01;
shapes = (
{
closed = 1;
nodes = (
(429,349,l),
(439,389,l),
(88,389,l),
(78,349,l)
);
},
{
ref = D;
}
);
width = 716;
}
);
unicode = 208;
},
{
glyphname = E;
kernLeft = I;
kernRight = E;
lastChange = "2024-08-06 02:24:23 +0000";
layers = (
{
anchors = (
{
name = attachcedilla;
pos = (263,0);
},
{
name = dotbelow;
pos = (268,0);
},
{
name = ogonek;
pos = (431,0);
},
{
name = top;
pos = (482,741);
}
);
layerId = m01;
shapes = (
{
closed = 1;
nodes = (
(550,0,l),
(635,174,l),
(604,194,l),
(508,91,o),
(429,43,o),
(281,43,cs),
(213,43,o),
(194,53,o),
(194,74,cs),
(194,82,o),
(197,99,o),
(201,114,cs),
(266,356,l),
(321,353,o),
(376,355,o),
(406,321,cs),
(420,305,o),
(422,289,o),
(422,270,cs),
(422,250,o),
(420,232,o),
(418,217,c),
(455,217,l),
(531,502,l),
(494,502,l),
(442,401,o),
(409,395,o),
(277,395,c),
(328,584,ls),
(349,661,o),
(354,679,o),
(431,679,cs),
(565,679,o),
(618,624,o),
(659,529,c),
(696,537,l),
(667,721,l),
(162,721,l),
(151,681,l),
(227,681,o),
(239,668,o),
(239,639,cs),
(239,630,o),
(238,626,o),
(231,600,cs),
(101,114,ls),
(85,53,o),
(64,43,o),
(-5,40,c),
(-16,0,l)
);
}
);
width = 689;
}
);
unicode = 69;
},
{
glyphname = F;
kernLeft = I;
kernRight = F;
lastChange = "2024-08-06 02:24:23 +0000";
layers = (
{
anchors = (
{
name = top;
pos = (482,741);
}
);
layerId = m01;
shapes = (
{
closed = 1;
nodes = (
(279,0,l),
(290,40,l),
(218,40,o),
(194,53,o),
(194,74,cs),
(194,83,o),
(198,103,o),
(201,114,cs),
(266,351,l),
(321,348,o),
(381,344,o),
(402,321,cs),
(414,308,o),
(416,285,o),
(416,260,cs),
(416,242,o),
(415,227,o),
(414,214,c),
(455,214,l),
(531,502,l),
(494,502,l),
(442,401,o),
(409,395,o),
(277,395,c),
(328,584,ls),
(348,659,o),
(353,676,o),
(432,676,cs),
(565,676,o),
(619,627,o),
(663,516,c),
(699,526,l),
(671,721,l),
(162,721,l),
(151,681,l),
(227,681,o),
(239,668,o),
(239,639,cs),
(239,630,o),
(238,626,o),
(231,600,cs),
(101,114,ls),
(85,53,o),
(64,43,o),
(-5,40,c),
(-16,0,l)
);
}
);
width = 632;
}
);
unicode = 70;
},
{
glyphname = G;
kernLeft = G;
kernRight = G;
lastChange = "2024-08-06 02:24:23 +0000";
layers = (
{
anchors = (
{
name = commaaccentbelow;
pos = (310,0);
},
{
name = top;
pos = (516,741);
}
);
layerId = m01;
shapes = (
{
closed = 1;
nodes = (
(382,-18,o),
(413,4,o),
(466,15,cs),
(494,21,o),
(522,21,o),
(550,22,c),
(588,162,ls),
(613,254,o),
(622,255,o),
(690,259,c),
(701,299,l),
(434,299,l),
(423,259,l),
(493,259,o),
(509,246,o),
(509,223,cs),
(509,209,o),
(503,186,o),
(500,174,cs),
(475,74,o),
(413,22,o),
(327,22,cs),
(220,22,o),
(174,102,o),
(174,226,cs),
(174,427,o),
(294,699,o),
(464,699,cs),
(560,699,o),
(609,613,o),
(645,517,c),
(686,522,l),
(662,726,l),
(641,717,o),
(617,704,o),
(598,704,cs),
(566,704,o),
(521,739,o),
(449,739,cs),
(255,739,o),
(69,486,o),
(69,263,cs),
(69,108,o),
(158,-18,o),
(316,-18,cs)
);
}
);
width = 723;
}
);
unicode = 71;
},
{
glyphname = H;
kernLeft = I;
kernRight = H;
lastChange = "2024-08-06 02:24:23 +0000";
layers = (
{
anchors = (
{
name = attachcedilla;
pos = (105,0);
},
{
name = dotbelow;
pos = (314,0);
},
{
name = top;
pos = (557,741);
}
);
layerId = m01;
shapes = (
{
closed = 1;
nodes = (
(272,0,l),
(283,40,l),
(212,40,o),
(194,53,o),
(194,74,cs),
(194,82,o),
(197,99,o),
(201,114,cs),
(265,350,l),
(559,350,l),
(495,114,ls),
(479,53,o),
(458,43,o),
(389,40,c),
(378,0,l),
(667,0,l),
(678,40,l),
(603,40,o),
(588,53,o),
(588,78,cs),
(588,84,o),
(589,88,o),
(596,114,cs),
(722,584,ls),
(745,670,o),
(756,677,o),
(835,681,c),
(845,721,l),
(557,721,l),
(546,681,l),
(616,681,o),
(634,668,o),
(634,645,cs),
(634,632,o),
(629,612,o),
(626,600,cs),
(571,397,l),
(277,397,l),
(328,584,ls),
(351,669,o),
(361,677,o),
(440,681,c),
(451,721,l),
(162,721,l),
(151,681,l),
(227,681,o),
(239,668,o),
(239,639,cs),
(239,630,o),
(238,626,o),
(231,600,cs),
(101,114,ls),
(85,53,o),
(64,43,o),
(-5,40,c),
(-16,0,l)
);
}
);
width = 762;
}
);
unicode = 72;
},
{
glyphname = Hbar;
kernLeft = I;
kernRight = H;
lastChange = "2024-08-06 02:24:23 +0000";
layers = (
{
layerId = m01;
shapes = (
{
closed = 1;
nodes = (
(786,501,l),
(797,541,l),
(114,541,l),
(104,501,l)
);
},
{
ref = H;
}
);
width = 762;
}
);
unicode = 294;
},
{
glyphname = I;
kernLeft = I;
kernRight = I;
lastChange = "2024-08-06 02:24:23 +0000";
layers = (
{
anchors = (
{
name = dotbelow;
pos = (110,0);
},
{
name = ogonek;
pos = (129,0);
},
{
name = top;
pos = (363,741);
}
);
layerId = m01;
shapes = (
{
closed = 1;
nodes = (
(272,0,l),
(283,40,l),
(212,40,o),
(194,53,o),
(194,74,cs),
(194,82,o),
(197,99,o),
(201,114,cs),
(328,584,ls),
(351,670,o),
(361,677,o),
(440,681,c),
(451,721,l),
(162,721,l),
(151,681,l),
(227,681,o),
(239,668,o),
(239,639,cs),
(239,630,o),
(238,626,o),
(231,600,cs),
(101,114,ls),
(85,53,o),
(64,43,o),
(-5,40,c),
(-16,0,l)
);
}
);
width = 368;
}
);
unicode = 73;
},
{
glyphname = J;
kernLeft = J;
kernRight = J;
lastChange = "2024-08-06 02:24:23 +0000";
layers = (
{
anchors = (
{
name = top;
pos = (352,741);
}
);
layerId = m01;
shapes = (
{
closed = 1;
nodes = (
(-3,-185,o),
(47,-154,o),
(83,-115,cs),
(135,-59,o),
(163,15,o),
(190,114,cs),
(317,584,ls),
(340,670,o),
(350,677,o),
(429,681,c),
(440,721,l),
(151,721,l),
(141,681,l),
(211,681,o),
(228,669,o),
(228,642,cs),
(228,631,o),
(225,615,o),
(221,600,cs),
(90,114,ls),
(61,5,o),
(35,-118,o),
(2,-118,cs),
(-20,-118,o),
(-13,-62,o),
(-65,-62,cs),
(-101,-62,o),
(-125,-90,o),
(-125,-121,cs),
(-125,-155,o),
(-96,-185,o),
(-50,-185,cs)
);
}
);
width = 334;
}
);
unicode = 74;
},
{
glyphname = K;
kernLeft = I;
kernRight = K;
lastChange = "2024-08-06 02:24:23 +0000";
layers = (
{
anchors = (
{
name = commaaccentbelow;
pos = (317,0);
},
{
name = dotbelow;
pos = (297,0);
},
{
name = top;
pos = (517,741);
}
);
layerId = m01;
shapes = (
{
closed = 1;
nodes = (
(272,0,l),
(283,40,l),
(212,40,o),
(194,53,o),
(194,74,cs),
(194,82,o),
(197,99,o),
(201,114,cs),
(244,274,l),
(365,384,l),
(462,122,ls),
(468,106,o),
(474,87,o),
(474,74,cs),
(474,50,o),
(453,42,o),
(383,40,c),
(373,0,l),
(658,0,l),
(669,40,l),
(603,42,o),
(582,66,o),
(563,117,cs),
(440,446,l),
(562,556,ls),
(622,610,o),
(677,667,o),
(768,681,c),
(778,721,l),
(533,721,l),
(522,681,l),
(584,681,o),
(591,670,o),
(591,659,cs),
(591,642,o),
(573,624,o),
(555,608,cs),
(266,352,l),
(328,584,ls),
(351,670,o),
(361,677,o),
(440,681,c),
(451,721,l),
(162,721,l),
(151,681,l),
(227,681,o),
(239,668,o),
(239,639,cs),
(239,630,o),
(238,626,o),
(231,600,cs),
(101,114,ls),
(85,53,o),
(64,43,o),
(-5,40,c),
(-16,0,l)
);
}
);
width = 714;
}
);
unicode = 75;
},
{
glyphname = L;
kernLeft = I;
kernRight = L;
lastChange = "2024-08-06 02:24:23 +0000";
layers = (
{
anchors = (
{
name = attachcedilla;
pos = (251,0);
},
{
name = caroncombalt;
pos = (604,735);
},
{
name = commaaccentbelow;
pos = (270,0);
},
{
name = dotbelow;
pos = (249,0);
},
{
name = ldot;
pos = (462,320);
},
{
name = top;
pos = (362,741);
}
);
layerId = m01;
shapes = (
{
closed = 1;
nodes = (
(518,0,l),
(606,177,l),
(575,197,l),
(475,95,o),
(413,43,o),
(266,43,cs),
(196,43,o),
(194,55,o),
(194,68,cs),
(194,85,o),
(197,99,o),
(201,114,cs),
(328,584,ls),
(351,670,o),
(361,677,o),
(440,681,c),
(451,721,l),
(162,721,l),
(151,681,l),
(227,681,o),
(239,668,o),
(239,639,cs),
(239,630,o),
(238,626,o),
(231,600,cs),
(101,114,ls),
(85,53,o),
(64,43,o),
(-5,40,c),
(-16,0,l)
);
}
);
width = 622;
}
);
unicode = 76;
},
{
glyphname = Lslash;
kernLeft = I;
kernRight = L;
lastChange = "2024-08-06 02:24:23 +0000";
layers = (
{
anchors = (
{
name = caroncombalt;
pos = (604,735);
},
{
name = commaaccentbelow;
pos = (270,0);
},
{
name = dotbelow;
pos = (249,0);
},
{
name = ldot;
pos = (462,320);
},
{
name = top;
pos = (362,741);
}
);
layerId = m01;
shapes = (
{
closed = 1;
nodes = (
(518,0,l),
(606,177,l),
(575,197,l),
(475,95,o),
(413,43,o),
(266,43,cs),
(196,43,o),
(194,55,o),
(194,68,cs),
(194,85,o),
(197,99,o),
(201,114,cs),
(264,346,l),
(490,465,l),
(476,503,l),
(278,399,l),
(328,585,ls),
(351,670,o),
(362,677,o),
(440,681,c),
(451,721,l),
(162,721,l),
(151,681,l),
(227,681,o),
(239,668,o),
(239,639,cs),
(239,630,o),
(238,626,o),
(231,600,cs),
(164,352,l),
(41,288,l),
(56,249,l),
(150,298,l),
(101,114,ls),
(85,53,o),
(64,43,o),
(-5,40,c),
(-16,0,l)
);
}
);
width = 622;
}
);
unicode = 321;
},
{
glyphname = M;
kernLeft = I;
kernRight = M;
lastChange = "2024-08-06 02:24:23 +0000";
layers = (
{
anchors = (
{
name = dotbelow;
pos = (333,0);
},
{
name = top;
pos = (597,741);
}
);
layerId = m01;
shapes = (
{
closed = 1;
nodes = (
(218,0,l),
(229,40,l),
(179,50,o),
(167,51,o),
(156,65,cs),
(151,71,o),
(148,77,o),
(148,93,cs),
(148,106,o),
(150,120,o),
(158,150,cs),
(285,629,l),
(333,0,l),
(362,0,l),
(746,649,l),
(602,114,ls),
(586,53,o),
(565,43,o),
(496,40,c),
(485,0,l),
(774,0,l),
(785,40,l),
(715,40,o),
(695,51,o),
(695,78,cs),
(695,84,o),
(696,88,o),
(703,114,cs),
(830,584,ls),
(853,670,o),
(864,677,o),
(943,681,c),
(954,721,l),
(738,721,l),
(414,175,l),
(374,721,l),
(162,721,l),
(151,681,l),
(227,681,o),
(239,668,o),
(239,639,cs),
(239,630,o),
(238,626,o),
(231,600,cs),
(110,150,ls),
(94,90,o),
(79,57,o),
(-5,40,c),
(-16,0,l)
);
}
);
width = 870;
}
);
unicode = 77;
},
{
glyphname = N;
kernLeft = I;
kernRight = N;
lastChange = "2024-08-06 02:24:23 +0000";
layers = (
{
anchors = (
{
name = attachcedilla;
pos = (311,0);
},
{
name = commaaccentbelow;
pos = (323,0);
},
{
name = dotbelow;
pos = (305,0);
},
{
name = top;
pos = (531,741);
}
);
layerId = m01;
shapes = (
{
closed = 1;
nodes = (
(555,-18,l),
(712,571,ls),
(736,662,o),
(764,677,o),
(829,681,c),
(839,721,l),
(605,721,l),
(595,681,l),
(647,675,o),
(660,664,o),
(668,654,cs),
(673,648,o),
(675,643,o),
(675,631,cs),
(675,616,o),
(672,598,o),
(665,571,cs),
(556,159,l),
(330,721,l),
(162,721,l),
(151,681,l),
(222,680,o),
(235,662,o),
(243,645,c),
(110,150,ls),
(94,90,o),
(79,57,o),
(-5,40,c),
(-16,0,l),
(231,0,l),
(242,40,l),
(192,42,o),
(172,52,o),
(161,65,cs),
(155,72,o),
(151,81,o),
(151,100,cs),
(151,113,o),
(153,131,o),
(158,150,cs),
(278,599,l),
(523,-18,l)
);
}
);
width = 734;
}
);
unicode = 78;
},
{
glyphname = O;
kernLeft = O;
kernRight = O;
lastChange = "2024-08-06 02:24:23 +0000";
layers = (
{
anchors = (
{
name = attachhorn;
pos = (662,592);
},
{
name = dotbelow;
pos = (292,0);
},
{
name = ogonek;
pos = (379,0);
},
{
name = top;
pos = (492,741);
}
);
layerId = m01;
shapes = (
{
closed = 1;
nodes = (
(530,-18,o),
(707,238,o),
(707,439,cs),
(707,587,o),
(612,739,o),
(455,739,cs),
(258,739,o),
(66,501,o),
(66,276,cs),
(66,109,o),
(171,-18,o),
(319,-18,cs)
);
},
{
closed = 1;
nodes = (
(213,22,o),
(166,104,o),
(166,217,cs),
(166,356,o),
(238,560,o),
(315,640,cs),
(355,682,o),
(407,699,o),
(454,699,cs),
(549,699,o),
(603,631,o),
(603,490,cs),
(603,292,o),
(496,22,o),
(314,22,cs)
);
}
);
width = 706;
}
);
unicode = 79;
},
{
glyphname = Oslash;
kernLeft = O;
kernRight = O;
lastChange = "2024-08-06 02:24:23 +0000";
layers = (
{
anchors = (
{
name = dotbelow;
pos = (292,0);
},
{
name = ogonek;
pos = (379,0);
},
{
name = top;
pos = (492,741);
}
);
layerId = m01;
shapes = (
{
closed = 1;
nodes = (
(528,-18,o),
(707,235,o),
(707,441,cs),
(707,515,o),
(684,587,o),
(641,643,c),
(691,704,l),
(659,730,l),
(614,675,l),
(573,714,o),
(519,739,o),
(455,739,cs),
(260,739,o),
(66,505,o),
(66,274,cs),
(66,196,o),
(88,132,o),
(125,81,c),
(75,19,l),
(107,-9,l),
(154,49,l),
(198,6,o),
(256,-18,o),
(320,-18,cs)
);
},
{
closed = 1;
nodes = (
(255,22,o),
(215,52,o),
(191,95,c),
(594,585,l),
(600,562,o),
(603,541,o),
(603,504,cs),
(603,286,o),
(496,22,o),
(316,22,cs)
);
},
{
closed = 1;
nodes = (
(168,165,o),
(166,181,o),
(166,207,cs),
(166,363,o),
(239,561,o),
(315,640,cs),
(355,682,o),
(407,699,o),
(453,699,cs),
(508,699,o),
(550,675,o),
(576,628,c),
(174,141,l)
);
}
);
width = 706;
}
);
unicode = 216;
},
{
glyphname = OE;
kernLeft = O;
kernRight = E;
lastChange = "2024-08-06 02:24:23 +0000";
layers = (
{
anchors = (
{
name = top;
pos = (694,741);
}
);
layerId = m01;
shapes = (
{
closed = 1;
nodes = (
(843,0,l),
(930,172,l),
(897,194,l),
(800,93,o),
(756,43,o),
(605,43,cs),
(537,43,o),
(520,53,o),
(520,77,cs),
(520,83,o),
(521,87,o),
(528,114,cs),
(592,356,l),
(630,353,o),
(687,354,o),
(716,321,cs),
(729,306,o),
(731,290,o),
(731,270,cs),
(731,249,o),
(729,232,o),
(728,217,c),
(764,217,l),
(840,502,l),
(803,502,l),
(751,401,o),
(718,395,o),
(603,395,c),
(654,584,ls),
(674,658,o),
(680,679,o),
(755,679,cs),
(854,679,o),
(892,643,o),
(941,529,c),
(977,536,l),
(950,721,l),
(462,721,ls),
(267,721,o),
(70,532,o),
(70,296,cs),
(70,141,o),
(155,0,o),
(337,0,cs)
);
},
{
closed = 1;
nodes = (
(233,42,o),
(164,94,o),
(164,223,cs),
(164,321,o),
(204,482,o),
(288,586,cs),
(341,651,o),
(398,680,o),
(469,680,cs),
(535,680,o),
(560,655,o),
(560,614,cs),
(560,603,o),
(558,590,o),
(555,579,cs),
(435,136,ls),
(418,73,o),
(409,42,o),
(332,42,cs)
);
}
);
width = 984;
}
);
unicode = 338;
},
{
glyphname = P;
kernLeft = I;
kernRight = P;
lastChange = "2024-08-06 02:24:23 +0000";
layers = (
{
anchors = (
{
name = top;
pos = (451,741);
}
);
layerId = m01;
shapes = (
{
closed = 1;
nodes = (
(279,0,l),
(290,40,l),
(211,40,o),
(195,51,o),
(195,72,cs),
(195,83,o),
(199,107,o),
(201,114,cs),
(261,333,l),
(269,332,o),
(290,332,o),
(302,332,cs),
(375,332,o),
(449,334,o),
(506,354,cs),
(586,382,o),
(663,456,o),
(663,554,cs),
(663,648,o),
(591,721,o),
(430,721,cs),
(162,721,l),
(151,681,l),
(227,681,o),
(239,668,o),
(239,639,cs),
(239,630,o),
(238,626,o),
(231,600,cs),
(101,114,ls),
(85,53,o),
(64,43,o),
(-5,40,c),
(-16,0,l)
);
},
{
closed = 1;
nodes = (
(328,584,ls),
(351,668,o),
(355,681,o),
(419,681,cs),
(530,681,o),
(556,642,o),
(556,582,cs),
(556,509,o),
(518,433,o),
(476,403,cs),
(441,378,o),
(386,375,o),
(271,375,c)
);
}
);
width = 613;
}
);
unicode = 80;
},
{
glyphname = Thorn;
kernLeft = I;
kernRight = P;
lastChange = "2024-08-06 02:28:30 +0000";
layers = (
{
layerId = m01;
shapes = (
{
closed = 1;
nodes = (
(279,0,l),
(290,40,l),
(210,40,o),
(195,51,o),
(195,74,cs),
(195,84,o),
(198,103,o),
(201,114,cs),
(218,174,l),
(227,173,o),
(248,173,o),
(259,173,cs),
(333,173,o),
(407,175,o),
(464,195,cs),
(544,223,o),
(621,297,o),
(621,395,cs),
(621,489,o),
(549,562,o),
(388,562,cs),
(322,562,l),
(328,584,ls),
(351,669,o),
(361,677,o),
(440,681,c),
(451,721,l),
(162,721,l),
(151,681,l),
(227,681,o),
(239,668,o),
(239,639,cs),
(239,630,o),
(238,626,o),
(231,600,cs),
(101,114,ls),
(85,53,o),
(64,43,o),
(-5,40,c),
(-16,0,l)
);
},
{
closed = 1;
nodes = (
(285,425,ls),
(306,504,o),
(311,522,o),
(382,522,cs),
(488,522,o),
(514,482,o),
(514,422,cs),
(514,348,o),
(474,272,o),
(432,243,cs),
(397,219,o),
(343,216,o),
(229,216,c)
);
}
);
width = 613;
}
);
unicode = 222;
},
{
glyphname = Q;
kernLeft = Q;
kernRight = Q;
lastChange = "2024-08-06 02:24:23 +0000";
layers = (
{
anchors = (
{
name = top;
pos = (492,741);
}
);
layerId = m01;
shapes = (
{
closed = 1;
nodes = (
(514,-126,o),
(565,-86,o),
(595,-15,c),
(563,0,l),
(548,-27,o),
(523,-61,o),
(497,-61,cs),
(469,-61,o),
(452,-13,o),
(443,13,c),
(589,91,o),
(703,281,o),
(703,440,cs),
(703,582,o),
(611,739,o),
(449,739,cs),
(252,739,o),
(63,505,o),
(63,283,cs),
(63,114,o),
(172,-18,o),
(303,-18,cs),
(314,-18,o),
(326,-17,o),
(346,-15,c),
(354,-84,o),
(395,-126,o),
(455,-126,cs)
);
},
{
closed = 1;
nodes = (
(238,19,o),
(202,67,o),
(202,113,cs),
(202,160,o),
(240,198,o),
(282,198,cs),
(320,198,o),
(355,168,o),
(355,102,cs),
(355,75,o),
(349,42,o),
(346,21,c),
(334,19,o),
(328,19,o),
(315,19,cs)
);
},
{
closed = 1;
nodes = (
(411,201,o),
(346,238,o),
(284,238,cs),
(230,238,o),
(195,209,o),
(173,151,c),
(169,170,o),
(164,187,o),
(164,227,cs),
(164,378,o),
(237,566,o),
(309,640,cs),
(349,682,o),
(402,699,o),
(449,699,cs),
(542,699,o),
(598,631,o),
(598,494,cs),
(598,341,o),
(528,150,o),
(431,54,c)
);
}
);
width = 699;
}
);
unicode = 81;
},
{
glyphname = R;
kernLeft = I;
kernRight = R;
lastChange = "2024-08-06 02:24:23 +0000";
layers = (
{
anchors = (
{
name = commaaccentbelow;
pos = (296,0);
},
{
name = dotbelow;
pos = (284,0);
},
{
name = top;
pos = (481,741);
}
);
layerId = m01;
shapes = (
{
closed = 1;
nodes = (
(265,0,l),
(276,40,l),
(204,40,o),
(195,55,o),
(195,75,cs),
(195,87,o),
(198,103,o),
(201,114,cs),
(265,349,l),
(339,349,l),
(437,0,l),
(610,0,l),
(621,39,l),
(537,42,o),
(524,52,o),
(510,102,cs),
(437,355,l),
(549,356,o),
(677,432,o),
(677,557,cs),
(677,657,o),
(592,721,o),
(430,721,cs),
(162,721,l),
(151,681,l),
(227,681,o),
(239,668,o),
(239,639,cs),
(239,630,o),
(238,626,o),
(231,600,cs),
(101,114,ls),
(85,53,o),
(64,43,o),
(-5,40,c),
(-16,0,l)
);
},
{
closed = 1;
nodes = (
(328,584,ls),
(349,661,o),
(355,681,o),
(434,681,cs),
(541,681,o),
(570,644,o),
(570,583,cs),
(570,507,o),
(524,441,o),
(484,415,cs),
(449,392,o),
(399,388,o),
(275,388,c)
);
}
);
width = 661;
}
);
unicode = 82;
},
{
glyphname = S;
kernLeft = S;
kernRight = S;
lastChange = "2024-08-06 02:24:23 +0000";
layers = (
{
anchors = (
{
name = attachcedilla;
pos = (239,0);
},
{
name = commaaccentbelow;
pos = (238,0);
},
{
name = dotbelow;
pos = (235,0);
},
{
name = top;
pos = (429,741);
}
);
layerId = m01;
shapes = (
{
closed = 1;
nodes = (
(418,-18,o),
(517,96,o),
(517,221,cs),
(517,437,o),
(218,410,o),
(218,569,cs),
(218,640,o),
(277,692,o),
(356,692,cs),
(448,692,o),
(499,622,o),
(533,522,c),
(575,528,l),
(561,726,l),
(528,715,o),
(505,706,o),
(492,706,cs),
(466,706,o),
(425,739,o),
(353,739,cs),
(231,739,o),
(136,646,o),
(136,528,cs),
(136,321,o),
(431,355,o),
(431,178,cs),
(431,91,o),
(359,29,o),
(276,29,cs),
(185,29,o),
(121,103,o),
(69,216,c),
(28,205,l),
(48,-3,l),
(77,12,o),
(112,29,o),
(126,29,cs),
(150,29,o),
(194,-18,o),
(282,-18,cs)
);
}
);
width = 557;
}
);
unicode = 83;
},
{
glyphname = Germandbls;
kernLeft = I;
kernRight = S;
lastChange = "2024-08-06 02:24:23 +0000";
layers = (
{
layerId = m01;
shapes = (
{
closed = 1;
nodes = (
(752,-18,o),
(851,97,o),
(851,221,cs),
(851,436,o),
(552,411,o),
(552,569,cs),
(552,642,o),
(617,692,o),
(711,692,c),
(754,739,l),
(434,739,ls),
(297,739,o),
(229,681,o),
(198,542,cs),
(101,114,l),
(84,53,o),
(64,43,o),
(-5,40,c),
(-16,0,l),
(272,0,l),
(283,40,l),
(211,40,o),
(194,53,o),
(194,75,cs),
(194,86,o),
(198,101,o),
(201,114,cs),
(304,549,ls),
(334,675,o),
(370,688,o),
(544,688,c),
(497,649,o),
(470,592,o),
(470,529,cs),
(470,320,o),
(765,355,o),
(765,178,cs),
(765,90,o),
(692,29,o),
(610,29,cs),
(519,29,o),
(455,103,o),
(403,216,c),
(362,205,l),
(382,-3,l),
(411,12,o),
(446,29,o),
(460,29,cs),
(484,29,o),
(528,-18,o),
(615,-18,cs)
);
}
);
width = 891;
}
);
metricLeft = I;
unicode = 7838;
},
{
glyphname = T;
kernLeft = T;
kernRight = T;
lastChange = "2024-08-06 02:24:23 +0000";
layers = (
{
anchors = (
{
name = attachcedilla;
pos = (246,0);
},
{
name = commaaccentbelow;
pos = (252,0);
},
{
name = dotbelow;
pos = (253,0);
},
{
name = top;
pos = (505,741);
}
);
layerId = m01;
shapes = (
{
closed = 1;
nodes = (
(419,0,l),
(429,40,l),
(348,40,o),
(334,53,o),
(334,76,cs),
(334,87,o),
(337,99,o),
(341,114,cs),
(476,615,ls),
(491,671,o),
(508,680,o),
(538,680,cs),
(622,680,o),
(667,607,o),
(695,528,c),
(732,535,l),
(709,721,l),
(172,721,l),
(78,551,l),
(104,528,l),
(186,602,o),
(285,680,o),
(347,680,cs),
(373,680,o),
(381,666,o),
(381,650,cs),
(381,645,o),
(380,637,o),
(374,615,cs),
(240,114,ls),
(224,53,o),
(209,42,o),
(126,40,c),
(116,0,l)
);
}
);
width = 643;
}
);
unicode = 84;
},
{
glyphname = U;
kernLeft = U;
kernRight = U;
lastChange = "2024-08-06 02:24:23 +0000";
layers = (
{
anchors = (
{
name = attachhorn;
pos = (825,592);
},
{
name = dotbelow;
pos = (319,0);
},
{
name = ogonek;
pos = (418,0);
},
{
name = top;
pos = (557,741);
}
);
layerId = m01;
shapes = (
{
closed = 1;
nodes = (
(516,-18,o),
(578,102,o),
(614,235,cs),
(708,585,ls),
(731,671,o),
(771,674,o),
(813,681,c),
(824,721,l),
(597,721,l),
(586,681,l),
(661,668,o),
(668,643,o),
(668,624,cs),
(668,611,o),
(665,597,o),
(661,582,cs),
(571,250,ls),
(552,180,o),
(521,108,o),
(472,66,cs),
(443,41,o),
(406,26,o),
(357,26,cs),
(253,26,o),
(217,93,o),
(217,160,cs),
(217,202,o),
(231,249,o),
(242,290,cs),
(321,584,ls),
(344,670,o),
(352,678,o),
(434,681,c),
(444,721,l),
(163,721,l),
(152,681,l),
(223,681,o),
(232,664,o),
(232,645,cs),
(232,630,o),
(228,615,o),
(224,600,cs),
(143,297,ls),
(132,256,o),
(121,218,o),
(121,174,cs),
(121,62,o),
(194,-18,o),
(339,-18,cs)
);
}
);
width = 725;
}
);
unicode = 85;
},
{
glyphname = Uhorn;
kernLeft = U;
kernRight = horn;
lastChange = "2024-08-06 02:24:23 +0000";
layers = (
{
layerId = m01;
shapes = (
{
closed = 1;
nodes = (
(839,530,o),
(995,640,o),
(995,747,cs),
(995,799,o),
(957,817,o),
(931,817,cs),
(898,817,o),
(870,794,o),
(870,758,cs),
(870,713,o),
(912,709,o),
(912,683,cs),
(912,632,o),
(750,547,o),
(690,525,c),
(678,481,l)
);
},
{
ref = U;
}
);
width = 869;
}
);
unicode = 431;
},
{
glyphname = Uogonek;
kernLeft = U;
kernRight = U;
lastChange = "2024-08-06 02:24:23 +0000";
layers = (
{
anchors = (
{
name = attachhorn;
pos = (825,592);
},
{
name = dotbelow;
pos = (319,0);
},
{
name = ogonek;
pos = (418,0);
},
{
name = top;
pos = (557,741);
}
);
layerId = m01;
shapes = (
{
closed = 1;
nodes = (
(439,-194,o),
(470,-175,o),
(485,-166,c),
(476,-134,l),
(462,-141,o),
(449,-148,o),
(426,-148,cs),
(389,-148,o),
(378,-129,o),
(378,-107,cs),
(378,-63,o),
(424,-18,o),
(465,10,c),
(550,53,o),
(590,144,o),
(614,235,cs),
(708,585,ls),
(731,671,o),
(771,674,o),
(813,681,c),
(824,721,l),
(597,721,l),
(586,681,l),
(661,668,o),
(668,643,o),
(668,624,cs),
(668,611,o),
(665,597,o),
(661,582,cs),
(571,250,ls),
(552,180,o),
(521,108,o),
(472,66,cs),
(443,41,o),
(406,26,o),
(357,26,cs),
(253,26,o),
(217,93,o),
(217,160,cs),
(217,202,o),
(231,249,o),
(242,290,cs),
(321,584,ls),
(344,670,o),
(352,678,o),
(434,681,c),
(444,721,l),
(163,721,l),
(152,681,l),
(223,681,o),
(232,664,o),
(232,645,cs),
(232,630,o),
(228,615,o),
(224,600,cs),
(143,297,ls),
(132,256,o),
(121,218,o),
(121,174,cs),
(121,61,o),
(194,-18,o),
(342,-18,cs),
(359,-18,o),
(375,-17,o),
(390,-15,c),
(355,-36,o),
(316,-72,o),
(316,-128,cs),
(316,-160,o),
(329,-194,o),
(392,-194,cs)
);
}
);
width = 725;
}
);
unicode = 370;
},
{
glyphname = V;
kernLeft = V;
kernRight = V;
lastChange = "2024-08-06 02:24:23 +0000";
layers = (
{
anchors = (
{
name = dotbelow;
pos = (263,0);
},
{
name = top;
pos = (457,741);
}
);
layerId = m01;
shapes = (
{
closed = 1;
nodes = (
(289,-18,l),
(599,585,ls),
(640,664,o),
(663,664,o),
(695,681,c),
(705,721,l),
(499,721,l),
(489,681,l),
(558,674,o),
(566,658,o),
(566,646,cs),
(566,628,o),
(550,596,o),
(543,582,cs),
(318,141,l),
(245,589,ls),
(244,595,o),
(241,621,o),
(241,635,cs),
(241,656,o),
(247,677,o),
(333,681,c),
(343,721,l),
(80,721,l),
(69,681,l),
(123,672,o),
(131,672,o),
(141,618,cs),
(252,-18,l)
);
}
);
width = 611;
}
);
unicode = 86;
},
{
glyphname = W;
kernLeft = V;
kernRight = V;
lastChange = "2024-08-06 02:24:29 +0000";
layers = (
{
anchors = (
{
name = dotbelow;
pos = (386,0);
},
{
name = top;
pos = (584,741);
}
);
layerId = m01;
shapes = (
{
closed = 1;
nodes = (
(240,-18,l),
(480,502,l),
(535,-18,l),
(568,-18,l),
(850,585,ls),
(887,664,o),
(902,665,o),
(956,681,c),
(965,721,l),
(747,721,l),
(736,681,l),
(805,674,o),
(816,659,o),
(816,645,cs),
(816,629,o),
(803,593,o),
(798,582,cs),
(608,174,l),
(571,589,ls),
(569,611,o),
(566,621,o),
(566,636,cs),
(566,657,o),
(572,678,o),
(653,681,c),
(663,721,l),
(386,721,l),
(375,681,l),
(455,678,o),
(459,677,o),
(466,618,cs),
(470,584,l),
(279,174,l),
(241,589,l),
(239,628,ls),
(239,661,o),
(249,678,o),
(321,681,c),
(331,721,l),
(94,721,l),
(83,681,l),
(135,676,o),
(137,672,o),
(142,618,cs),
(145,584,l),
(206,-18,l)
);
}
);
width = 857;
}
);
unicode = 87;
},
{
glyphname = X;
kernLeft = X;
kernRight = X;
lastChange = "2024-08-06 02:24:23 +0000";
layers = (
{
anchors = (
{
name = top;
pos = (496,741);
}
);
layerId = m01;
shapes = (
{
closed = 1;
nodes = (
(191,0,l),
(202,40,l),
(149,40,o),
(131,56,o),
(131,74,cs),
(131,96,o),
(160,125,o),
(170,136,cs),
(334,317,l),
(403,117,ls),
(412,91,o),
(414,85,o),
(414,74,cs),
(414,50,o),
(404,40,o),
(325,40,c),
(316,0,l),
(606,0,l),
(617,40,l),
(539,40,o),
(529,42,o),
(507,104,cs),
(405,392,l),
(585,585,ls),
(645,650,o),
(672,674,o),
(729,681,c),
(738,721,l),
(519,721,l),
(508,681,l),
(562,682,o),
(572,672,o),
(572,660,cs),
(572,636,o),
(534,599,o),
(519,582,cs),
(392,437,l),
(334,605,ls),
(324,634,o),
(321,645,o),
(321,653,cs),
(321,668,o),
(330,681,o),
(404,681,c),
(414,721,l),
(146,721,l),
(135,681,l),
(183,681,o),
(210,674,o),
(230,618,cs),
(319,368,l),
(109,136,ls),
(49,70,o),
(18,48,o),
(-49,40,c),
(-58,0,l)
);
}
);
width = 651;
}
);
unicode = 88;
},
{
glyphname = Y;
kernLeft = Y;
kernRight = Y;
lastChange = "2024-08-06 02:24:23 +0000";
layers = (
{
anchors = (
{
name = dotbelow;
pos = (217,0);
},
{
name = top;
pos = (476,741);
}
);
layerId = m01;
shapes = (
{
closed = 1;
nodes = (
(387,0,l),
(397,40,l),
(318,40,o),
(302,53,o),
(302,75,cs),
(302,86,o),
(306,106,o),
(308,114,cs),
(359,303,l),
(596,585,ls),
(667,670,o),
(681,674,o),
(731,681,c),
(741,721,l),
(509,721,l),
(498,681,l),
(564,681,o),
(573,666,o),
(573,651,cs),
(573,626,o),
(542,594,o),
(532,582,cs),
(337,346,l),
(277,599,ls),
(275,608,o),
(267,630,o),
(267,647,cs),
(267,666,o),
(277,681,o),
(350,681,c),
(360,721,l),
(94,721,l),
(83,681,l),
(130,681,o),
(159,671,o),
(172,618,cs),
(254,285,l),
(208,114,ls),
(191,53,o),
(176,42,o),
(94,40,c),
(83,0,l)
);
}
);
width = 626;
}
);
unicode = 89;
},
{
glyphname = Z;
kernLeft = Z;
kernRight = Z;
lastChange = "2024-08-06 02:24:23 +0000";
layers = (
{
anchors = (
{
name = dotbelow;
pos = (213,0);
},
{
name = top;
pos = (468,741);
}
);
layerId = m01;
shapes = (
{
closed = 1;
nodes = (
(467,0,l),
(559,178,l),
(523,198,l),
(431,84,o),
(341,46,o),
(199,46,cs),
(131,46,l),
(662,706,l),
(653,721,l),
(202,721,l),
(118,550,l),
(151,533,l),
(240,629,o),
(317,678,o),
(458,678,cs),
(519,678,l),
(-16,17,l),
(-8,0,l)
);
}
);
width = 599;
}
);
unicode = 90;
},
{
glyphname = Saltillo;
lastChange = "2024-08-06 02:24:23 +0000";
layers = (
{
layerId = m01;
shapes = (
{
closed = 1;
nodes = (
(215,387,ls),
(250,513,o),
(319,595,o),
(319,667,cs),
(319,706,o),
(299,735,o),
(258,735,cs),
(215,735,o),
(183,703,o),
(183,552,cs),
(183,416,o),
(150,323,o),
(124,209,c),
(163,199,l)
);
}
);
width = 296;
}
);
unicode = 42891;
},
{
glyphname = a;
kernLeft = a;
kernRight = a;
lastChange = "2024-08-06 02:24:23 +0000";
layers = (
{
anchors = (
{
name = dotbelow;
pos = (122,0);
},
{
name = ogonek;
pos = (282,0);
},
{
name = top;
pos = (383,494);
}
);
layerId = m01;
shapes = (
{
closed = 1;
nodes = (
(199,-14,o),
(253,69,o),
(274,98,c),
(273,94,o),
(264,65,o),
(264,44,cs),
(264,11,o),
(286,-14,o),
(319,-14,cs),
(381,-14,o),
(441,76,o),
(477,129,c),
(449,149,l),
(424,116,o),
(373,49,o),
(353,49,cs),
(347,49,o),
(345,55,o),
(345,63,cs),
(345,115,o),
(442,352,o),
(491,481,c),
(414,481,l),
(389,423,l),
(381,456,o),
(360,482,o),
(312,482,cs),
(177,482,o),
(13,275,o),
(13,119,cs),
(13,37,o),
(58,-14,o),
(120,-14,cs)
);
},
{
closed = 1;
nodes = (
(102,29,o),
(95,58,o),
(95,90,cs),
(95,165,o),
(134,251,o),
(176,323,cs),
(204,371,o),
(253,446,o),
(307,446,cs),
(338,446,o),
(358,422,o),
(358,388,cs),
(358,345,o),
(327,268,o),
(303,218,cs),
(270,150,o),
(199,29,o),
(134,29,cs)
);
}
);
width = 511;
}
);
unicode = 97;
},
{
glyphname = ae;
kernLeft = a;
kernRight = e;
lastChange = "2024-08-06 02:24:23 +0000";
layers = (
{
anchors = (
{
name = top;
pos = (507,494);
}
);
layerId = m01;
shapes = (
{
closed = 1;
nodes = (
(200,-14,o),
(272,93,o),
(296,123,c),
(308,36,o),
(349,-14,o),
(417,-14,cs),
(504,-14,o),
(578,68,o),
(631,134,c),
(602,156,l),
(562,111,o),
(494,35,o),
(440,35,cs),
(401,35,o),
(388,76,o),
(388,118,cs),
(388,155,l),
(545,226,o),
(654,318,o),
(654,405,cs),
(654,456,o),
(617,483,o),
(572,483,cs),
(538,483,o),
(508,467,o),
(479,441,c),
(491,479,l),
(414,479,l),
(388,435,l),
(374,467,o),
(351,483,o),
(312,483,cs),
(246,483,o),
(184,438,o),
(136,386,cs),
(66,311,o),
(11,207,o),
(11,120,cs),
(11,42,o),
(55,-14,o),
(116,-14,cs)
);
},
{
closed = 1;
nodes = (
(102,29,o),
(95,58,o),
(95,90,cs),
(95,165,o),
(134,251,o),
(176,323,cs),
(208,378,o),
(254,446,o),
(308,446,cs),
(338,446,o),
(356,425,o),
(356,392,cs),
(356,348,o),
(324,266,o),
(301,218,cs),
(270,153,o),
(199,29,o),
(134,29,cs)
);
},
{
closed = 1;
nodes = (
(426,323,o),
(486,446,o),
(556,446,cs),
(579,446,o),
(587,432,o),
(587,407,cs),
(587,344,o),
(536,288,o),
(485,249,cs),
(450,222,o),
(419,206,o),
(390,187,c)
);
}
);
width = 691;
}
);
unicode = 230;
},
{
glyphname = b;
kernLeft = b;
kernRight = b;
lastChange = "2024-08-06 02:24:23 +0000";
layers = (
{
anchors = (
{
name = dotbelow;
pos = (143,0);
},
{
name = top;
pos = (384,742);
}
);
layerId = m01;
shapes = (
{
closed = 1;
nodes = (
(294,-14,o),
(435,181,o),
(435,336,cs),
(435,438,o),
(373,483,o),
(314,483,cs),
(273,483,o),
(237,462,o),
(201,422,c),
(283,729,l),
(123,692,l),
(116,664,l),
(151,661,o),
(175,651,o),
(175,629,cs),
(175,617,o),
(167,585,o),
(160,559,cs),
(56,173,ls),
(49,147,o),
(42,117,o),
(42,95,cs),
(42,34,o),
(94,-14,o),
(160,-14,cs)
);
},
{
closed = 1;
nodes = (
(146,30,o),
(123,53,o),
(123,91,cs),
(123,139,o),
(160,276,o),
(195,348,cs),
(225,410,o),
(258,432,o),
(290,432,cs),
(324,432,o),
(342,407,o),
(342,352,cs),
(342,284,o),
(314,190,o),
(297,146,cs),
(269,73,o),
(228,30,o),
(181,30,cs)
);
}
);
width = 455;
}
);
unicode = 98;
},
{
glyphname = bstroke;
kernLeft = b;
kernRight = b;
lastChange = "2024-08-06 02:24:23 +0000";
layers = (
{
layerId = m01;
shapes = (
{
closed = 1;
nodes = (
(373,544,l),
(383,584,l),
(104,584,l),
(93,544,l)
);
},
{
ref = b;
}
);
width = 455;
}
);
unicode = 384;
},
{
glyphname = c;
kernLeft = c;
kernRight = c;
lastChange = "2024-08-06 02:24:23 +0000";
layers = (
{
anchors = (
{
name = attachcedilla;
pos = (134,0);
},
{
name = top;
pos = (335,494);
}
);
layerId = m01;
shapes = (
{
closed = 1;
nodes = (
(235,-14,o),
(304,69,o),
(346,121,c),
(319,143,l),
(279,101,o),
(224,34,o),
(169,34,cs),
(130,34,o),
(112,67,o),
(112,112,cs),
(112,159,o),
(131,240,o),
(160,312,cs),
(188,381,o),
(224,442,o),
(275,442,cs),
(286,442,o),
(294,439,o),
(294,425,cs),
(294,417,o),
(291,409,o),
(291,398,cs),
(291,375,o),
(305,348,o),
(338,348,cs),
(364,348,o),
(386,369,o),
(386,400,cs),
(386,439,o),
(352,482,o),
(287,482,cs),
(223,482,o),
(170,440,o),
(128,392,cs),
(67,322,o),
(24,232,o),
(24,149,cs),
(24,55,o),
(79,-14,o),
(153,-14,cs)
);
}
);
width = 390;
}
);
unicode = 99;
},
{
glyphname = d;
kernLeft = d;
kernRight = d;
lastChange = "2024-08-06 02:24:23 +0000";
layers = (
{
anchors = (
{
name = caroncombalt;
pos = (628,735);
},
{
name = commaaccentbelow;
pos = (136,0);
},
{
name = dotbelow;
pos = (135,0);
},
{
name = top;
pos = (408,741);
}
);
layerId = m01;
shapes = (
{
closed = 1;
nodes = (
(204,-14,o),
(252,41,o),
(284,94,c),
(283,83,o),
(281,65,o),
(281,55,cs),
(281,22,o),
(304,-8,o),
(337,-8,cs),
(398,-8,o),
(459,94,o),
(490,142,c),
(459,163,l),
(435,129,o),
(384,58,o),
(367,58,cs),
(362,58,o),
(360,63,o),
(360,70,cs),
(360,79,o),
(364,95,o),
(371,121,cs),
(534,729,l),
(358,692,l),
(350,664,l),
(410,657,o),
(416,649,o),
(416,623,cs),
(416,613,o),
(415,609,o),
(401,556,cs),
(373,452,l),
(356,466,o),
(334,482,o),
(297,482,cs),
(163,482,o),
(21,277,o),
(21,128,cs),
(21,44,o),
(66,-14,o),
(136,-14,cs)
);
},
{
closed = 1;
nodes = (
(120,37,o),
(114,77,o),
(114,106,cs),
(114,174,o),
(146,273,o),
(175,331,cs),
(193,367,o),
(237,441,o),
(298,441,cs),
(329,441,o),
(345,422,o),
(345,380,cs),
(345,340,o),
(330,275,o),
(304,218,cs),
(271,146,o),
(224,37,o),
(159,37,cs)
);
}
);
width = 517;
}
);
unicode = 100;
},
{
glyphname = dcroat;
kernLeft = d;
kernRight = d;
lastChange = "2024-08-06 02:24:23 +0000";
layers = (
{
layerId = m01;
shapes = (
{
closed = 1;
nodes = (
(573,544,l),
(583,584,l),
(315,584,l),
(304,544,l)
);
},
{
ref = d;
}
);
width = 517;
}
);
unicode = 273;
},
{
glyphname = eth;
lastChange = "2024-08-06 02:24:23 +0000";
layers = (
{
anchors = (
{
name = dotbelow;
pos = (145,0);
}
);
layerId = m01;
shapes = (
{
closed = 1;
nodes = (
(238,-14,o),
(299,40,o),
(342,96,cs),
(385,153,o),
(406,208,o),
(418,277,cs),
(424,311,o),
(427,346,o),
(427,377,cs),
(427,497,o),
(382,589,o),
(331,651,c),
(457,723,l),
(443,755,l),
(305,676,l),
(275,712,o),
(205,755,o),
(163,771,c),
(135,737,l),
(172,711,o),
(218,680,o),
(240,644,c),
(107,569,l),
(117,535,l),
(259,615,l),
(278,590,o),
(303,529,o),
(312,478,c),
(303,481,o),
(292,482,o),
(281,482,cs),
(235,482,o),
(194,462,o),
(154,426,cs),
(84,363,o),
(24,253,o),
(24,153,cs),
(24,53,o),
(85,-14,o),
(166,-14,cs)
);
},
{
closed = 1;
nodes = (
(117,22,o),
(109,74,o),
(109,110,cs),
(109,184,o),
(142,295,o),
(177,362,cs),
(207,419,o),
(239,446,o),
(274,446,cs),
(312,446,o),
(336,415,o),
(336,359,cs),
(336,291,o),
(300,175,o),
(276,120,cs),
(246,52,o),
(212,22,o),
(171,22,cs)
);
}
);
width = 445;
}
);
unicode = 240;
},
{
glyphname = e;
kernLeft = e;
kernRight = e;
lastChange = "2024-08-06 02:24:23 +0000";
layers = (
{
anchors = (
{
name = attachcedilla;
pos = (122,0);
},
{
name = dotbelow;
pos = (125,0);
},
{
name = ogonek;
pos = (200,0);
},
{
name = top;
pos = (335,494);
}
);
layerId = m01;
shapes = (
{
closed = 1;
nodes = (
(240,-14,o),
(321,85,o),
(359,132,c),
(332,157,l),
(287,107,o),
(221,35,o),
(167,35,cs),
(138,35,o),
(115,55,o),
(115,119,cs),
(115,129,o),
(115,134,o),
(116,147,c),
(183,184,o),
(261,226,o),
(314,281,cs),
(341,309,o),
(377,357,o),
(377,405,cs),
(377,455,o),
(339,482,o),
(291,482,cs),
(170,482,o),
(25,306,o),
(25,146,cs),
(25,70,o),
(58,-14,o),
(145,-14,cs)
);
},
{
closed = 1;
nodes = (
(135,301,o),
(209,446,o),
(280,446,cs),
(303,446,o),
(310,431,o),
(310,408,cs),
(310,346,o),
(262,286,o),
(210,245,cs),
(181,222,o),
(150,205,o),
(121,186,c)
);
}
);
width = 386;
}
);
unicode = 101;
},
{
glyphname = eogonek;
kernLeft = e;
kernRight = e;
lastChange = "2024-08-06 02:24:23 +0000";
layers = (
{
anchors = (
{
name = attachcedilla;
pos = (122,0);
},
{
name = dotbelow;
pos = (125,0);
},
{
name = ogonek;
pos = (200,0);
},
{
name = top;
pos = (335,494);
}
);
layerId = m01;
shapes = (
{
closed = 1;
nodes = (
(219,-194,o),
(251,-175,o),
(266,-166,c),
(256,-134,l),
(238,-143,o),
(227,-148,o),
(207,-148,cs),
(170,-148,o),
(159,-130,o),
(159,-101,cs),
(159,-42,o),
(204,-11,o),
(258,30,cs),
(300,62,o),
(309,71,o),
(359,132,c),
(332,157,l),
(287,107,o),
(221,35,o),
(167,35,cs),
(138,35,o),
(115,55,o),
(115,119,cs),
(115,129,o),
(115,134,o),
(116,147,c),
(183,184,o),
(261,226,o),
(314,281,cs),
(341,309,o),
(377,357,o),
(377,405,cs),
(377,455,o),
(339,482,o),
(291,482,cs),
(170,482,o),
(25,306,o),
(25,146,cs),
(25,70,o),
(58,-14,o),
(147,-14,cs),
(158,-14,l),
(132,-34,o),
(96,-74,o),
(96,-128,cs),
(96,-160,o),
(109,-194,o),
(172,-194,cs)
);
},
{
closed = 1;
nodes = (
(135,301,o),
(209,446,o),
(280,446,cs),
(303,446,o),
(310,431,o),
(310,408,cs),
(310,346,o),
(262,286,o),
(210,245,cs),
(181,222,o),
(150,205,o),
(121,186,c)
);
}
);
width = 386;
}
);
unicode = 281;
},
{
glyphname = schwa;
kernLeft = e;
kernRight = e;
lastChange = "2024-08-06 02:24:23 +0000";
layers = (
{
layerId = m01;
shapes = (
{
closed = 1;
nodes = (
(232,-14,o),
(377,162,o),
(377,322,cs),
(377,398,o),
(344,482,o),
(257,482,cs),
(162,482,o),
(81,383,o),
(43,336,c),
(70,311,l),
(114,360,o),
(182,434,o),
(235,434,cs),
(264,434,o),
(288,413,o),
(288,349,cs),
(288,339,o),
(288,334,o),
(286,321,c),
(219,284,o),
(144,244,o),
(89,187,cs),
(58,155,o),
(25,111,o),
(25,64,cs),
(25,13,o),
(63,-14,o),
(111,-14,cs)
);
},
{
closed = 1;
nodes = (
(99,22,o),
(92,37,o),
(92,61,cs),
(92,125,o),
(143,184,o),
(194,224,cs),
(226,249,o),
(252,263,o),
(281,282,c),
(267,168,o),
(194,22,o),
(122,22,cs)
);
}
);
width = 386;
}
);
unicode = 601;
},
{
glyphname = f;
kernLeft = f;
kernRight = f;
lastChange = "2024-08-06 02:24:23 +0000";
layers = (
{
anchors = (
{
name = top;
pos = (349,741);
}
);
layerId = m01;
shapes = (
{
closed = 1;
nodes = (
(-11,-188,o),
(49,-105,o),
(85,-36,cs),
(156,100,o),
(196,301,o),
(227,425,c),
(320,425,l),
(332,468,l),
(237,468,l),
(265,574,o),
(292,659,o),
(330,659,cs),
(352,659,o),
(370,632,o),
(400,632,cs),
(427,632,o),
(445,654,o),
(445,677,cs),
(445,701,o),
(426,724,o),
(388,724,cs),
(317,724,o),
(213,646,o),
(160,468,c),
(78,468,l),
(66,425,l),
(147,425,l),
(110,305,o),
(75,121,o),
(38,-31,cs),
(30,-64,o),
(9,-99,o),
(-31,-97,cs),
(-70,-95,ls),
(-89,-94,o),
(-126,-106,o),
(-126,-148,cs),
(-126,-175,o),
(-110,-188,o),
(-82,-188,cs)
);
}
);
width = 278;
}
);
unicode = 102;
},
{
glyphname = g;
kernLeft = g;
kernRight = g;
lastChange = "2024-08-06 02:24:23 +0000";
layers = (
{
anchors = (
{
name = top;
pos = (369,494);
}
);
layerId = m01;
shapes = (
{
closed = 1;
nodes = (
(268,-187,o),
(384,-149,o),
(384,-53,cs),
(384,16,o),
(323,40,o),
(278,55,cs),
(235,69,o),
(170,87,o),
(136,94,cs),
(127,96,o),
(111,99,o),
(111,109,cs),
(111,121,o),
(138,137,o),
(162,151,c),
(190,143,o),
(202,141,o),
(218,141,cs),
(335,141,o),
(434,241,o),
(434,344,cs),
(434,382,o),
(421,410,o),
(403,429,c),
(406,431,o),
(417,432,o),
(421,432,cs),
(439,432,o),
(455,415,o),
(477,415,cs),
(503,415,o),
(518,437,o),
(518,460,cs),
(518,480,o),
(507,499,o),
(475,499,cs),
(434,499,o),
(400,469,o),
(381,452,c),
(362,467,o),
(330,482,o),
(287,482,cs),
(174,482,o),
(79,376,o),
(79,273,cs),
(79,215,o),
(109,186,o),
(131,170,c),
(103,155,o),
(18,111,o),
(18,77,cs),
(18,51,o),
(65,35,o),
(92,26,c),
(22,8,o),
(-53,-24,o),
(-53,-85,cs),
(-53,-156,o),
(49,-187,o),
(153,-187,cs)
);
},
{
closed = 1;
nodes = (
(78,-147,o),
(32,-127,o),
(32,-84,cs),
(32,-28,o),
(110,-5,o),
(157,8,c),
(269,-16,o),
(307,-37,o),
(307,-77,cs),
(307,-128,o),
(243,-147,o),
(162,-147,cs)
);
},
{
closed = 1;
nodes = (
(176,177,o),
(159,205,o),
(159,245,cs),
(159,309,o),
(202,446,o),
(292,446,cs),
(326,446,o),
(352,426,o),
(352,378,cs),
(352,335,o),
(331,267,o),
(309,230,cs),
(290,198,o),
(263,177,o),
(223,177,cs)
);
}
);
width = 482;
}
);
unicode = 103;
},
{
glyphname = h;
kernLeft = h;
kernRight = h;
lastChange = "2024-08-06 02:24:23 +0000";
layers = (
{
anchors = (
{
name = attachcedilla;
pos = (55,0);
},
{
name = dotbelow;
pos = (187,0);
},
{
name = top;
pos = (383,741);
}
);
layerId = m01;
shapes = (
{
closed = 1;
nodes = (
(388,-14,o),
(443,52,o),
(498,141,c),
(467,163,l),
(439,122,o),
(396,51,o),
(376,51,cs),
(371,51,o),
(369,55,o),
(369,60,cs),
(369,74,o),
(385,125,o),
(401,174,cs),
(430,262,o),
(465,361,o),
(465,407,cs),
(465,448,o),
(436,482,o),
(395,482,cs),
(338,482,o),
(286,415,o),
(251,360,cs),
(224,318,o),
(194,262,o),
(168,213,c),
(305,729,l),
(137,692,l),
(130,664,l),
(161,662,o),
(188,655,o),
(188,630,cs),
(188,617,o),
(180,585,o),
(173,558,cs),
(24,0,l),
(110,0,l),
(164,110,o),
(206,207,o),
(262,301,cs),
(289,346,o),
(336,419,o),
(368,419,cs),
(378,419,o),
(383,411,o),
(383,399,cs),
(383,369,o),
(346,269,o),
(326,205,cs),
(296,110,o),
(283,69,o),
(283,45,cs),
(283,8,o),
(316,-14,o),
(343,-14,cs)
);
}
);
width = 526;
}
);
unicode = 104;
},
{
glyphname = hbar;
kernLeft = h;
kernRight = h;
lastChange = "2024-08-06 02:24:23 +0000";
layers = (
{
layerId = m01;
shapes = (
{
closed = 1;
nodes = (
(377,544,l),
(387,584,l),
(108,584,l),
(97,544,l)
);
},
{
ref = h;
}
);
width = 526;
}
);
unicode = 295;
},
{
glyphname = idotless;
kernLeft = i;
kernRight = i;
lastChange = "2024-08-06 02:24:23 +0000";
layers = (
{
anchors = (
{
name = dotbelow;
pos = (83,0);
},
{
name = ogonek;
pos = (106,0);
},
{
name = top;
pos = (258,494);
},
{
name = top_dot;
pos = (258,494);
}
);
layerId = m01;
shapes = (
{
closed = 1;
nodes = (
(160,-14,o),
(223,46,o),
(281,149,c),
(251,170,l),
(219,119,o),
(173,54,o),
(153,54,cs),
(147,54,o),
(144,59,o),
(144,63,cs),
(144,73,o),
(164,132,o),
(179,183,cs),
(207,278,o),
(251,391,o),
(251,434,cs),
(251,467,o),
(225,482,o),
(200,482,cs),
(137,482,o),
(75,388,o),
(34,324,c),
(67,302,l),
(94,342,o),
(146,421,o),
(160,421,cs),
(164,421,o),
(168,416,o),
(168,412,cs),
(168,398,o),
(125,276,o),
(104,208,cs),
(88,155,o),
(61,83,o),
(61,46,cs),
(61,8,o),
(88,-14,o),
(115,-14,cs)
);
}
);
width = 306;
}
);
unicode = 305;
},
{
glyphname = jdotless;
kernLeft = j;
kernRight = j;
lastChange = "2024-08-06 02:24:23 +0000";
layers = (
{
anchors = (
{
name = top;
pos = (282,494);
},
{
name = top_dot;
pos = (282,494);
}
);
layerId = m01;
shapes = (
{
closed = 1;
nodes = (
(114,-192,o),
(177,-15,o),
(189,29,cs),
(277,352,ls),
(283,374,o),
(289,399,o),
(289,417,cs),
(289,453,o),
(265,482,o),
(234,482,cs),
(175,482,o),
(96,373,o),
(61,318,c),
(95,292,l),
(121,332,o),
(178,410,o),
(198,410,cs),
(202,410,o),
(202,406,o),
(202,403,cs),
(202,396,o),
(196,376,o),
(192,361,cs),
(76,-74,ls),
(72,-89,o),
(61,-120,o),
(47,-120,cs),
(35,-120,o),
(17,-95,o),
(-17,-95,cs),
(-48,-95,o),
(-61,-115,o),
(-61,-139,cs),
(-61,-171,o),
(-37,-192,o),
(2,-192,cs)
);
}
);
width = 318;
}
);
unicode = 567;
},
{
glyphname = k;
kernLeft = k;
kernRight = k;
lastChange = "2024-08-06 02:24:23 +0000";
layers = (
{
anchors = (
{
name = commaaccentbelow;
pos = (184,0);
},
{
name = dotbelow;
pos = (177,0);
},
{
name = top;
pos = (408,741);
}
);
layerId = m01;
shapes = (
{
closed = 1;
nodes = (
(378,-14,o),
(422,54,o),
(453,139,c),
(415,156,l),
(406,128,o),
(374,61,o),
(355,61,cs),
(330,61,o),
(318,169,o),
(311,218,c),
(399,256,o),
(476,320,o),
(476,391,cs),
(476,441,o),
(439,482,o),
(376,482,cs),
(303,482,o),
(243,426,o),
(199,373,c),
(294,729,l),
(126,692,l),
(119,664,l),
(157,661,o),
(177,654,o),
(177,627,cs),
(177,615,o),
(173,599,o),
(162,558,cs),
(13,0,l),
(99,0,l),
(147,178,l),
(229,195,l),
(256,21,o),
(279,-14,o),
(321,-14,cs)
);
},
{
closed = 1;
nodes = (
(211,379,o),
(308,425,o),
(346,425,cs),
(372,425,o),
(389,403,o),
(389,376,cs),
(389,301,o),
(264,235,o),
(158,218,c)
);
}
);
width = 488;
}
);
unicode = 107;
},
{
glyphname = l;
kernLeft = l;
lastChange = "2024-08-06 02:24:23 +0000";
layers = (
{
anchors = (
{
name = caroncombalt;
pos = (392,735);
},
{
name = commaaccentbelow;
pos = (83,0);
},
{
name = dotbelow;
pos = (83,0);
},
{
name = ldot;
pos = (306,320);
},
{
name = top;
pos = (281,741);
}
);
layerId = m01;
shapes = (
{
closed = 1;
nodes = (
(149,-14,o),
(196,49,o),
(259,149,c),
(229,169,l),
(199,126,o),
(159,57,o),
(137,57,cs),
(130,57,o),
(125,63,o),
(125,69,cs),
(125,80,o),
(140,140,o),
(151,181,cs),
(298,729,l),
(132,699,l),
(124,670,l),
(162,667,o),
(183,661,o),
(183,634,cs),
(183,624,o),
(186,635,o),
(166,560,cs),
(72,208,ls),
(53,137,o),
(36,78,o),
(36,47,cs),
(36,8,o),
(63,-14,o),
(95,-14,cs)
);
}
);
width = 286;
}
);
unicode = 108;
},
{
glyphname = lslash;
kernLeft = l;
kernRight = l;
lastChange = "2024-08-06 02:24:23 +0000";
layers = (
{
anchors = (
{
name = caroncombalt;
pos = (392,735);
},
{
name = commaaccentbelow;
pos = (83,0);
},
{
name = dotbelow;
pos = (83,0);
},
{
name = top;
pos = (281,741);
}
);
layerId = m01;
shapes = (
{
closed = 1;
nodes = (
(149,-14,o),
(196,49,o),
(259,149,c),
(229,169,l),
(199,126,o),
(159,57,o),
(137,57,cs),
(131,57,o),
(125,63,o),
(125,68,cs),
(125,79,o),
(149,174,o),
(151,181,cs),
(199,357,l),
(312,417,l),
(297,454,l),
(213,410,l),
(298,729,l),
(132,699,l),
(124,670,l),
(151,669,o),
(183,661,o),
(183,640,cs),
(183,626,o),
(196,677,o),
(166,560,cs),
(116,366,l),
(31,322,l),
(49,285,l),
(101,314,l),
(72,208,ls),
(46,113,o),
(36,72,o),
(36,48,cs),
(36,8,o),
(63,-14,o),
(95,-14,cs)
);
}
);
width = 286;
}
);
unicode = 322;
},
{
glyphname = m;
kernLeft = m;
kernRight = m;
lastChange = "2024-08-06 02:24:23 +0000";
layers = (
{
anchors = (
{
name = dotbelow;
pos = (315,0);
},
{
name = top;
pos = (503,494);
}
);
layerId = m01;
shapes = (
{
closed = 1;
nodes = (
(653,-14,o),
(708,37,o),
(768,139,c),
(736,161,l),
(708,121,o),
(658,50,o),
(642,50,cs),
(637,50,o),
(635,56,o),
(635,61,cs),
(635,75,o),
(652,124,o),
(669,175,cs),
(702,274,o),
(737,360,o),
(737,412,cs),
(737,451,o),
(717,482,o),
(677,482,cs),
(621,482,o),
(568,419,o),
(530,361,cs),
(505,323,o),
(460,247,o),
(438,199,c),
(456,266,o),
(485,347,o),
(485,407,cs),
(485,461,o),
(462,482,o),
(431,482,cs),
(374,482,o),
(317,409,o),
(278,347,cs),
(252,305,o),
(228,262,o),
(204,219,c),
(221,276,o),
(253,372,o),
(253,418,cs),
(253,457,o),
(230,482,o),
(202,482,cs),
(145,482,o),
(67,376,o),
(29,318,c),
(61,296,l),
(106,355,o),
(149,416,o),
(167,416,cs),
(171,416,o),
(175,412,o),
(175,403,cs),
(175,376,o),
(137,262,o),
(115,196,cs),
(95,136,o),
(69,67,o),
(39,0,c),
(131,0,l),
(179,112,o),
(248,243,o),
(297,320,cs),
(328,369,o),
(368,423,o),
(392,423,cs),
(402,423,o),
(405,413,o),
(405,401,cs),
(405,364,o),
(379,268,o),
(359,205,cs),
(294,0,l),
(374,0,l),
(424,99,o),
(478,210,o),
(536,303,cs),
(561,343,o),
(613,422,o),
(643,422,cs),
(652,422,o),
(654,414,o),
(654,405,cs),
(654,375,o),
(633,316,o),
(599,218,cs),
(567,126,o),
(548,71,o),
(548,45,cs),
(548,13,o),
(576,-14,o),
(608,-14,cs)
);
}
);
width = 800;
}
);
unicode = 109;
},
{
glyphname = n;
kernLeft = n;
kernRight = n;
lastChange = "2024-08-06 02:24:23 +0000";
layers = (
{
anchors = (
{
name = commaaccentbelow;
pos = (225,0);
},
{
name = dotbelow;
pos = (222,0);
},
{
name = top;
pos = (413,494);
}
);
layerId = m01;
shapes = (
{
closed = 1;
nodes = (
(425,-14,o),
(486,44,o),
(543,141,c),
(511,163,l),
(488,129,o),
(437,49,o),
(416,49,cs),
(410,49,o),
(406,55,o),
(406,61,cs),
(406,73,o),
(419,108,o),
(442,175,cs),
(490,314,o),
(511,375,o),
(511,412,cs),
(511,452,o),
(487,482,o),
(450,482,cs),
(394,482,o),
(331,411,o),
(296,361,cs),
(268,321,o),
(224,259,o),
(194,202,c),
(218,267,o),
(249,362,o),
(249,418,cs),
(249,462,o),
(230,482,o),
(201,482,cs),
(136,482,o),
(75,383,o),
(25,315,c),
(55,294,l),
(93,350,o),
(142,416,o),
(160,416,cs),
(165,416,o),
(170,412,o),
(170,401,cs),
(170,375,o),
(140,285,o),
(110,194,cs),
(87,125,o),
(68,71,o),
(39,0,c),
(125,0,l),
(178,99,o),
(238,213,o),
(302,303,cs),
(327,338,o),
(381,417,o),
(411,417,cs),
(420,417,o),
(426,410,o),
(426,401,cs),
(426,381,o),
(398,296,o),
(373,224,cs),
(346,146,o),
(321,80,o),
(321,45,cs),
(321,8,o),
(348,-14,o),
(377,-14,cs)
);
}
);
width = 572;
}
);
unicode = 110;
},
{
glyphname = o;
kernLeft = o;
kernRight = o;
lastChange = "2024-08-06 02:24:23 +0000";
layers = (
{
anchors = (
{
name = attachhorn;
pos = (450,368);
},
{
name = dotbelow;
pos = (145,0);
},
{
name = ogonek;
pos = (192,0);
},
{
name = top;
pos = (350,494);
}
);
layerId = m01;
shapes = (
{
closed = 1;
nodes = (
(238,-14,o),
(298,39,o),
(340,94,cs),
(395,166,o),
(421,244,o),
(421,310,cs),
(421,409,o),
(362,482,o),
(279,482,cs),
(236,482,o),
(194,462,o),
(154,426,cs),
(84,363,o),
(24,253,o),
(24,154,cs),
(24,54,o),
(84,-14,o),
(166,-14,cs)
);
},
{
closed = 1;
nodes = (
(117,22,o),
(109,74,o),
(109,110,cs),
(109,184,o),
(142,295,o),
(177,362,cs),
(207,419,o),
(239,446,o),
(274,446,cs),
(312,446,o),
(336,415,o),
(336,359,cs),
(336,291,o),
(300,175,o),
(276,120,cs),
(246,52,o),
(212,22,o),
(171,22,cs)
);
}
);
width = 445;
}
);
unicode = 111;
},
{
glyphname = ohorn;
kernLeft = o;
kernRight = horn;
lastChange = "2024-08-06 02:28:50 +0000";
layers = (
{
layerId = m01;
shapes = (
{
closed = 1;
nodes = (
(526,338,o),
(619,442,o),
(619,523,cs),
(619,574,o),
(582,592,o),
(555,592,cs),
(523,592,o),
(495,569,o),
(495,533,cs),
(495,488,o),
(537,482,o),
(537,459,cs),
(537,428,o),
(456,360,o),
(382,332,c),
(363,288,l)
);
},
{
ref = o;
}
);
width = 537;
}
);
unicode = 417;
},
{
glyphname = oslash;
kernLeft = o;
kernRight = o;
lastChange = "2024-08-06 02:24:23 +0000";
layers = (
{
layerId = m01;
shapes = (
{
closed = 1;
nodes = (
(437,475,l),
(411,495,l),
(6,-5,l),
(31,-26,l)
);
},
{
ref = o;
}
);
width = 445;
}
);
unicode = 248;
},
{
glyphname = oe;
kernLeft = o;
kernRight = e;
lastChange = "2024-08-06 02:24:23 +0000";
layers = (
{
anchors = (
{
name = top;
pos = (492,494);
}
);
layerId = m01;
shapes = (
{
closed = 1;
nodes = (
(253,-14,o),
(302,51,o),
(322,81,c),
(329,9,o),
(382,-14,o),
(424,-14,cs),
(503,-14,o),
(585,68,o),
(636,131,c),
(609,156,l),
(565,101,o),
(498,32,o),
(443,32,cs),
(406,32,o),
(391,64,o),
(391,118,cs),
(391,133,o),
(392,139,o),
(394,150,c),
(547,220,o),
(655,317,o),
(655,403,cs),
(655,455,o),
(616,482,o),
(568,482,cs),
(512,482,o),
(455,446,o),
(404,387,c),
(376,469,o),
(321,482,o),
(282,482,cs),
(243,482,o),
(192,469,o),
(132,403,cs),
(73,338,o),
(25,245,o),
(25,153,cs),
(25,39,o),
(100,-14,o),
(173,-14,cs)
);
},
{
closed = 1;
nodes = (
(117,22,o),
(109,75,o),
(109,111,cs),
(109,184,o),
(143,298,o),
(177,362,cs),
(208,420,o),
(245,446,o),
(280,446,cs),
(318,446,o),
(339,415,o),
(339,360,cs),
(339,289,o),
(305,180,o),
(277,120,cs),
(248,57,o),
(212,22,o),
(170,22,cs)
);
},
{
closed = 1;
nodes = (
(426,320,o),
(486,446,o),
(557,446,cs),
(581,446,o),
(588,431,o),
(588,408,cs),
(588,344,o),
(537,288,o),
(486,249,cs),
(451,222,o),
(421,206,o),
(391,187,c)
);
}
);
width = 541;
}
);
unicode = 339;
},
{
glyphname = p;
kernLeft = p;
kernRight = p;
lastChange = "2024-08-06 02:24:23 +0000";
layers = (
{
anchors = (
{
name = top;
pos = (419,494);
}
);
layerId = m01;
shapes = (
{
closed = 1;
nodes = (
(171,-187,l),
(182,-149,l),
(135,-143,o),
(114,-139,o),
(114,-117,cs),
(114,-106,o),
(119,-86,o),
(123,-71,cs),
(138,-15,l),
(289,-15,o),
(359,60,o),
(401,122,cs),
(454,200,o),
(469,266,o),
(469,318,cs),
(469,429,o),
(402,482,o),
(320,482,cs),
(298,482,o),
(283,478,o),
(269,474,c),
(311,631,l),
(225,631,l),
(175,445,l),
(120,416,o),
(79,386,o),
(37,347,c),
(62,320,l),
(94,346,o),
(128,369,o),
(160,387,c),
(31,-92,ls),
(18,-142,o),
(14,-144,o),
(-50,-149,c),
(-59,-187,l)
);
},
{
closed = 1;
nodes = (
(256,426,l),
(268,428,o),
(278,430,o),
(292,430,cs),
(334,430,o),
(377,410,o),
(377,314,cs),
(377,232,o),
(345,143,o),
(290,82,cs),
(253,42,o),
(219,27,o),
(149,25,c)
);
}
);
width = 501;
}
);
unicode = 112;
},
{
glyphname = thorn;
kernLeft = p;
kernRight = p;
lastChange = "2024-08-06 02:24:23 +0000";
layers = (
{
anchors = (
{
name = top;
pos = (419,494);
}
);
layerId = m01;
shapes = (
{
closed = 1;
nodes = (
(171,-187,l),
(182,-149,l),
(135,-143,o),
(114,-139,o),
(114,-117,cs),
(114,-106,o),
(119,-86,o),
(123,-71,cs),
(138,-15,l),
(289,-15,o),
(359,60,o),
(401,122,cs),
(454,200,o),
(469,266,o),
(469,318,cs),
(469,429,o),
(402,482,o),
(320,482,cs),
(298,482,o),
(283,478,o),
(269,474,c),
(337,729,l),
(171,699,l),
(163,670,l),
(195,668,o),
(222,661,o),
(222,639,cs),
(222,626,o),
(231,659,o),
(205,560,cs),
(175,445,l),
(120,416,o),
(79,386,o),
(37,347,c),
(62,320,l),
(94,346,o),
(128,369,o),
(160,387,c),
(31,-92,ls),
(18,-142,o),
(14,-144,o),
(-50,-149,c),
(-59,-187,l)
);
},
{
closed = 1;
nodes = (
(256,426,l),
(268,428,o),
(278,430,o),
(292,430,cs),
(334,430,o),
(377,410,o),
(377,314,cs),
(377,232,o),
(345,143,o),
(290,82,cs),
(253,42,o),
(219,27,o),
(149,25,c)
);
}
);
width = 501;
}
);
unicode = 254;
},
{
glyphname = q;
kernLeft = q;
kernRight = q;
lastChange = "2024-08-06 02:24:23 +0000";
layers = (
{
anchors = (
{
name = top;
pos = (357,494);
}
);
layerId = m01;
shapes = (
{
closed = 1;
nodes = (
(361,-187,l),
(372,-149,l),
(322,-143,o),
(303,-142,o),
(303,-117,cs),
(303,-111,o),
(304,-107,o),
(314,-70,cs),
(461,477,l),
(428,485,l),
(381,438,l),
(370,454,o),
(348,482,o),
(302,482,cs),
(182,482,o),
(23,286,o),
(23,127,cs),
(23,52,o),
(59,-14,o),
(134,-14,cs),
(186,-14,o),
(223,17,o),
(269,86,c),
(222,-91,ls),
(209,-141,o),
(204,-144,o),
(141,-149,c),
(131,-187,l)
);
},
{
closed = 1;
nodes = (
(115,35,o),
(109,74,o),
(109,102,cs),
(109,173,o),
(149,269,o),
(179,330,cs),
(195,363,o),
(237,446,o),
(298,446,cs),
(329,446,o),
(341,424,o),
(341,383,cs),
(341,331,o),
(321,279,o),
(298,218,cs),
(269,141,o),
(209,35,o),
(150,35,cs)
);
}
);
width = 479;
}
);
unicode = 113;
},
{
glyphname = r;
kernLeft = r;
kernRight = r;
lastChange = "2024-08-06 02:24:23 +0000";
layers = (
{
anchors = (
{
name = commaaccentbelow;
pos = (76,0);
},
{
name = dotbelow;
pos = (76,0);
},
{
name = top;
pos = (337,494);
}
);
layerId = m01;
shapes = (
{
closed = 1;
nodes = (
(128,0,l),
(174,92,o),
(221,192,o),
(274,277,cs),
(300,319,o),
(323,367,o),
(373,379,cs),
(405,387,o),
(450,398,o),
(450,440,cs),
(450,468,o),
(430,489,o),
(403,489,cs),
(374,489,o),
(354,465,o),
(338,445,cs),
(283,377,o),
(253,311,o),
(209,236,c),
(228,304,o),
(251,382,o),
(251,424,cs),
(251,465,o),
(229,482,o),
(204,482,cs),
(152,482,o),
(98,412,o),
(34,320,c),
(63,298,l),
(94,343,o),
(144,417,o),
(165,417,cs),
(170,417,o),
(172,414,o),
(172,409,cs),
(172,405,o),
(171,400,o),
(170,395,cs),
(142,283,o),
(91,132,o),
(42,0,c)
);
}
);
width = 402;
}
);
unicode = 114;
},
{
glyphname = s;
kernLeft = s;
kernRight = s;
lastChange = "2024-08-06 02:24:23 +0000";
layers = (
{
anchors = (
{
name = attachcedilla;
pos = (114,0);
},
{
name = commaaccentbelow;
pos = (128,0);
},
{
name = dotbelow;
pos = (128,0);
},
{
name = top;
pos = (302,494);
}
);
layerId = m01;
shapes = (
{
closed = 1;
nodes = (
(239,-14,o),
(320,59,o),
(320,142,cs),
(320,267,o),
(135,292,o),
(135,377,cs),
(135,409,o),
(161,440,o),
(207,440,cs),
(250,440,o),
(254,412,o),
(263,390,cs),
(270,373,o),
(284,351,o),
(311,351,cs),
(336,351,o),
(356,370,o),
(356,397,cs),
(356,443,o),
(300,482,o),
(232,482,cs),
(145,482,o),
(67,418,o),
(67,340,cs),
(67,222,o),
(249,200,o),
(249,106,cs),
(249,62,o),
(208,30,o),
(159,30,cs),
(125,30,o),
(110,45,o),
(103,63,cs),
(95,83,o),
(86,133,o),
(45,133,cs),
(19,133,o),
(-4,114,o),
(-4,82,cs),
(-4,31,o),
(57,-14,o),
(137,-14,cs)
);
}
);
width = 377;
}
);
unicode = 115;
},
{
glyphname = germandbls;
kernLeft = f;
kernRight = s;
lastChange = "2024-08-06 02:24:23 +0000";
layers = (
{
anchors = (
{
name = attachcedilla;
pos = (391,0);
},
{
name = commaaccentbelow;
pos = (405,0);
},
{
name = dotbelow;
pos = (405,0);
},
{
name = top;
pos = (349,741);
}
);
layerId = m01;
shapes = (
{
closed = 1;
nodes = (
(-11,-188,o),
(50,-104,o),
(85,-36,cs),
(156,100,o),
(199,320,o),
(237,468,cs),
(270,598,o),
(298,659,o),
(359,659,cs),
(397,659,o),
(435,636,o),
(435,585,cs),
(435,482,o),
(280,451,o),
(280,341,cs),
(280,222,o),
(462,200,o),
(462,106,cs),
(462,62,o),
(421,30,o),
(372,30,cs),
(338,30,o),
(323,45,o),
(316,63,cs),
(308,83,o),
(299,133,o),
(258,133,cs),
(232,133,o),
(209,114,o),
(209,82,cs),
(209,31,o),
(270,-14,o),
(350,-14,cs),
(453,-14,o),
(533,61,o),
(533,142,cs),
(533,264,o),
(348,301,o),
(348,369,cs),
(348,436,o),
(525,491,o),
(525,609,cs),
(525,677,o),
(467,724,o),
(398,724,cs),
(316,724,o),
(221,659,o),
(160,468,cs),
(123,352,o),
(70,100,o),
(38,-31,cs),
(30,-64,o),
(9,-99,o),
(-31,-97,cs),
(-70,-95,ls),
(-89,-94,o),
(-126,-106,o),
(-126,-148,cs),
(-126,-175,o),
(-110,-188,o),
(-82,-188,cs)
);
}
);
width = 597;
}
);
unicode = 223;
},
{
glyphname = longs;
kernLeft = f;
kernRight = f;
lastChange = "2024-08-06 02:24:23 +0000";
layers = (
{
anchors = (
{
name = top;
pos = (349,741);
}
);
layerId = m01;
shapes = (
{
closed = 1;
nodes = (
(-11,-188,o),
(50,-104,o),
(85,-36,cs),
(156,100,o),
(203,332,o),
(237,468,cs),
(264,574,o),
(292,659,o),
(330,659,cs),
(352,659,o),
(370,632,o),
(400,632,cs),
(427,632,o),
(445,654,o),
(445,677,cs),
(445,700,o),
(428,724,o),
(387,724,cs),
(316,724,o),
(220,653,o),
(160,468,cs),
(124,357,o),
(75,122,o),
(38,-31,cs),
(30,-64,o),
(9,-99,o),
(-31,-97,cs),
(-70,-95,ls),
(-89,-94,o),
(-126,-106,o),
(-126,-148,cs),
(-126,-175,o),
(-110,-188,o),
(-82,-188,cs)
);
}
);
width = 278;
}
);
unicode = 383;
},
{
glyphname = t;
kernLeft = t;
kernRight = t;
lastChange = "2024-08-06 02:24:23 +0000";
layers = (
{
anchors = (
{
name = caroncombalt;
pos = (404,735);
},
{
name = commaaccentbelow;
pos = (92,0);
},
{
name = dotbelow;
pos = (92,0);
},
{
name = top;
pos = (296,676);
}
);
layerId = m01;
shapes = (
{
closed = 1;
nodes = (
(182,-14,o),
(238,80,o),
(271,133,c),
(242,154,l),
(217,114,o),
(174,48,o),
(148,48,cs),
(138,48,o),
(137,57,o),
(137,62,cs),
(137,74,o),
(142,98,o),
(147,117,cs),
(229,425,l),
(326,425,l),
(337,468,l),
(241,468,l),
(289,648,l),
(202,648,l),
(155,468,l),
(89,468,l),
(77,425,l),
(143,425,l),
(61,117,ls),
(55,95,o),
(49,72,o),
(49,51,cs),
(49,16,o),
(65,-14,o),
(107,-14,cs)
);
}
);
width = 306;
}
);
unicode = 116;
},
{
glyphname = u;
kernLeft = u;
kernRight = u;
lastChange = "2024-08-06 02:24:23 +0000";
layers = (
{
anchors = (
{
name = attachhorn;
pos = (551,368);
},
{
name = dotbelow;
pos = (185,0);
},
{
name = ogonek;
pos = (354,0);
},
{
name = top;
pos = (394,494);
}
);
layerId = m01;
shapes = (
{
closed = 1;
nodes = (
(183,-14,o),
(241,55,o),
(277,105,cs),
(305,144,o),
(337,195,o),
(383,274,c),
(363,200,o),
(329,107,o),
(329,57,cs),
(329,11,o),
(357,-12,o),
(384,-12,cs),
(445,-12,o),
(516,104,o),
(551,157,c),
(519,178,l),
(492,136,o),
(432,56,o),
(415,56,cs),
(409,56,o),
(409,67,o),
(409,75,cs),
(409,104,o),
(437,202,o),
(465,279,cs),
(482,326,o),
(516,412,o),
(541,483,c),
(453,483,l),
(399,378,o),
(332,250,o),
(271,164,cs),
(249,133,o),
(197,54,o),
(165,54,cs),
(155,54,o),
(149,62,o),
(149,74,cs),
(149,94,o),
(167,142,o),
(201,241,cs),
(233,334,o),
(253,391,o),
(253,420,cs),
(253,454,o),
(226,483,o),
(192,483,cs),
(148,483,o),
(101,434,o),
(31,328,c),
(65,306,l),
(90,343,o),
(139,418,o),
(160,418,cs),
(166,418,o),
(169,413,o),
(169,407,cs),
(169,396,o),
(158,366,o),
(133,293,cs),
(90,168,o),
(64,95,o),
(64,57,cs),
(64,16,o),
(95,-14,o),
(130,-14,cs)
);
}
);
width = 572;
}
);
unicode = 117;
},
{
glyphname = uhorn;
kernLeft = u;
kernRight = horn;
lastChange = "2024-08-06 02:24:23 +0000";
layers = (
{
layerId = m01;
shapes = (
{
closed = 1;
nodes = (
(628,338,o),
(721,443,o),
(721,523,cs),
(721,574,o),
(683,592,o),
(656,592,cs),
(625,592,o),
(597,569,o),
(597,533,cs),
(597,488,o),
(639,482,o),
(639,459,cs),
(639,428,o),
(558,360,o),
(483,332,c),
(465,288,l)
);
},
{
ref = u;
}
);
width = 639;
}
);
unicode = 432;
},
{
glyphname = v;
kernLeft = v;
kernRight = v;
lastChange = "2024-08-06 02:24:23 +0000";
layers = (
{
anchors = (
{
name = dotbelow;
pos = (139,0);
},
{
name = top;
pos = (339,494);
}
);
layerId = m01;
shapes = (
{
closed = 1;
nodes = (
(240,-14,o),
(334,67,o),
(394,216,cs),
(414,266,o),
(439,346,o),
(439,401,cs),
(439,450,o),
(419,482,o),
(385,482,cs),
(360,482,o),
(338,464,o),
(338,432,cs),
(338,391,o),
(374,366,o),
(374,322,cs),
(374,286,o),
(350,217,o),
(318,165,cs),
(288,116,o),
(241,39,o),
(187,39,cs),
(157,39,o),
(152,64,o),
(152,82,cs),
(152,124,o),
(178,175,o),
(201,242,cs),
(236,345,o),
(252,390,o),
(252,424,cs),
(252,461,o),
(232,479,o),
(202,479,cs),
(156,479,o),
(103,435,o),
(38,332,c),
(68,314,l),
(93,348,o),
(139,417,o),
(160,417,cs),
(165,417,o),
(168,413,o),
(168,407,cs),
(168,394,o),
(150,342,o),
(133,295,cs),
(107,223,o),
(69,125,o),
(69,77,cs),
(69,26,o),
(111,-14,o),
(164,-14,cs)
);
}
);
width = 442;
}
);
unicode = 118;
},
{
glyphname = w;
kernLeft = w;
kernRight = w;
lastChange = "2024-08-06 02:24:23 +0000";
layers = (
{
anchors = (
{
name = dotbelow;
pos = (266,0);
},
{
name = top;
pos = (463,494);
}
);
layerId = m01;
shapes = (
{
closed = 1;
nodes = (
(223,-14,o),
(291,112,o),
(343,228,c),
(337,188,o),
(329,142,o),
(329,108,cs),
(329,46,o),
(356,-14,o),
(414,-14,cs),
(495,-14,o),
(565,102,o),
(609,216,cs),
(631,273,o),
(654,350,o),
(654,399,cs),
(654,450,o),
(630,482,o),
(594,482,cs),
(566,482,o),
(554,462,o),
(554,436,cs),
(554,391,o),
(590,375,o),
(590,325,cs),
(590,276,o),
(558,210,o),
(535,162,cs),
(506,102,o),
(471,45,o),
(436,45,cs),
(411,45,o),
(408,76,o),
(408,98,cs),
(408,159,o),
(430,276,o),
(452,354,cs),
(484,468,l),
(405,468,l),
(365,364,o),
(322,254,o),
(266,156,cs),
(238,107,o),
(196,43,o),
(161,43,cs),
(150,43,o),
(143,50,o),
(143,67,cs),
(143,95,o),
(162,147,o),
(197,244,cs),
(218,302,o),
(250,374,o),
(250,415,cs),
(250,451,o),
(225,476,o),
(194,476,cs),
(147,476,o),
(83,417,o),
(36,330,c),
(69,307,l),
(97,358,o),
(141,413,o),
(160,413,cs),
(164,413,o),
(166,410,o),
(166,404,cs),
(166,392,o),
(156,366,o),
(132,302,cs),
(91,193,o),
(63,120,o),
(63,73,cs),
(63,23,o),
(96,-14,o),
(141,-14,cs)
);
}
);
width = 658;
}
);
unicode = 119;
},
{
glyphname = x;
kernLeft = x;
kernRight = x;
lastChange = "2024-08-06 02:24:23 +0000";
layers = (
{
anchors = (
{
name = top;
pos = (325,494);
}
);
layerId = m01;
shapes = (
{
closed = 1;
nodes = (
(304,-14,o),
(350,37,o),
(396,138,c),
(360,156,l),
(352,131,o),
(303,54,o),
(284,54,cs),
(271,54,o),
(269,93,o),
(267,109,cs),
(245,268,l),
(326,396,o),
(324,374,o),
(385,383,cs),
(432,390,o),
(443,404,o),
(443,427,cs),
(443,459,o),
(423,480,o),
(390,480,cs),
(345,480,o),
(306,441,o),
(237,332,c),
(225,436,o),
(218,482,o),
(176,482,cs),
(125,482,o),
(72,412,o),
(32,319,c),
(68,301,l),
(81,335,o),
(121,405,o),
(138,405,cs),
(145,405,o),
(147,391,o),
(148,384,cs),
(172,226,l),
(159,197,o),
(135,170,o),
(113,139,cs),
(86,101,o),
(58,83,o),
(23,85,cs),
(-21,87,o),
(-49,74,o),
(-49,42,cs),
(-49,12,o),
(-25,-12,o),
(7,-12,cs),
(63,-12,o),
(126,65,o),
(181,165,c),
(185,120,o),
(193,71,o),
(202,36,cs),
(207,18,o),
(217,-14,o),
(255,-14,cs)
);
}
);
width = 421;
}
);
unicode = 120;
},
{
glyphname = y;
kernLeft = y;
kernRight = y;
lastChange = "2024-08-06 02:24:23 +0000";
layers = (
{
anchors = (
{
name = dotbelow;
pos = (283,0);
},
{
name = top;
pos = (322,494);
}
);
layerId = m01;
shapes = (
{
closed = 1;
nodes = (
(124,-187,o),
(274,61,o),
(348,220,cs),
(381,291,o),
(405,357,o),
(405,412,cs),
(405,462,o),
(385,482,o),
(356,482,cs),
(326,482,o),
(308,460,o),
(308,429,cs),
(308,391,o),
(335,361,o),
(335,328,cs),
(335,301,o),
(317,259,o),
(301,227,cs),
(241,109,l),
(206,365,ls),
(194,452,o),
(176,480,o),
(146,480,cs),
(104,480,o),
(65,425,o),
(25,323,c),
(62,307,l),
(70,326,o),
(98,397,o),
(112,397,cs),
(117,397,o),
(119,389,o),
(120,383,cs),
(177,16,l),
(141,-29,o),
(90,-101,o),
(43,-101,cs),
(24,-101,o),
(1,-89,o),
(-25,-89,cs),
(-61,-89,o),
(-81,-111,o),
(-81,-136,cs),
(-81,-161,o),
(-62,-187,o),
(-17,-187,cs)
);
}
);
width = 418;
}
);
unicode = 121;
},
{
glyphname = z;
kernLeft = z;
kernRight = z;
lastChange = "2024-08-06 02:24:23 +0000";
layers = (
{
anchors = (
{
name = dotbelow;
pos = (122,0);
},
{
name = top;
pos = (286,494);
}
);
layerId = m01;
shapes = (
{
closed = 1;
nodes = (
(8,-14,l),
(27,29,o),
(41,38,o),
(62,38,cs),
(112,38,o),
(178,-14,o),
(235,-14,cs),
(284,-14,o),
(338,24,o),
(338,81,cs),
(338,116,o),
(317,135,o),
(291,135,cs),
(276,135,o),
(252,129,o),
(252,101,cs),
(252,72,o),
(277,55,o),
(277,46,cs),
(277,44,o),
(277,37,o),
(266,37,cs),
(229,37,o),
(198,114,o),
(130,114,cs),
(108,114,o),
(86,106,o),
(68,99,c),
(111,144,o),
(159,176,o),
(189,196,cs),
(263,245,o),
(374,357,o),
(387,475,c),
(355,482,l),
(344,460,o),
(332,443,o),
(314,443,cs),
(287,443,o),
(250,478,o),
(202,478,cs),
(145,478,o),
(90,428,o),
(46,338,c),
(80,320,l),
(108,372,o),
(133,397,o),
(159,397,cs),
(183,397,o),
(230,374,o),
(264,374,cs),
(282,374,o),
(292,380,o),
(311,387,c),
(264,326,o),
(210,293,o),
(174,267,cs),
(85,203,o),
(-15,90,o),
(-27,-14,c)
);
}
);
width = 390;
}
);
unicode = 122;
},
{
glyphname = f_b.liga;
kernLeft = f;
kernRight = b;
lastChange = "2024-08-06 02:24:23 +0000";
layers = (
{
layerId = m01;
shapes = (
{
closed = 1;
nodes = (
(-11,-188,o),
(49,-105,o),
(85,-36,cs),
(156,100,o),
(196,301,o),
(227,425,c),
(389,425,l),
(321,173,ls),
(314,147,o),
(307,117,o),
(307,95,cs),
(307,34,o),
(359,-14,o),
(425,-14,cs),
(559,-14,o),
(699,181,o),
(699,336,cs),
(699,438,o),
(638,483,o),
(579,483,cs),
(538,483,o),
(502,462,o),
(466,422,c),
(548,729,l),
(476,715,l),
(460,722,o),
(448,724,o),
(431,724,cs),
(323,724,o),
(211,642,o),
(160,468,c),
(78,468,l),
(66,425,l),
(147,425,l),
(110,305,o),
(75,121,o),
(38,-31,cs),
(30,-64,o),
(9,-99,o),
(-31,-97,cs),
(-70,-95,ls),
(-89,-94,o),
(-126,-106,o),
(-126,-148,cs),
(-126,-175,o),
(-110,-188,o),
(-82,-188,cs)
);
},
{
closed = 1;
nodes = (
(411,30,o),
(388,53,o),
(388,91,cs),
(388,139,o),
(424,273,o),
(457,343,cs),
(488,409,o),
(522,432,o),
(555,432,cs),
(589,432,o),
(606,407,o),
(606,353,cs),
(606,284,o),
(579,190,o),
(562,146,cs),
(534,73,o),
(493,30,o),
(446,30,cs)
);
},
{
closed = 1;
nodes = (
(269,600,o),
(312,665,o),
(369,665,cs),
(411,665,o),
(413,631,o),
(443,626,c),
(400,468,l),
(237,468,l)
);
}
);
width = 719;
}
);
metricLeft = f;
metricRight = b;
},
{
glyphname = f_f.liga;
kernLeft = f;
kernRight = f;
lastChange = "2024-08-06 02:24:23 +0000";
layers = (
{
layerId = m01;
shapes = (
{
closed = 1;
nodes = (
(-11,-188,o),
(49,-105,o),
(85,-36,cs),
(156,100,o),
(196,301,o),
(227,425,c),
(389,425,l),
(352,305,o),
(317,121,o),
(280,-31,cs),
(272,-64,o),
(251,-99,o),
(211,-97,cs),
(172,-95,ls),
(153,-94,o),
(116,-106,o),
(116,-148,cs),
(116,-175,o),
(132,-188,o),
(160,-188,cs),
(231,-188,o),
(291,-105,o),
(327,-37,cs),
(397,96,o),
(433,284,o),
(469,425,c),
(562,425,l),
(574,468,l),
(479,468,l),
(507,574,o),
(534,659,o),
(572,659,cs),
(594,659,o),
(612,632,o),
(642,632,cs),
(670,632,o),
(688,655,o),
(688,678,cs),
(688,702,o),
(667,724,o),
(631,724,cs),
(596,724,o),
(556,703,o),
(525,677,c),
(509,693,o),
(483,719,o),
(422,719,cs),
(316,719,o),
(211,642,o),
(160,468,c),
(78,468,l),
(66,425,l),
(147,425,l),
(110,305,o),
(75,121,o),
(38,-31,cs),
(30,-64,o),
(9,-99,o),
(-31,-97,cs),
(-70,-95,ls),
(-89,-94,o),
(-126,-106,o),
(-126,-148,cs),
(-126,-175,o),
(-110,-188,o),
(-82,-188,cs)
);
},
{
closed = 1;
nodes = (
(269,601,o),
(342,670,o),
(393,670,cs),
(441,670,o),
(431,611,o),
(468,611,c),
(462,602,o),
(417,534,o),
(402,468,c),
(237,468,l)
);
}
);
width = 521;
}
);
metricLeft = f;
metricRight = f;
},
{
glyphname = f_f_b.liga;
kernLeft = f;
kernRight = b;
lastChange = "2024-08-06 02:24:23 +0000";
layers = (
{
layerId = m01;
shapes = (
{
closed = 1;
nodes = (
(-11,-188,o),
(49,-105,o),
(85,-36,cs),
(156,100,o),
(196,301,o),
(227,425,c),
(388,425,l),
(351,305,o),
(316,121,o),
(279,-31,cs),
(271,-64,o),
(250,-99,o),
(210,-97,cs),
(171,-95,ls),
(152,-94,o),
(115,-106,o),
(115,-148,cs),
(115,-175,o),
(131,-188,o),
(159,-188,cs),
(230,-188,o),
(290,-105,o),
(326,-36,cs),
(397,100,o),
(437,301,o),
(468,425,c),
(630,425,l),
(562,173,ls),
(555,147,o),
(548,117,o),
(548,95,cs),
(548,34,o),
(600,-14,o),
(666,-14,cs),
(800,-14,o),
(941,181,o),
(941,335,cs),
(941,437,o),
(879,483,o),
(819,483,cs),
(779,483,o),
(743,462,o),
(707,422,c),
(789,729,l),
(717,715,l),
(701,722,o),
(689,724,o),
(673,724,cs),
(625,724,o),
(575,707,o),
(530,672,c),
(513,689,o),
(484,719,o),
(420,719,cs),
(316,719,o),
(210,640,o),
(160,468,c),
(78,468,l),
(66,425,l),
(147,425,l),
(110,305,o),
(75,121,o),
(38,-31,cs),
(30,-64,o),
(9,-99,o),
(-31,-97,cs),
(-70,-95,ls),
(-89,-94,o),
(-126,-106,o),
(-126,-148,cs),
(-126,-175,o),
(-110,-188,o),
(-82,-188,cs)
);
},
{
closed = 1;
nodes = (
(269,601,o),
(342,670,o),
(393,670,cs),
(441,670,o),
(431,611,o),
(468,611,c),
(462,602,o),
(417,534,o),
(402,468,c),
(237,468,l)
);
},
{
closed = 1;
nodes = (
(652,30,o),
(629,53,o),
(629,91,cs),
(629,139,o),
(666,276,o),
(701,348,cs),
(731,410,o),
(764,432,o),
(796,432,cs),
(830,432,o),
(848,407,o),
(848,352,cs),
(848,284,o),
(820,190,o),
(803,146,cs),
(775,73,o),
(734,30,o),
(687,30,cs)
);
},
{
closed = 1;
nodes = (
(510,600,o),
(554,665,o),
(611,665,cs),
(652,665,o),
(654,631,o),
(684,626,c),
(641,468,l),
(478,468,l)
);
}
);
width = 961;
}
);
metricLeft = f;
metricRight = b;
},
{
glyphname = f_f_f.liga;
kernLeft = f;
kernRight = f;
lastChange = "2024-08-06 02:24:23 +0000";
layers = (
{
layerId = m01;
shapes = (
{
closed = 1;
nodes = (
(-11,-188,o),
(49,-105,o),
(85,-36,cs),
(156,100,o),
(196,301,o),
(227,425,c),
(389,425,l),
(352,305,o),
(317,121,o),
(280,-31,cs),
(272,-64,o),
(251,-99,o),
(211,-97,cs),
(172,-95,ls),
(153,-94,o),
(116,-106,o),
(116,-148,cs),
(116,-175,o),
(132,-188,o),
(160,-188,cs),
(231,-188,o),
(291,-105,o),
(327,-37,cs),
(397,96,o),
(433,284,o),
(469,425,c),
(631,425,l),
(595,305,o),
(559,119,o),
(522,-33,cs),
(514,-66,o),
(492,-99,o),
(453,-97,cs),
(414,-95,ls),
(380,-93,o),
(358,-119,o),
(358,-149,cs),
(358,-175,o),
(374,-188,o),
(402,-188,cs),
(474,-188,o),
(534,-104,o),
(569,-37,cs),
(639,96,o),
(675,284,o),
(711,425,c),
(804,425,l),
(816,468,l),
(721,468,l),
(749,574,o),
(776,659,o),
(814,659,cs),
(836,659,o),
(854,632,o),
(884,632,cs),
(912,632,o),
(930,655,o),
(930,678,cs),
(930,702,o),
(910,724,o),
(874,724,cs),
(838,724,o),
(798,703,o),
(768,677,c),
(756,689,o),
(726,719,o),
(663,719,cs),
(605,719,o),
(560,693,o),
(530,671,c),
(510,691,o),
(482,719,o),
(420,719,cs),
(316,719,o),
(211,641,o),
(160,468,c),
(78,468,l),
(66,425,l),
(147,425,l),
(110,305,o),
(75,121,o),
(38,-31,cs),
(30,-64,o),
(9,-99,o),
(-31,-97,cs),
(-70,-95,ls),
(-89,-94,o),
(-126,-106,o),
(-126,-148,cs),
(-126,-175,o),
(-110,-188,o),
(-82,-188,cs)
);
},
{
closed = 1;
nodes = (
(269,601,o),
(342,670,o),
(393,670,cs),
(441,670,o),
(431,611,o),
(468,611,c),
(462,602,o),
(417,534,o),
(402,468,c),
(237,468,l)
);
},
{
closed = 1;
nodes = (
(511,601,o),
(584,670,o),
(635,670,cs),
(683,670,o),
(674,611,o),
(710,611,c),
(704,602,o),
(659,534,o),
(644,468,c),
(479,468,l)
);
}
);
width = 763;
}
);
metricLeft = f;
metricRight = f;
},
{
glyphname = f_f_f_b.liga;
kernLeft = f;
kernRight = b;
lastChange = "2024-08-06 02:24:23 +0000";
layers = (
{
layerId = m01;
shapes = (
{
closed = 1;
nodes = (
(-11,-188,o),
(49,-105,o),
(85,-36,cs),
(156,100,o),
(196,301,o),
(227,425,c),
(389,425,l),
(352,305,o),
(317,121,o),
(280,-31,cs),
(272,-64,o),
(251,-99,o),
(211,-97,cs),
(172,-95,ls),
(153,-94,o),
(116,-106,o),
(116,-148,cs),
(116,-175,o),
(132,-188,o),
(160,-188,cs),
(231,-188,o),
(291,-105,o),
(327,-37,cs),
(397,96,o),
(433,284,o),
(469,425,c),
(631,425,l),
(595,305,o),
(559,119,o),
(522,-33,cs),
(514,-66,o),
(492,-99,o),
(453,-97,cs),
(414,-95,ls),
(380,-93,o),
(358,-119,o),
(358,-149,cs),
(358,-175,o),
(374,-188,o),
(402,-188,cs),
(474,-188,o),
(534,-104,o),
(569,-37,cs),
(639,96,o),
(675,284,o),
(711,425,c),
(874,425,l),
(805,173,ls),
(798,147,o),
(791,117,o),
(791,95,cs),
(791,34,o),
(844,-14,o),
(910,-14,cs),
(1042,-14,o),
(1184,179,o),
(1184,335,cs),
(1184,438,o),
(1122,483,o),
(1063,483,cs),
(1023,483,o),
(986,462,o),
(950,422,c),
(1032,729,l),
(960,715,l),
(944,722,o),
(932,724,o),
(916,724,cs),
(868,724,o),
(818,707,o),
(773,672,c),
(761,684,o),
(726,719,o),
(661,719,cs),
(605,719,o),
(560,693,o),
(530,671,c),
(510,691,o),
(482,719,o),
(420,719,cs),
(316,719,o),
(211,641,o),
(160,468,c),
(78,468,l),
(66,425,l),
(147,425,l),
(110,305,o),
(75,121,o),
(38,-31,cs),
(30,-64,o),
(9,-99,o),
(-31,-97,cs),
(-70,-95,ls),
(-89,-94,o),
(-126,-106,o),
(-126,-148,cs),
(-126,-175,o),
(-110,-188,o),
(-82,-188,cs)
);
},
{
closed = 1;
nodes = (
(269,601,o),
(342,670,o),
(393,670,cs),
(441,670,o),
(431,611,o),
(468,611,c),
(462,602,o),
(417,534,o),
(402,468,c),
(237,468,l)
);
},
{
closed = 1;
nodes = (
(513,601,o),
(585,670,o),
(636,670,cs),
(684,670,o),
(675,611,o),
(711,611,c),
(705,602,o),
(661,534,o),
(645,468,c),
(480,468,l)
);
},
{
closed = 1;
nodes = (
(895,30,o),
(872,53,o),
(872,91,cs),
(872,139,o),
(909,276,o),
(944,348,cs),
(974,410,o),
(1008,432,o),
(1039,432,cs),
(1072,432,o),
(1091,408,o),
(1091,352,cs),
(1091,284,o),
(1063,190,o),
(1046,146,cs),
(1017,71,o),
(977,30,o),
(930,30,cs)
);
},
{
closed = 1;
nodes = (
(754,600,o),
(797,665,o),
(854,665,cs),
(895,665,o),
(897,631,o),
(928,626,c),
(884,468,l),
(721,468,l)
);
}
);
width = 1204;
}
);
metricLeft = f;
metricRight = b;
},
{
glyphname = f_f_f_h.liga;
kernLeft = f;
kernRight = h;
lastChange = "2024-08-06 02:24:23 +0000";
layers = (
{
layerId = m01;
shapes = (
{
closed = 1;
nodes = (
(-11,-188,o),
(49,-105,o),
(85,-36,cs),
(156,100,o),
(196,301,o),
(227,425,c),
(389,425,l),
(352,305,o),
(317,121,o),
(280,-31,cs),
(272,-64,o),
(251,-99,o),
(211,-97,cs),
(172,-95,ls),
(153,-94,o),
(116,-106,o),
(116,-148,cs),
(116,-175,o),
(132,-188,o),
(160,-188,cs),
(231,-188,o),
(291,-105,o),
(327,-37,cs),
(397,96,o),
(433,284,o),
(469,425,c),
(631,425,l),
(595,305,o),
(559,119,o),
(522,-33,cs),
(514,-66,o),
(492,-99,o),
(453,-97,cs),
(414,-95,ls),
(380,-93,o),
(358,-119,o),
(358,-149,cs),
(358,-175,o),
(374,-188,o),
(402,-188,cs),
(474,-188,o),
(534,-104,o),
(569,-37,cs),
(639,96,o),
(675,284,o),
(711,425,c),
(874,425,l),
(760,0,l),
(846,0,l),
(901,111,o),
(940,203,o),
(997,299,cs),
(1026,348,o),
(1072,419,o),
(1104,419,cs),
(1115,419,o),
(1119,411,o),
(1119,400,cs),
(1119,373,o),
(1095,306,o),
(1063,206,cs),
(1031,106,o),
(1019,69,o),
(1019,46,cs),
(1019,8,o),
(1052,-14,o),
(1079,-14,cs),
(1124,-14,o),
(1179,52,o),
(1235,141,c),
(1203,163,l),
(1175,122,o),
(1132,51,o),
(1112,51,cs),
(1107,51,o),
(1105,55,o),
(1105,60,cs),
(1105,74,o),
(1121,125,o),
(1137,174,cs),
(1166,262,o),
(1201,361,o),
(1201,407,cs),
(1201,448,o),
(1172,482,o),
(1132,482,cs),
(1075,482,o),
(1022,414,o),
(987,360,cs),
(960,318,o),
(930,262,o),
(904,213,c),
(1041,729,l),
(960,715,l),
(944,722,o),
(932,724,o),
(916,724,cs),
(868,724,o),
(818,707,o),
(773,672,c),
(761,684,o),
(726,719,o),
(661,719,cs),
(605,719,o),
(560,693,o),
(530,671,c),
(510,691,o),
(482,719,o),
(420,719,cs),
(316,719,o),
(211,641,o),
(160,468,c),
(78,468,l),
(66,425,l),
(147,425,l),
(110,305,o),
(75,121,o),
(38,-31,cs),
(30,-64,o),
(9,-99,o),
(-31,-97,cs),
(-70,-95,ls),
(-89,-94,o),
(-126,-106,o),
(-126,-148,cs),
(-126,-175,o),
(-110,-188,o),
(-82,-188,cs)
);
},
{
closed = 1;
nodes = (
(269,601,o),
(342,670,o),
(393,670,cs),
(441,670,o),
(431,611,o),
(468,611,c),
(462,602,o),
(417,534,o),
(402,468,c),
(237,468,l)
);
},
{
closed = 1;
nodes = (
(513,601,o),
(585,670,o),
(636,670,cs),
(684,670,o),
(675,611,o),
(711,611,c),
(705,602,o),
(661,534,o),
(645,468,c),
(480,468,l)
);
},
{
closed = 1;
nodes = (
(754,600,o),
(797,665,o),
(854,665,cs),
(895,665,o),
(897,631,o),
(928,626,c),
(884,468,l),
(721,468,l)
);
}
);
width = 1263;
}
);
metricLeft = f;
metricRight = h;
},
{
glyphname = f_f_f_i.liga;
kernLeft = f;
kernRight = i;
lastChange = "2024-08-06 02:24:23 +0000";
layers = (
{
layerId = m01;
shapes = (
{
closed = 1;
nodes = (
(-11,-188,o),
(49,-105,o),
(85,-36,cs),
(156,100,o),
(196,301,o),
(227,425,c),
(389,425,l),
(352,305,o),
(317,121,o),
(280,-31,cs),
(272,-64,o),
(251,-99,o),
(211,-97,cs),
(172,-95,ls),
(153,-94,o),
(116,-106,o),
(116,-148,cs),
(116,-175,o),
(132,-188,o),
(160,-188,cs),
(231,-188,o),
(291,-105,o),
(327,-37,cs),
(397,96,o),
(433,284,o),
(469,425,c),
(631,425,l),
(595,305,o),
(559,119,o),
(522,-33,cs),
(514,-66,o),
(492,-99,o),
(453,-97,cs),
(414,-95,ls),
(380,-93,o),
(358,-119,o),
(358,-149,cs),
(358,-175,o),
(374,-188,o),
(402,-188,cs),
(474,-188,o),
(534,-104,o),
(569,-37,cs),
(639,96,o),
(675,284,o),
(711,425,c),
(804,425,ls),
(845,425,o),
(867,425,o),
(867,412,cs),
(867,409,o),
(866,405,o),
(842,314,cs),
(814,208,ls),
(800,154,o),
(779,85,o),
(779,51,cs),
(779,10,o),
(811,-14,o),
(839,-14,cs),
(883,-14,o),
(936,46,o),
(995,149,c),
(963,170,l),
(931,118,o),
(893,54,o),
(873,54,cs),
(868,54,o),
(863,58,o),
(863,64,cs),
(863,72,o),
(872,114,o),
(890,181,cs),
(971,482,l),
(908,468,o),
(907,468,o),
(838,468,cs),
(721,468,l),
(746,583,o),
(789,663,o),
(850,663,cs),
(898,663,o),
(898,614,o),
(941,614,cs),
(969,614,o),
(991,635,o),
(991,666,cs),
(991,706,o),
(953,724,o),
(910,724,cs),
(854,724,o),
(798,694,o),
(772,674,c),
(757,688,o),
(726,719,o),
(663,719,cs),
(605,719,o),
(560,693,o),
(530,671,c),
(510,691,o),
(482,719,o),
(420,719,cs),
(316,719,o),
(211,641,o),
(160,468,c),
(78,468,l),
(66,425,l),
(147,425,l),
(110,305,o),
(75,121,o),
(38,-31,cs),
(30,-64,o),
(9,-99,o),
(-31,-97,cs),
(-70,-95,ls),
(-89,-94,o),
(-126,-106,o),
(-126,-148,cs),
(-126,-175,o),
(-110,-188,o),
(-82,-188,cs)
);
},
{
closed = 1;
nodes = (
(269,601,o),
(342,670,o),
(393,670,cs),
(441,670,o),
(431,611,o),
(468,611,c),
(462,602,o),
(417,534,o),
(402,468,c),
(237,468,l)
);
},
{
closed = 1;
nodes = (
(511,601,o),
(584,670,o),
(635,670,cs),
(683,670,o),
(674,611,o),
(710,611,c),
(704,602,o),
(659,534,o),
(644,468,c),
(479,468,l)
);
}
);
width = 1020;
}
);
metricLeft = f;
metricRight = i;
},
{
glyphname = f_f_f_j.liga;
kernLeft = f;
kernRight = j;
lastChange = "2024-08-06 02:24:23 +0000";
layers = (
{
layerId = m01;
shapes = (
{
closed = 1;
nodes = (
(772,-192,o),
(837,-29,o),
(852,29,cs),
(971,482,l),
(908,468,o),
(907,468,o),
(838,468,cs),
(721,468,l),
(746,583,o),
(789,663,o),
(850,663,cs),
(898,663,o),
(898,614,o),
(941,614,cs),
(969,614,o),
(991,635,o),
(991,666,cs),
(991,706,o),
(953,724,o),
(910,724,cs),
(854,724,o),
(798,694,o),
(772,674,c),
(757,688,o),
(726,719,o),
(663,719,cs),
(605,719,o),
(560,693,o),
(530,671,c),
(510,691,o),
(482,719,o),
(420,719,cs),
(316,719,o),
(211,641,o),
(160,468,c),
(78,468,l),
(66,425,l),
(147,425,l),
(110,305,o),
(75,121,o),
(38,-31,cs),
(30,-64,o),
(9,-99,o),
(-31,-97,cs),
(-70,-95,ls),
(-89,-94,o),
(-126,-106,o),
(-126,-148,cs),
(-126,-175,o),
(-110,-188,o),
(-82,-188,cs),
(-11,-188,o),
(49,-105,o),
(85,-36,cs),
(156,100,o),
(196,301,o),
(227,425,c),
(389,425,l),
(352,305,o),
(317,121,o),
(280,-31,cs),
(272,-64,o),
(251,-99,o),
(211,-97,cs),
(172,-95,ls),
(153,-94,o),
(116,-106,o),
(116,-148,cs),
(116,-175,o),
(132,-188,o),
(160,-188,cs),
(231,-188,o),
(291,-105,o),
(327,-37,cs),
(397,96,o),
(433,284,o),
(469,425,c),
(631,425,l),
(595,305,o),
(559,119,o),
(522,-33,cs),
(514,-66,o),
(492,-99,o),
(453,-97,cs),
(414,-95,ls),
(380,-93,o),
(358,-119,o),
(358,-149,cs),
(358,-175,o),
(374,-188,o),
(402,-188,cs),
(474,-188,o),
(534,-104,o),
(569,-37,cs),
(639,96,o),
(675,284,o),
(711,425,c),
(804,425,ls),
(852,425,o),
(867,425,o),
(867,409,c),
(738,-74,ls),
(734,-89,o),
(724,-120,o),
(710,-120,cs),
(697,-120,o),
(680,-95,o),
(646,-95,cs),
(615,-95,o),
(602,-115,o),
(602,-139,cs),
(602,-172,o),
(626,-192,o),
(664,-192,cs)
);
},
{
closed = 1;
nodes = (
(269,601,o),
(342,670,o),
(393,670,cs),
(441,670,o),
(431,611,o),
(468,611,c),
(462,602,o),
(417,534,o),
(402,468,c),
(237,468,l)
);
},
{
closed = 1;
nodes = (
(511,601,o),
(584,670,o),
(635,670,cs),
(683,670,o),
(674,611,o),
(710,611,c),
(704,602,o),
(659,534,o),
(644,468,c),
(479,468,l)
);
}
);
width = 985;
}
);
metricLeft = f;
metricRight = j;
},
{
glyphname = f_f_f_k.liga;
kernLeft = f;
kernRight = k;
lastChange = "2024-08-06 02:24:23 +0000";
layers = (
{
layerId = m01;
shapes = (
{
closed = 1;
nodes = (
(-11,-188,o),
(49,-105,o),
(85,-36,cs),
(156,100,o),
(196,301,o),
(227,425,c),
(389,425,l),
(352,305,o),
(317,121,o),
(280,-31,cs),
(272,-64,o),
(251,-99,o),
(211,-97,cs),
(172,-95,ls),
(153,-94,o),
(116,-106,o),
(116,-148,cs),
(116,-175,o),
(132,-188,o),
(160,-188,cs),
(231,-188,o),
(291,-105,o),
(327,-37,cs),
(397,96,o),
(433,284,o),
(469,425,c),
(631,425,l),
(595,305,o),
(559,119,o),
(522,-33,cs),
(514,-66,o),
(492,-99,o),
(453,-97,cs),
(414,-95,ls),
(380,-93,o),
(358,-119,o),
(358,-149,cs),
(358,-175,o),
(374,-188,o),
(402,-188,cs),
(474,-188,o),
(534,-104,o),
(569,-37,cs),
(639,96,o),
(675,284,o),
(711,425,c),
(874,425,l),
(815,208,l),
(760,0,l),
(846,0,l),
(894,178,l),
(976,195,l),
(1003,21,o),
(1026,-14,o),
(1068,-14,cs),
(1125,-14,o),
(1169,54,o),
(1200,139,c),
(1162,156,l),
(1154,128,o),
(1121,61,o),
(1102,61,cs),
(1077,61,o),
(1065,169,o),
(1058,218,c),
(1146,256,o),
(1223,320,o),
(1223,391,cs),
(1223,441,o),
(1186,482,o),
(1123,482,cs),
(1050,482,o),
(990,426,o),
(946,373,c),
(1041,729,l),
(960,715,l),
(944,722,o),
(932,724,o),
(916,724,cs),
(868,724,o),
(818,707,o),
(773,672,c),
(761,684,o),
(726,719,o),
(661,719,cs),
(605,719,o),
(560,693,o),
(530,671,c),
(510,691,o),
(482,719,o),
(420,719,cs),
(316,719,o),
(211,641,o),
(160,468,c),
(78,468,l),
(66,425,l),
(147,425,l),
(110,305,o),
(75,121,o),
(38,-31,cs),
(30,-64,o),
(9,-99,o),
(-31,-97,cs),
(-70,-95,ls),
(-89,-94,o),
(-126,-106,o),
(-126,-148,cs),
(-126,-175,o),
(-110,-188,o),
(-82,-188,cs)
);
},
{
closed = 1;
nodes = (
(269,601,o),
(342,670,o),
(393,670,cs),
(441,670,o),
(431,611,o),
(468,611,c),
(462,602,o),
(417,534,o),
(402,468,c),
(237,468,l)
);
},
{
closed = 1;
nodes = (
(513,601,o),
(585,670,o),
(636,670,cs),
(684,670,o),
(675,611,o),
(711,611,c),
(705,602,o),
(661,534,o),
(645,468,c),
(480,468,l)
);
},
{
closed = 1;
nodes = (
(754,600,o),
(797,665,o),
(854,665,cs),
(895,665,o),
(897,631,o),
(928,626,c),
(884,468,l),
(721,468,l)
);
},
{
closed = 1;
nodes = (
(958,379,o),
(1055,425,o),
(1093,425,cs),
(1119,425,o),
(1136,403,o),
(1136,376,cs),
(1136,301,o),
(1011,235,o),
(905,218,c)
);
}
);
width = 1235;
}
);
metricLeft = f;
metricRight = k;
},
{
glyphname = f_f_f_l.liga;
kernLeft = f;
kernRight = l;
lastChange = "2024-08-06 02:24:23 +0000";
layers = (
{
layerId = m01;
shapes = (
{
closed = 1;
nodes = (
(-11,-188,o),
(49,-105,o),
(85,-36,cs),
(156,100,o),
(196,301,o),
(227,425,c),
(389,425,l),
(352,305,o),
(317,121,o),
(280,-31,cs),
(272,-64,o),
(251,-99,o),
(211,-97,cs),
(172,-95,ls),
(153,-94,o),
(116,-106,o),
(116,-148,cs),
(116,-175,o),
(132,-188,o),
(160,-188,cs),
(231,-188,o),
(291,-105,o),
(327,-37,cs),
(397,96,o),
(433,284,o),
(469,425,c),
(631,425,l),
(595,305,o),
(559,119,o),
(522,-33,cs),
(514,-66,o),
(492,-99,o),
(453,-97,cs),
(414,-95,ls),
(380,-93,o),
(358,-119,o),
(358,-149,cs),
(358,-175,o),
(374,-188,o),
(402,-188,cs),
(474,-188,o),
(534,-104,o),
(569,-37,cs),
(639,96,o),
(675,284,o),
(711,425,c),
(874,425,l),
(815,208,ls),
(794,131,o),
(778,77,o),
(778,47,cs),
(778,8,o),
(806,-14,o),
(838,-14,cs),
(892,-14,o),
(939,49,o),
(1002,149,c),
(972,169,l),
(942,126,o),
(902,57,o),
(880,57,cs),
(873,57,o),
(868,63,o),
(868,71,cs),
(868,84,o),
(883,140,o),
(894,181,cs),
(1041,729,l),
(960,715,l),
(944,722,o),
(932,724,o),
(916,724,cs),
(868,724,o),
(818,707,o),
(773,672,c),
(761,684,o),
(726,719,o),
(661,719,cs),
(605,719,o),
(560,693,o),
(530,671,c),
(510,691,o),
(482,719,o),
(420,719,cs),
(316,719,o),
(211,641,o),
(160,468,c),
(78,468,l),
(66,425,l),
(147,425,l),
(110,305,o),
(75,121,o),
(38,-31,cs),
(30,-64,o),
(9,-99,o),
(-31,-97,cs),
(-70,-95,ls),
(-89,-94,o),
(-126,-106,o),
(-126,-148,cs),
(-126,-175,o),
(-110,-188,o),
(-82,-188,cs)
);
},
{
closed = 1;
nodes = (
(269,601,o),
(342,670,o),
(393,670,cs),
(441,670,o),
(431,611,o),
(468,611,c),
(462,602,o),
(417,534,o),
(402,468,c),
(237,468,l)
);
},
{
closed = 1;
nodes = (
(513,601,o),
(585,670,o),
(636,670,cs),
(684,670,o),
(675,611,o),
(711,611,c),
(705,602,o),
(661,534,o),
(645,468,c),
(480,468,l)
);
},
{
closed = 1;
nodes = (
(754,600,o),
(797,665,o),
(854,665,cs),
(895,665,o),
(897,631,o),
(928,626,c),
(884,468,l),
(721,468,l)
);
}
);
width = 1029;
}
);
metricLeft = f;
metricRight = l;
},
{
glyphname = f_f_f_t.liga;
kernLeft = f;
kernRight = t;
lastChange = "2024-08-06 02:24:23 +0000";
layers = (
{
layerId = m01;
shapes = (
{
closed = 1;
nodes = (
(-11,-188,o),
(49,-105,o),
(85,-36,cs),
(156,100,o),
(196,301,o),
(227,425,c),
(389,425,l),
(352,305,o),
(317,121,o),
(280,-31,cs),
(272,-64,o),
(251,-99,o),
(211,-97,cs),
(172,-95,ls),
(153,-94,o),
(116,-106,o),
(116,-148,cs),
(116,-175,o),
(132,-188,o),
(160,-188,cs),
(231,-188,o),
(291,-105,o),
(327,-37,cs),
(397,96,o),
(433,284,o),
(469,425,c),
(631,425,l),
(595,305,o),
(559,119,o),
(522,-33,cs),
(514,-66,o),
(492,-99,o),
(453,-97,cs),
(414,-95,ls),
(380,-93,o),
(358,-119,o),
(358,-149,cs),
(358,-175,o),
(374,-188,o),
(402,-188,cs),
(474,-188,o),
(534,-104,o),
(569,-37,cs),
(639,96,o),
(675,284,o),
(711,425,c),
(872,425,l),
(790,117,ls),
(784,95,o),
(778,67,o),
(778,48,cs),
(778,16,o),
(795,-14,o),
(837,-14,cs),
(911,-14,o),
(968,80,o),
(1001,133,c),
(972,154,l),
(947,114,o),
(904,48,o),
(878,48,cs),
(868,48,o),
(867,56,o),
(867,63,cs),
(867,79,o),
(872,98,o),
(877,117,cs),
(959,425,l),
(1056,425,l),
(1067,468,l),
(971,468,l),
(1006,602,l),
(920,602,l),
(884,468,l),
(721,468,l),
(749,574,o),
(776,659,o),
(814,659,cs),
(836,659,o),
(843,632,o),
(873,632,cs),
(901,632,o),
(919,654,o),
(919,677,cs),
(919,704,o),
(895,724,o),
(866,724,cs),
(838,724,o),
(801,705,o),
(768,677,c),
(756,689,o),
(726,719,o),
(663,719,cs),
(605,719,o),
(560,693,o),
(530,671,c),
(510,691,o),
(482,719,o),
(420,719,cs),
(316,719,o),
(211,641,o),
(160,468,c),
(78,468,l),
(66,425,l),
(147,425,l),
(110,305,o),
(75,121,o),
(38,-31,cs),
(30,-64,o),
(9,-99,o),
(-31,-97,cs),
(-70,-95,ls),
(-89,-94,o),
(-126,-106,o),
(-126,-148,cs),
(-126,-175,o),
(-110,-188,o),
(-82,-188,cs)
);
},
{
closed = 1;
nodes = (
(269,601,o),
(342,670,o),
(393,670,cs),
(441,670,o),
(431,611,o),
(468,611,c),
(462,602,o),
(417,534,o),
(402,468,c),
(237,468,l)
);
},
{
closed = 1;
nodes = (
(511,601,o),
(584,670,o),
(635,670,cs),
(683,670,o),
(674,611,o),
(710,611,c),
(704,602,o),
(659,534,o),
(644,468,c),
(479,468,l)
);
}
);
width = 1036;
}
);
metricLeft = f;
metricRight = t;
},
{
glyphname = f_f_h.liga;
kernLeft = f;
kernRight = h;
lastChange = "2024-08-06 02:24:23 +0000";
layers = (
{
layerId = m01;
shapes = (
{
closed = 1;
nodes = (
(-11,-188,o),
(49,-105,o),
(85,-36,cs),
(156,100,o),
(196,301,o),
(227,425,c),
(388,425,l),
(351,305,o),
(316,121,o),
(279,-31,cs),
(271,-64,o),
(250,-99,o),
(210,-97,cs),
(171,-95,ls),
(152,-94,o),
(115,-106,o),
(115,-148,cs),
(115,-175,o),
(131,-188,o),
(159,-188,cs),
(230,-188,o),
(290,-105,o),
(326,-36,cs),
(397,100,o),
(437,301,o),
(468,425,c),
(630,425,l),
(517,0,l),
(603,0,l),
(657,110,o),
(699,207,o),
(755,301,cs),
(782,346,o),
(829,419,o),
(861,419,cs),
(871,419,o),
(876,411,o),
(876,399,cs),
(876,369,o),
(839,269,o),
(819,205,cs),
(789,110,o),
(776,69,o),
(776,45,cs),
(776,8,o),
(809,-14,o),
(836,-14,cs),
(881,-14,o),
(936,52,o),
(991,141,c),
(960,163,l),
(932,122,o),
(889,51,o),
(869,51,cs),
(864,51,o),
(862,55,o),
(862,60,cs),
(862,74,o),
(878,125,o),
(894,174,cs),
(923,262,o),
(958,361,o),
(958,407,cs),
(958,448,o),
(929,482,o),
(888,482,cs),
(831,482,o),
(780,416,o),
(744,360,cs),
(717,318,o),
(686,262,o),
(661,213,c),
(798,729,l),
(717,715,l),
(701,722,o),
(689,724,o),
(673,724,cs),
(625,724,o),
(575,707,o),
(530,672,c),
(513,689,o),
(484,719,o),
(420,719,cs),
(316,719,o),
(210,640,o),
(160,468,c),
(78,468,l),
(66,425,l),
(147,425,l),
(110,305,o),
(75,121,o),
(38,-31,cs),
(30,-64,o),
(9,-99,o),
(-31,-97,cs),
(-70,-95,ls),
(-89,-94,o),
(-126,-106,o),
(-126,-148,cs),
(-126,-175,o),
(-110,-188,o),
(-82,-188,cs)
);
},
{
closed = 1;
nodes = (
(269,601,o),
(342,670,o),
(393,670,cs),
(441,670,o),
(431,611,o),
(468,611,c),
(462,602,o),
(417,534,o),
(402,468,c),
(237,468,l)
);
},
{
closed = 1;
nodes = (
(510,600,o),
(554,665,o),
(611,665,cs),
(652,665,o),
(654,631,o),
(684,626,c),
(641,468,l),
(478,468,l)
);
}
);
width = 1019;
}
);
metricLeft = f;
metricRight = h;
},
{
glyphname = f_f_i.liga;
kernLeft = f;
kernRight = i;
lastChange = "2024-08-06 02:24:23 +0000";
layers = (
{
layerId = m01;
shapes = (
{
closed = 1;
nodes = (
(-11,-188,o),
(49,-105,o),
(85,-36,cs),
(156,100,o),
(196,301,o),
(227,425,c),
(389,425,l),
(352,305,o),
(317,121,o),
(280,-31,cs),
(272,-64,o),
(251,-99,o),
(211,-97,cs),
(172,-95,ls),
(153,-94,o),
(116,-106,o),
(116,-148,cs),
(116,-175,o),
(132,-188,o),
(160,-188,cs),
(231,-188,o),
(291,-105,o),
(327,-37,cs),
(397,96,o),
(433,284,o),
(469,425,c),
(562,425,ls),
(606,425,o),
(625,425,o),
(625,411,cs),
(625,398,o),
(609,348,o),
(600,314,cs),
(572,208,ls),
(558,154,o),
(537,85,o),
(537,51,cs),
(537,10,o),
(569,-14,o),
(597,-14,cs),
(641,-14,o),
(694,46,o),
(752,149,c),
(721,170,l),
(693,125,o),
(651,54,o),
(631,54,cs),
(625,54,o),
(621,59,o),
(621,64,cs),
(621,72,o),
(630,114,o),
(648,181,cs),
(729,482,l),
(666,468,o),
(665,468,o),
(596,468,cs),
(479,468,l),
(504,583,o),
(547,663,o),
(608,663,cs),
(656,663,o),
(657,614,o),
(699,614,cs),
(726,614,o),
(749,635,o),
(749,666,cs),
(749,706,o),
(711,724,o),
(668,724,cs),
(612,724,o),
(554,693,o),
(530,674,c),
(514,689,o),
(484,719,o),
(420,719,cs),
(316,719,o),
(211,641,o),
(160,468,c),
(78,468,l),
(66,425,l),
(147,425,l),
(110,305,o),
(75,121,o),
(38,-31,cs),
(30,-64,o),
(9,-99,o),
(-31,-97,cs),
(-70,-95,ls),
(-89,-94,o),
(-126,-106,o),
(-126,-148,cs),
(-126,-175,o),
(-110,-188,o),
(-82,-188,cs)
);
},
{
closed = 1;
nodes = (
(269,601,o),
(342,670,o),
(393,670,cs),
(441,670,o),
(431,611,o),
(468,611,c),
(462,602,o),
(417,534,o),
(402,468,c),
(237,468,l)
);
}
);
width = 777;
}
);
metricLeft = f;
metricRight = i;
},
{
glyphname = f_f_j.liga;
kernLeft = f;
kernRight = j;
lastChange = "2024-08-06 02:24:23 +0000";
layers = (
{
layerId = m01;
shapes = (
{
closed = 1;
nodes = (
(530,-192,o),
(595,-29,o),
(610,29,cs),
(729,482,l),
(666,468,o),
(665,468,o),
(596,468,cs),
(479,468,l),
(504,583,o),
(547,663,o),
(608,663,cs),
(656,663,o),
(657,614,o),
(699,614,cs),
(726,614,o),
(749,635,o),
(749,666,cs),
(749,706,o),
(711,724,o),
(668,724,cs),
(612,724,o),
(554,693,o),
(530,674,c),
(514,689,o),
(484,719,o),
(420,719,cs),
(316,719,o),
(211,641,o),
(160,468,c),
(78,468,l),
(66,425,l),
(147,425,l),
(110,305,o),
(75,121,o),
(38,-31,cs),
(30,-64,o),
(9,-99,o),
(-31,-97,cs),
(-70,-95,ls),
(-89,-94,o),
(-126,-106,o),
(-126,-148,cs),
(-126,-175,o),
(-110,-188,o),
(-82,-188,cs),
(-11,-188,o),
(49,-105,o),
(85,-36,cs),
(156,100,o),
(196,301,o),
(227,425,c),
(389,425,l),
(352,305,o),
(317,121,o),
(280,-31,cs),
(272,-64,o),
(251,-99,o),
(211,-97,cs),
(172,-95,ls),
(153,-94,o),
(116,-106,o),
(116,-148,cs),
(116,-175,o),
(132,-188,o),
(160,-188,cs),
(231,-188,o),
(291,-105,o),
(327,-37,cs),
(397,96,o),
(433,284,o),
(469,425,c),
(562,425,ls),
(610,425,o),
(625,425,o),
(625,409,c),
(496,-74,ls),
(492,-89,o),
(482,-120,o),
(468,-120,cs),
(455,-120,o),
(438,-95,o),
(404,-95,cs),
(373,-95,o),
(360,-115,o),
(360,-139,cs),
(360,-172,o),
(384,-192,o),
(422,-192,cs)
);
},
{
closed = 1;
nodes = (
(269,601,o),
(342,670,o),
(393,670,cs),
(441,670,o),
(431,611,o),
(468,611,c),
(462,602,o),
(417,534,o),
(402,468,c),
(237,468,l)
);
}
);
width = 743;
}
);
metricLeft = f;
metricRight = j;
},
{
glyphname = f_f_k.liga;
kernLeft = f;
kernRight = k;
lastChange = "2024-08-06 02:24:23 +0000";
layers = (
{
layerId = m01;
shapes = (
{
closed = 1;
nodes = (
(-11,-188,o),
(49,-105,o),
(85,-36,cs),
(156,100,o),
(196,301,o),
(227,425,c),
(388,425,l),
(351,305,o),
(316,121,o),
(279,-31,cs),
(271,-64,o),
(250,-99,o),
(210,-97,cs),
(171,-95,ls),
(152,-94,o),
(115,-106,o),
(115,-148,cs),
(115,-175,o),
(131,-188,o),
(159,-188,cs),
(230,-188,o),
(290,-105,o),
(326,-36,cs),
(397,100,o),
(437,301,o),
(468,425,c),
(630,425,l),
(572,208,l),
(517,0,l),
(603,0,l),
(651,178,l),
(733,195,l),
(760,21,o),
(783,-14,o),
(825,-14,cs),
(882,-14,o),
(925,54,o),
(957,139,c),
(919,156,l),
(910,128,o),
(878,61,o),
(858,61,cs),
(834,61,o),
(822,169,o),
(815,218,c),
(902,256,o),
(979,320,o),
(979,391,cs),
(979,440,o),
(943,482,o),
(880,482,cs),
(807,482,o),
(747,426,o),
(703,373,c),
(798,729,l),
(717,715,l),
(701,722,o),
(689,724,o),
(673,724,cs),
(625,724,o),
(575,707,o),
(530,672,c),
(513,689,o),
(484,719,o),
(420,719,cs),
(316,719,o),
(210,640,o),
(160,468,c),
(78,468,l),
(66,425,l),
(147,425,l),
(110,305,o),
(75,121,o),
(38,-31,cs),
(30,-64,o),
(9,-99,o),
(-31,-97,cs),
(-70,-95,ls),
(-89,-94,o),
(-126,-106,o),
(-126,-148,cs),
(-126,-175,o),
(-110,-188,o),
(-82,-188,cs)
);
},
{
closed = 1;
nodes = (
(269,601,o),
(342,670,o),
(393,670,cs),
(441,670,o),
(431,611,o),
(468,611,c),
(462,602,o),
(417,534,o),
(402,468,c),
(237,468,l)
);
},
{
closed = 1;
nodes = (
(510,600,o),
(554,665,o),
(611,665,cs),
(652,665,o),
(654,631,o),
(684,626,c),
(641,468,l),
(478,468,l)
);
},
{
closed = 1;
nodes = (
(715,379,o),
(812,425,o),
(850,425,cs),
(876,425,o),
(893,403,o),
(893,376,cs),
(893,301,o),
(768,235,o),
(662,218,c)
);
}
);
width = 992;
}
);
metricLeft = f;
metricRight = k;
},
{
glyphname = f_f_l.liga;
kernLeft = f;
kernRight = l;
lastChange = "2024-08-06 02:24:23 +0000";
layers = (
{
layerId = m01;
shapes = (
{
closed = 1;
nodes = (
(-11,-188,o),
(49,-105,o),
(85,-36,cs),
(156,100,o),
(196,301,o),
(227,425,c),
(388,425,l),
(351,305,o),
(316,121,o),
(279,-31,cs),
(271,-64,o),
(250,-99,o),
(210,-97,cs),
(171,-95,ls),
(152,-94,o),
(115,-106,o),
(115,-148,cs),
(115,-175,o),
(131,-188,o),
(159,-188,cs),
(230,-188,o),
(290,-105,o),
(326,-36,cs),
(397,100,o),
(437,301,o),
(468,425,c),
(630,425,l),
(572,208,ls),
(553,137,o),
(535,79,o),
(535,47,cs),
(535,8,o),
(562,-14,o),
(594,-14,cs),
(649,-14,o),
(696,49,o),
(759,149,c),
(729,169,l),
(698,126,o),
(658,57,o),
(636,57,cs),
(630,57,o),
(625,62,o),
(625,70,cs),
(625,85,o),
(641,144,o),
(651,181,cs),
(798,729,l),
(717,715,l),
(701,722,o),
(689,724,o),
(673,724,cs),
(625,724,o),
(575,707,o),
(530,672,c),
(513,689,o),
(484,719,o),
(420,719,cs),
(316,719,o),
(210,640,o),
(160,468,c),
(78,468,l),
(66,425,l),
(147,425,l),
(110,305,o),
(75,121,o),
(38,-31,cs),
(30,-64,o),
(9,-99,o),
(-31,-97,cs),
(-70,-95,ls),
(-89,-94,o),
(-126,-106,o),
(-126,-148,cs),
(-126,-175,o),
(-110,-188,o),
(-82,-188,cs)
);
},
{
closed = 1;
nodes = (
(269,601,o),
(342,670,o),
(393,670,cs),
(441,670,o),
(431,611,o),
(468,611,c),
(462,602,o),
(417,534,o),
(402,468,c),
(237,468,l)
);
},
{
closed = 1;
nodes = (
(510,600,o),
(554,665,o),
(611,665,cs),
(652,665,o),
(654,631,o),
(684,626,c),
(641,468,l),
(478,468,l)
);
}
);
width = 786;
}
);
metricLeft = f;
metricRight = l;
},
{
glyphname = f_f_t.liga;
kernLeft = f;
kernRight = t;
lastChange = "2024-08-06 02:24:23 +0000";
layers = (
{
layerId = m01;
shapes = (
{
closed = 1;
nodes = (
(-11,-188,o),
(49,-105,o),
(85,-36,cs),
(156,100,o),
(196,301,o),
(227,425,c),
(389,425,l),
(352,305,o),
(317,121,o),
(280,-31,cs),
(272,-64,o),
(251,-99,o),
(211,-97,cs),
(172,-95,ls),
(153,-94,o),
(116,-106,o),
(116,-148,cs),
(116,-175,o),
(132,-188,o),
(160,-188,cs),
(231,-188,o),
(291,-105,o),
(327,-37,cs),
(397,96,o),
(433,284,o),
(469,425,c),
(630,425,l),
(548,117,ls),
(542,95,o),
(536,67,o),
(536,48,cs),
(536,16,o),
(553,-14,o),
(595,-14,cs),
(669,-14,o),
(726,80,o),
(759,133,c),
(730,154,l),
(705,114,o),
(662,48,o),
(636,48,cs),
(626,48,o),
(625,56,o),
(625,63,cs),
(625,79,o),
(630,98,o),
(635,117,cs),
(717,425,l),
(814,425,l),
(825,468,l),
(729,468,l),
(764,602,l),
(678,602,l),
(642,468,l),
(479,468,l),
(507,574,o),
(534,659,o),
(572,659,cs),
(594,659,o),
(601,632,o),
(632,632,cs),
(660,632,o),
(677,655,o),
(677,677,cs),
(677,704,o),
(653,724,o),
(624,724,cs),
(596,724,o),
(559,705,o),
(525,677,c),
(509,693,o),
(483,719,o),
(422,719,cs),
(316,719,o),
(211,642,o),
(160,468,c),
(78,468,l),
(66,425,l),
(147,425,l),
(110,305,o),
(75,121,o),
(38,-31,cs),
(30,-64,o),
(9,-99,o),
(-31,-97,cs),
(-70,-95,ls),
(-89,-94,o),
(-126,-106,o),
(-126,-148,cs),
(-126,-175,o),
(-110,-188,o),
(-82,-188,cs)
);
},
{
closed = 1;
nodes = (
(269,601,o),
(342,670,o),
(393,670,cs),
(441,670,o),
(431,611,o),
(468,611,c),
(462,602,o),
(417,534,o),
(402,468,c),
(237,468,l)
);
}
);
width = 794;
}
);
metricLeft = f;
metricRight = t;
},
{
glyphname = f_h.liga;
kernLeft = f;
kernRight = h;
lastChange = "2024-08-06 02:24:23 +0000";
layers = (
{
layerId = m01;
shapes = (
{
closed = 1;
nodes = (
(-11,-188,o),
(49,-105,o),
(85,-36,cs),
(156,100,o),
(196,301,o),
(227,425,c),
(389,425,l),
(276,0,l),
(362,0,l),
(416,109,o),
(454,201,o),
(514,301,cs),
(542,348,o),
(588,419,o),
(619,419,cs),
(630,419,o),
(635,411,o),
(635,399,cs),
(635,369,o),
(598,269,o),
(578,205,cs),
(548,110,o),
(535,69,o),
(535,45,cs),
(535,8,o),
(568,-14,o),
(595,-14,cs),
(640,-14,o),
(695,52,o),
(750,141,c),
(719,163,l),
(691,122,o),
(648,51,o),
(628,51,cs),
(623,51,o),
(621,55,o),
(621,60,cs),
(621,74,o),
(637,125,o),
(653,174,cs),
(682,262,o),
(717,361,o),
(717,407,cs),
(717,448,o),
(688,482,o),
(647,482,cs),
(590,482,o),
(539,416,o),
(503,360,cs),
(476,318,o),
(445,262,o),
(419,213,c),
(557,729,l),
(476,715,l),
(460,722,o),
(448,724,o),
(431,724,cs),
(323,724,o),
(211,642,o),
(160,468,c),
(78,468,l),
(66,425,l),
(147,425,l),
(110,305,o),
(75,121,o),
(38,-31,cs),
(30,-64,o),
(9,-99,o),
(-31,-97,cs),
(-70,-95,ls),
(-89,-94,o),
(-126,-106,o),
(-126,-148,cs),
(-126,-175,o),
(-110,-188,o),
(-82,-188,cs)
);
},
{
closed = 1;
nodes = (
(269,600,o),
(312,665,o),
(369,665,cs),
(411,665,o),
(413,631,o),
(443,626,c),
(400,468,l),
(237,468,l)
);
}
);
width = 778;
}
);
metricLeft = f;
metricRight = h;
},
{
glyphname = f_i.liga;
kernLeft = f;
kernRight = i;
lastChange = "2024-08-06 02:24:23 +0000";
layers = (
{
layerId = m01;
shapes = (
{
closed = 1;
nodes = (
(-11,-188,o),
(49,-105,o),
(85,-36,cs),
(156,100,o),
(196,301,o),
(227,425,c),
(320,425,ls),
(364,425,o),
(383,425,o),
(383,411,cs),
(383,398,o),
(367,348,o),
(358,314,cs),
(330,208,ls),
(316,154,o),
(295,85,o),
(295,51,cs),
(295,10,o),
(326,-14,o),
(354,-14,cs),
(399,-14,o),
(452,46,o),
(510,149,c),
(479,170,l),
(451,125,o),
(409,54,o),
(389,54,cs),
(383,54,o),
(378,59,o),
(378,63,cs),
(378,72,o),
(396,148,o),
(405,181,cs),
(486,482,l),
(424,468,o),
(423,468,o),
(354,468,cs),
(237,468,l),
(262,583,o),
(305,663,o),
(366,663,cs),
(414,663,o),
(414,614,o),
(456,614,cs),
(484,614,o),
(507,635,o),
(507,666,cs),
(507,706,o),
(470,724,o),
(424,724,cs),
(323,724,o),
(208,636,o),
(160,468,c),
(78,468,l),
(66,425,l),
(147,425,l),
(110,305,o),
(75,121,o),
(38,-31,cs),
(30,-64,o),
(9,-99,o),
(-31,-97,cs),
(-70,-95,ls),
(-89,-94,o),
(-126,-106,o),
(-126,-148,cs),
(-126,-175,o),
(-110,-188,o),
(-82,-188,cs)
);
}
);
width = 535;
}
);
metricLeft = f;
metricRight = i;
},
{
glyphname = f_j.liga;
kernLeft = f;
kernRight = j;
lastChange = "2024-08-06 02:24:23 +0000";
layers = (
{
layerId = m01;
shapes = (
{
closed = 1;
nodes = (
(292,-192,o),
(356,-17,o),
(368,29,cs),
(486,482,l),
(424,468,o),
(423,468,o),
(354,468,cs),
(237,468,l),
(262,583,o),
(305,663,o),
(366,663,cs),
(414,663,o),
(414,614,o),
(456,614,cs),
(484,614,o),
(507,635,o),
(507,666,cs),
(507,706,o),
(470,724,o),
(424,724,cs),
(323,724,o),
(208,636,o),
(160,468,c),
(78,468,l),
(66,425,l),
(147,425,l),
(110,305,o),
(75,121,o),
(38,-31,cs),
(30,-64,o),
(9,-99,o),
(-31,-97,cs),
(-70,-95,ls),
(-89,-94,o),
(-126,-106,o),
(-126,-148,cs),
(-126,-175,o),
(-110,-188,o),
(-82,-188,cs),
(-11,-188,o),
(49,-105,o),
(85,-36,cs),
(156,100,o),
(196,301,o),
(227,425,c),
(320,425,ls),
(368,425,o),
(383,425,o),
(383,409,c),
(254,-74,ls),
(250,-89,o),
(240,-120,o),
(226,-120,cs),
(213,-120,o),
(196,-95,o),
(162,-95,cs),
(131,-95,o),
(118,-115,o),
(118,-139,cs),
(118,-172,o),
(142,-192,o),
(180,-192,cs)
);
}
);
width = 500;
}
);
metricLeft = f;
metricRight = j;
},
{
glyphname = f_k.liga;
kernLeft = f;
kernRight = k;
lastChange = "2024-08-06 02:29:01 +0000";
layers = (
{
layerId = m01;
shapes = (
{
closed = 1;
nodes = (
(-11,-188,o),
(49,-105,o),
(85,-36,cs),
(156,100,o),
(196,301,o),
(227,425,c),
(389,425,l),
(331,208,l),
(276,0,l),
(362,0,l),
(410,178,l),
(492,195,l),
(519,21,o),
(542,-14,o),
(584,-14,cs),
(641,-14,o),
(684,54,o),
(716,139,c),
(678,156,l),
(669,128,o),
(637,61,o),
(617,61,cs),
(592,61,o),
(581,169,o),
(574,218,c),
(661,256,o),
(738,320,o),
(738,392,cs),
(738,441,o),
(702,482,o),
(639,482,cs),
(566,482,o),
(506,426,o),
(462,373,c),
(557,729,l),
(476,715,l),
(460,722,o),
(448,724,o),
(431,724,cs),
(323,724,o),
(211,642,o),
(160,468,c),
(78,468,l),
(66,425,l),
(147,425,l),
(110,305,o),
(75,121,o),
(38,-31,cs),
(30,-64,o),
(9,-99,o),
(-31,-97,cs),
(-70,-95,ls),
(-89,-94,o),
(-126,-106,o),
(-126,-148,cs),
(-126,-175,o),
(-110,-188,o),
(-82,-188,cs)
);
},
{
closed = 1;
nodes = (
(269,600,o),
(312,665,o),
(369,665,cs),
(411,665,o),
(413,631,o),
(443,626,c),
(400,468,l),
(237,468,l)
);
},
{
closed = 1;
nodes = (
(474,379,o),
(572,425,o),
(609,425,cs),
(634,425,o),
(652,404,o),
(652,376,cs),
(652,301,o),
(526,235,o),
(421,218,c)
);
}
);
width = 751;
}
);
metricLeft = f;
metricRight = k;
},
{
glyphname = f_l.liga;
kernLeft = f;
kernRight = l;
lastChange = "2024-08-06 02:24:23 +0000";
layers = (
{
layerId = m01;
shapes = (
{
closed = 1;
nodes = (
(-11,-188,o),
(49,-105,o),
(85,-36,cs),
(156,100,o),
(196,301,o),
(227,425,c),
(389,425,l),
(331,208,ls),
(312,137,o),
(294,79,o),
(294,47,cs),
(294,8,o),
(321,-14,o),
(353,-14,cs),
(408,-14,o),
(455,49,o),
(518,149,c),
(488,169,l),
(457,126,o),
(417,57,o),
(395,57,cs),
(389,57,o),
(384,62,o),
(384,70,cs),
(384,85,o),
(400,144,o),
(410,181,cs),
(557,729,l),
(476,715,l),
(460,722,o),
(448,724,o),
(431,724,cs),
(323,724,o),
(211,642,o),
(160,468,c),
(78,468,l),
(66,425,l),
(147,425,l),
(110,305,o),
(75,121,o),
(38,-31,cs),
(30,-64,o),
(9,-99,o),
(-31,-97,cs),
(-70,-95,ls),
(-89,-94,o),
(-126,-106,o),
(-126,-148,cs),
(-126,-175,o),
(-110,-188,o),
(-82,-188,cs)
);
},
{
closed = 1;
nodes = (
(269,600,o),
(312,665,o),
(369,665,cs),
(411,665,o),
(413,631,o),
(443,626,c),
(400,468,l),
(237,468,l)
);
}
);
width = 545;
}
);
metricLeft = f;
metricRight = l;
},
{
glyphname = f_t.liga;
kernLeft = f;
kernRight = t;
lastChange = "2024-08-06 02:24:23 +0000";
layers = (
{
layerId = m01;
shapes = (
{
closed = 1;
nodes = (
(-11,-188,o),
(49,-105,o),
(85,-36,cs),
(156,100,o),
(196,301,o),
(227,425,c),
(388,425,l),
(306,117,ls),
(300,95,o),
(294,67,o),
(294,48,cs),
(294,16,o),
(311,-14,o),
(353,-14,cs),
(427,-14,o),
(484,80,o),
(517,133,c),
(488,154,l),
(463,114,o),
(419,48,o),
(393,48,cs),
(384,48,o),
(383,57,o),
(383,63,cs),
(383,76,o),
(389,106,o),
(392,117,cs),
(475,425,l),
(572,425,l),
(583,468,l),
(486,468,l),
(522,602,l),
(436,602,l),
(400,468,l),
(237,468,l),
(265,574,o),
(292,659,o),
(330,659,cs),
(352,659,o),
(359,632,o),
(389,632,cs),
(417,632,o),
(435,655,o),
(435,677,cs),
(435,701,o),
(415,724,o),
(377,724,cs),
(306,724,o),
(213,646,o),
(160,468,c),
(78,468,l),
(66,425,l),
(147,425,l),
(110,305,o),
(75,121,o),
(38,-31,cs),
(30,-64,o),
(9,-99,o),
(-31,-97,cs),
(-70,-95,ls),
(-89,-94,o),
(-126,-106,o),
(-126,-148,cs),
(-126,-175,o),
(-110,-188,o),
(-82,-188,cs)
);
}
);
width = 552;
}
);
metricLeft = f;
metricRight = t;
},
{
glyphname = ordfeminine;
lastChange = "2024-08-06 02:24:23 +0000";
layers = (
{
layerId = m01;
shapes = (
{
closed = 1;
nodes = (
(213,402,o),
(245,432,o),
(265,456,c),
(264,452,o),
(263,444,o),
(263,439,cs),
(263,420,o),
(278,402,o),
(301,402,cs),
(341,402,o),
(381,457,o),
(404,492,c),
(382,507,l),
(365,486,o),
(337,446,o),
(326,446,cs),
(323,446,o),
(321,449,o),
(321,452,cs),
(321,471,o),
(402,682,o),
(410,702,c),
(354,702,l),
(342,674,l),
(330,692,o),
(317,703,o),
(291,703,cs),
(203,703,o),
(104,575,o),
(104,486,cs),
(104,435,o),
(136,402,o),
(175,402,cs)
);
},
{
closed = 1;
nodes = (
(166,435,o),
(163,452,o),
(163,466,cs),
(163,532,o),
(234,675,o),
(290,675,cs),
(306,675,o),
(318,664,o),
(318,645,cs),
(318,599,o),
(248,435,o),
(186,435,cs)
);
}
);
width = 347;
}
);
unicode = 170;
},
{
glyphname = ordmasculine;
lastChange = "2024-08-06 02:24:23 +0000";
layers = (
{
layerId = m01;
shapes = (
{
closed = 1;
nodes = (
(290,402,o),
(368,507,o),
(368,595,cs),
(368,654,o),
(332,703,o),
(275,703,cs),
(191,703,o),
(112,595,o),
(112,507,cs),
(112,447,o),
(149,402,o),
(205,402,cs)
);
},
{
closed = 1;
nodes = (
(183,430,o),
(174,455,o),
(174,482,cs),
(174,534,o),
(208,675,o),
(272,675,cs),
(292,675,o),
(307,661,o),
(307,628,cs),
(307,579,o),
(273,430,o),
(209,430,cs)
);
}
);
width = 312;
}
);
unicode = 186;
},
{
glyphname = Omega;
lastChange = "2024-08-06 02:24:23 +0000";
layers = (
{
layerId = m01;
shapes = (
{
closed = 1;
nodes = (
(284,0,l),
(293,46,l),
(242,114,o),
(224,188,o),
(224,263,cs),
(224,303,o),
(229,344,o),
(237,384,cs),
(279,596,o),
(390,695,o),
(501,695,cs),
(592,695,o),
(656,628,o),
(656,490,cs),
(656,460,o),
(653,426,o),
(645,383,cs),
(624,271,o),
(577,151,o),
(457,46,c),
(449,0,l),
(707,0,l),
(814,189,l),
(770,205,l),
(667,89,o),
(649,46,o),
(520,46,cs),
(511,46,l),
(665,132,o),
(746,264,o),
(769,389,cs),
(774,416,o),
(776,442,o),
(776,465,cs),
(776,624,o),
(676,735,o),
(510,735,cs),
(317,735,o),
(153,586,o),
(116,389,cs),
(111,362,o),
(108,332,o),
(108,305,cs),
(108,208,o),
(145,114,o),
(239,46,c),
(230,46,ls),
(102,46,o),
(101,89,o),
(43,205,c),
(-8,189,l),
(26,0,l)
);
}
);
width = 855;
}
);
unicode = 937;
},
{
glyphname = pi;
lastChange = "2024-08-06 02:24:23 +0000";
layers = (
{
layerId = m01;
shapes = (
{
closed = 1;
nodes = (
(141,-14,o),
(174,22,o),
(194,124,cs),
(251,415,l),
(384,415,l),
(329,132,ls),
(323,101,o),
(319,74,o),
(319,54,cs),
(319,14,o),
(334,-14,o),
(377,-14,cs),
(435,-14,o),
(474,37,o),
(496,61,c),
(484,82,l),
(469,68,o),
(455,51,o),
(429,51,cs),
(409,51,o),
(403,63,o),
(403,82,cs),
(403,104,o),
(411,135,o),
(418,171,cs),
(466,415,l),
(510,415,ls),
(539,415,o),
(579,468,o),
(587,508,c),
(563,516,l),
(548,499,o),
(525,486,o),
(497,486,cs),
(197,486,ls),
(119,486,o),
(86,454,o),
(42,391,c),
(69,366,l),
(119,402,o),
(138,415,o),
(190,415,c),
(141,161,ls),
(121,57,o),
(108,44,o),
(96,44,cs),
(74,44,o),
(88,85,o),
(54,85,cs),
(32,85,o),
(11,69,o),
(11,41,cs),
(11,22,o),
(20,-14,o),
(81,-14,cs)
);
}
);
width = 541;
}
);
unicode = 960;
},
{
glyphname = zero;
kernLeft = "0";
lastChange = "2024-08-06 02:24:23 +0000";
layers = (
{
layerId = m01;
shapes = (
{
closed = 1;
nodes = (
(357,-18,o),
(521,266,o),
(521,476,cs),
(521,618,o),
(446,703,o),
(361,703,cs),
(303,703,o),
(248,664,o),
(201,609,cs),
(126,521,o),
(49,366,o),
(49,209,cs),
(49,56,o),
(123,-18,o),
(202,-18,cs)
);
},
{
closed = 1;
nodes = (
(156,23,o),
(124,60,o),
(124,121,cs),
(124,221,o),
(208,491,o),
(253,577,cs),
(280,629,o),
(317,662,o),
(360,662,cs),
(410,662,o),
(444,618,o),
(444,560,cs),
(444,490,o),
(396,269,o),
(325,129,cs),
(284,47,o),
(251,23,o),
(209,23,cs)
);
}
);
width = 514;
}
);
unicode = 48;
},
{
glyphname = one;
kernLeft = "1";
kernRight = "1";
lastChange = "2024-08-06 02:24:23 +0000";
layers = (
{
layerId = m01;
shapes = (
{
closed = 1;
nodes = (
(386,0,l),
(398,43,l),
(292,43,o),
(268,51,o),
(268,84,cs),
(268,94,o),
(270,102,o),
(276,124,cs),
(437,725,l),
(357,688,o),
(307,666,o),
(176,653,c),
(165,611,l),
(270,611,o),
(300,610,o),
(300,577,cs),
(300,563,o),
(295,544,o),
(288,517,cs),
(184,131,ls),
(165,61,o),
(162,51,o),
(42,43,c),
(30,0,l)
);
}
);
width = 514;
}
);
unicode = 49;
},
{
glyphname = two;
kernLeft = "2";
kernRight = "2";
lastChange = "2024-08-06 02:24:23 +0000";
layers = (
{
layerId = m01;
shapes = (
{
closed = 1;
nodes = (
(389,0,l),
(457,173,l),
(425,194,l),
(360,82,o),
(321,82,o),
(244,82,cs),
(57,82,l),
(114,147,o),
(177,193,o),
(286,273,cs),
(398,355,o),
(520,418,o),
(520,543,cs),
(520,639,o),
(448,703,o),
(339,703,cs),
(205,703,o),
(114,606,o),
(114,539,cs),
(114,505,o),
(138,479,o),
(173,479,cs),
(214,479,o),
(229,516,o),
(229,569,cs),
(229,616,o),
(254,658,o),
(329,658,cs),
(384,658,o),
(419,635,o),
(419,570,cs),
(419,473,o),
(343,402,o),
(224,303,cs),
(136,230,o),
(47,156,o),
(-12,59,c),
(-27,0,l)
);
}
);
width = 514;
}
);
unicode = 50;
},
{
glyphname = three;
kernLeft = "3";
kernRight = "3";
lastChange = "2024-08-06 02:24:23 +0000";
layers = (
{
layerId = m01;
shapes = (
{
closed = 1;
nodes = (
(347,-18,o),
(459,80,o),
(459,208,cs),
(459,297,o),
(404,335,o),
(335,359,c),
(427,360,o),
(529,442,o),
(529,548,cs),
(529,638,o),
(455,703,o),
(350,703,cs),
(248,703,o),
(151,642,o),
(151,576,cs),
(151,546,o),
(171,518,o),
(207,518,cs),
(290,518,o),
(238,662,o),
(355,662,cs),
(414,662,o),
(434,626,o),
(434,572,cs),
(434,471,o),
(365,382,o),
(291,382,cs),
(268,382,o),
(252,391,o),
(231,391,cs),
(208,391,o),
(198,381,o),
(198,362,cs),
(198,339,o),
(214,330,o),
(239,330,cs),
(259,330,o),
(271,336,o),
(291,336,cs),
(344,336,o),
(363,286,o),
(363,237,cs),
(363,151,o),
(306,23,o),
(200,23,cs),
(149,23,o),
(124,52,o),
(124,79,cs),
(124,98,o),
(137,115,o),
(137,139,cs),
(137,172,o),
(111,198,o),
(79,198,cs),
(48,198,o),
(22,175,o),
(22,131,cs),
(22,59,o),
(94,-18,o),
(213,-18,cs)
);
}
);
width = 514;
}
);
unicode = 51;
},
{
glyphname = four;
kernLeft = "4";
kernRight = "4";
lastChange = "2024-08-06 02:24:23 +0000";
layers = (
{
layerId = m01;
shapes = (
{
closed = 1;
nodes = (
(409,0,l),
(419,40,l),
(348,40,o),
(329,51,o),
(329,72,cs),
(329,81,o),
(333,99,o),
(337,114,cs),
(352,169,l),
(475,169,l),
(488,218,l),
(365,218,l),
(495,703,l),
(426,703,l),
(15,210,l),
(4,169,l),
(258,169,l),
(243,114,ls),
(227,54,o),
(229,43,o),
(160,40,c),
(149,0,l)
);
},
{
closed = 1;
nodes = (
(363,561,l),
(271,218,l),
(79,218,l)
);
}
);
width = 514;
}
);
unicode = 52;
},
{
glyphname = five;
kernLeft = "5";
kernRight = "5";
lastChange = "2024-08-06 02:24:23 +0000";
layers = (
{
layerId = m01;
shapes = (
{
closed = 1;
nodes = (
(344,-18,o),
(465,101,o),
(465,251,cs),
(465,359,o),
(402,445,o),
(292,445,cs),
(240,445,o),
(201,426,o),
(163,394,c),
(243,605,l),
(502,605,l),
(541,684,l),
(223,684,l),
(92,330,l),
(123,314,l),
(165,355,o),
(210,396,o),
(273,396,cs),
(323,396,o),
(369,371,o),
(369,288,cs),
(369,197,o),
(314,23,o),
(193,23,cs),
(144,23,o),
(120,52,o),
(120,80,cs),
(120,100,o),
(133,116,o),
(133,138,cs),
(133,166,o),
(112,196,o),
(73,196,cs),
(32,196,o),
(18,164,o),
(18,130,cs),
(18,50,o),
(96,-18,o),
(203,-18,cs)
);
}
);
width = 514;
}
);
unicode = 53;
},
{
glyphname = six;
kernLeft = "6";
kernRight = "6";
lastChange = "2024-08-06 02:24:23 +0000";
layers = (
{
layerId = m01;
shapes = (
{
closed = 1;
nodes = (
(350,-18,o),
(479,111,o),
(479,257,cs),
(479,351,o),
(426,429,o),
(326,429,cs),
(264,429,o),
(220,399,o),
(158,328,c),
(219,526,o),
(304,658,o),
(383,658,cs),
(450,658,o),
(426,562,o),
(493,562,cs),
(525,562,o),
(552,584,o),
(552,620,cs),
(552,670,o),
(499,703,o),
(425,703,cs),
(323,703,o),
(247,641,o),
(191,576,cs),
(110,482,o),
(41,349,o),
(41,211,cs),
(41,95,o),
(89,-18,o),
(215,-18,cs)
);
},
{
closed = 1;
nodes = (
(154,23,o),
(128,70,o),
(128,147,cs),
(128,187,o),
(135,228,o),
(143,258,c),
(206,348,o),
(260,379,o),
(303,379,cs),
(344,379,o),
(382,352,o),
(382,284,cs),
(382,204,o),
(330,23,o),
(213,23,cs)
);
}
);
width = 514;
}
);
unicode = 54;
},
{
glyphname = seven;
kernLeft = "7";
kernRight = "7";
lastChange = "2024-08-06 02:24:23 +0000";
layers = (
{
layerId = m01;
shapes = (
{
closed = 1;
nodes = (
(202,-18,o),
(223,2,o),
(234,48,cs),
(293,293,o),
(475,499,o),
(584,635,c),
(597,684,l),
(204,684,l),
(107,493,l),
(142,474,l),
(224,606,o),
(242,609,o),
(369,609,cs),
(508,609,l),
(412,499,o),
(305,371,o),
(217,240,cs),
(182,188,o),
(124,103,o),
(124,39,cs),
(124,14,o),
(133,-18,o),
(172,-18,cs)
);
}
);
width = 514;
}
);
unicode = 55;
},
{
glyphname = eight;
kernLeft = "8";
kernRight = "8";
lastChange = "2024-08-06 02:24:23 +0000";
layers = (
{
layerId = m01;
shapes = (
{
closed = 1;
nodes = (
(363,-18,o),
(461,70,o),
(461,183,cs),
(461,256,o),
(421,310,o),
(363,355,c),
(472,397,o),
(529,461,o),
(529,544,cs),
(529,642,o),
(448,703,o),
(348,703,cs),
(227,703,o),
(133,613,o),
(133,499,cs),
(133,425,o),
(172,394,o),
(210,355,c),
(102,321,o),
(6,261,o),
(6,155,cs),
(6,54,o),
(92,-18,o),
(221,-18,cs)
);
},
{
closed = 1;
nodes = (
(158,23,o),
(96,56,o),
(96,140,cs),
(96,240,o),
(182,304,o),
(240,325,c),
(328,261,o),
(377,225,o),
(377,152,cs),
(377,65,o),
(307,23,o),
(228,23,cs)
);
},
{
closed = 1;
nodes = (
(302,409,o),
(268,429,o),
(238,462,c),
(229,470,o),
(209,498,o),
(209,538,cs),
(209,611,o),
(275,662,o),
(341,662,cs),
(392,662,o),
(449,632,o),
(449,551,cs),
(449,470,o),
(392,401,o),
(333,381,c)
);
}
);
width = 514;
}
);
unicode = 56;
},
{
glyphname = nine;
kernLeft = "9";
kernRight = "9";
lastChange = "2024-08-06 02:24:23 +0000";
layers = (
{
layerId = m01;
shapes = (
{
closed = 1;
nodes = (
(236,-18,o),
(323,46,o),
(382,115,cs),
(462,208,o),
(530,355,o),
(530,480,cs),
(530,587,o),
(480,703,o),
(353,703,cs),
(217,703,o),
(90,571,o),
(90,428,cs),
(90,335,o),
(143,255,o),
(241,255,cs),
(305,255,o),
(358,289,o),
(404,343,c),
(344,145,o),
(259,28,o),
(182,28,cs),
(111,28,o),
(136,126,o),
(68,126,cs),
(37,126,o),
(9,105,o),
(9,69,cs),
(9,18,o),
(64,-18,o),
(138,-18,cs)
);
},
{
closed = 1;
nodes = (
(225,307,o),
(185,334,o),
(185,396,cs),
(185,465,o),
(235,659,o),
(354,659,cs),
(411,659,o),
(443,614,o),
(443,551,cs),
(443,512,o),
(431,452,o),
(424,422,c),
(357,332,o),
(307,307,o),
(267,307,cs)
);
}
);
width = 514;
}
);
unicode = 57;
},
{
glyphname = fraction;
lastChange = "2024-08-06 02:24:23 +0000";
layers = (
{
layerId = m01;
shapes = (
{
closed = 1;
nodes = (
(-158,0,l),
(376,684,l),
(326,684,l),
(-209,0,l)
);
}
);
width = 114;
}
);
unicode = 8260;
},
{
glyphname = zerosuperior;
lastChange = "2024-08-06 02:24:23 +0000";
layers = (
{
layerId = m01;
shapes = (
{
closed = 1;
nodes = (
(314,313,o),
(402,502,o),
(402,607,cs),
(402,678,o),
(363,745,o),
(299,745,cs),
(201,745,o),
(100,587,o),
(100,455,cs),
(100,360,o),
(151,313,o),
(205,313,cs)
);
},
{
closed = 1;
nodes = (
(185,344,o),
(156,356,o),
(156,406,cs),
(156,463,o),
(194,587,o),
(223,648,cs),
(244,693,o),
(265,714,o),
(295,714,cs),
(324,714,o),
(346,694,o),
(346,644,cs),
(346,576,o),
(304,468,o),
(285,426,cs),
(259,368,o),
(233,344,o),
(205,344,cs)
);
}
);
width = 342;
}
);
unicode = 8304;
},
{
glyphname = onesuperior;
lastChange = "2024-08-06 02:24:23 +0000";
layers = (
{
layerId = m01;
shapes = (
{
closed = 1;
nodes = (
(321,324,l),
(330,356,l),
(257,359,o),
(247,361,o),
(247,375,cs),
(247,380,o),
(248,386,o),
(252,401,cs),
(348,761,l),
(284,731,o),
(247,724,o),
(176,716,c),
(169,685,l),
(238,685,o),
(254,681,o),
(254,666,cs),
(254,661,o),
(252,651,o),
(251,647,cs),
(184,398,ls),
(174,360,o),
(169,362,o),
(98,356,c),
(90,324,l)
);
}
);
width = 342;
}
);
unicode = 185;
},
{
glyphname = twosuperior;
lastChange = "2024-08-06 02:24:23 +0000";
layers = (
{
layerId = m01;
shapes = (
{
closed = 1;
nodes = (
(323,324,l),
(366,432,l),
(340,447,l),
(306,393,o),
(300,380,o),
(236,380,cs),
(119,380,l),
(169,431,o),
(219,462,o),
(272,498,cs),
(340,544,o),
(401,584,o),
(401,648,cs),
(401,708,o),
(348,746,o),
(282,746,cs),
(206,746,o),
(137,695,o),
(137,646,cs),
(137,619,o),
(159,607,o),
(178,607,cs),
(199,607,o),
(217,622,o),
(217,665,cs),
(217,693,o),
(235,713,o),
(276,713,cs),
(311,713,o),
(331,698,o),
(331,662,cs),
(331,604,o),
(277,560,o),
(213,510,cs),
(153,463,o),
(100,422,o),
(64,364,c),
(54,324,l)
);
}
);
width = 342;
}
);
unicode = 178;
},
{
glyphname = threesuperior;
lastChange = "2024-08-06 02:24:23 +0000";
layers = (
{
layerId = m01;
shapes = (
{
closed = 1;
nodes = (
(296,313,o),
(365,374,o),
(365,449,cs),
(365,486,o),
(348,519,o),
(299,536,c),
(330,539,o),
(406,579,o),
(406,649,cs),
(406,703,o),
(361,745,o),
(288,745,cs),
(216,745,o),
(160,704,o),
(160,665,cs),
(160,646,o),
(174,628,o),
(199,628,cs),
(254,628,o),
(220,714,o),
(291,714,cs),
(314,714,o),
(338,705,o),
(338,661,cs),
(338,603,o),
(296,555,o),
(258,555,cs),
(245,555,o),
(228,561,o),
(215,561,cs),
(201,561,o),
(192,554,o),
(192,540,cs),
(192,526,o),
(201,518,o),
(226,518,cs),
(239,518,o),
(243,520,o),
(253,520,cs),
(272,520,o),
(297,513,o),
(297,469,cs),
(297,433,o),
(281,396,o),
(266,376,cs),
(248,352,o),
(225,344,o),
(200,344,cs),
(164,344,o),
(156,361,o),
(156,374,cs),
(156,387,o),
(163,394,o),
(163,409,cs),
(163,433,o),
(146,448,o),
(121,448,cs),
(101,448,o),
(83,438,o),
(83,407,cs),
(83,352,o),
(142,313,o),
(210,313,cs)
);
}
);
width = 342;
}
);
unicode = 179;
},
{
glyphname = foursuperior;
lastChange = "2024-08-06 02:24:23 +0000";
layers = (
{
layerId = m01;
shapes = (
{
closed = 1;
nodes = (
(334,324,l),
(341,353,l),
(299,355,o),
(285,361,o),
(285,372,cs),
(285,379,o),
(291,397,o),
(293,406,cs),
(297,423,l),
(375,423,l),
(385,460,l),
(307,460,l),
(384,745,l),
(335,745,l),
(79,452,l),
(71,423,l),
(231,423,l),
(225,398,ls),
(216,360,o),
(214,359,o),
(172,353,c),
(164,324,l)
);
},
{
closed = 1;
nodes = (
(291,645,l),
(241,460,l),
(130,460,l)
);
}
);
width = 342;
}
);
unicode = 8308;
},
{
glyphname = fivesuperior;
lastChange = "2024-08-06 02:24:23 +0000";
layers = (
{
layerId = m01;
shapes = (
{
closed = 1;
nodes = (
(301,313,o),
(370,391,o),
(370,475,cs),
(370,546,o),
(321,593,o),
(257,593,cs),
(227,593,o),
(206,583,o),
(181,569,c),
(225,680,l),
(387,680,l),
(415,734,l),
(206,734,l),
(125,519,l),
(150,507,l),
(180,538,o),
(209,556,o),
(243,556,cs),
(273,556,o),
(301,543,o),
(301,490,cs),
(301,435,o),
(270,344,o),
(196,344,cs),
(168,344,o),
(154,357,o),
(154,375,cs),
(154,389,o),
(162,394,o),
(162,411,cs),
(162,434,o),
(148,446,o),
(123,446,cs),
(90,446,o),
(82,425,o),
(82,405,cs),
(82,356,o),
(129,313,o),
(202,313,cs)
);
}
);
width = 342;
}
);
unicode = 8309;
},
{
glyphname = sixsuperior;
lastChange = "2024-08-06 02:24:23 +0000";
layers = (
{
layerId = m01;
shapes = (
{
closed = 1;
nodes = (
(297,313,o),
(378,390,o),
(378,479,cs),
(378,545,o),
(333,584,o),
(278,584,cs),
(246,584,o),
(214,571,o),
(179,533,c),
(209,630,o),
(257,712,o),
(307,712,cs),
(349,712,o),
(337,655,o),
(378,655,cs),
(401,655,o),
(420,672,o),
(420,693,cs),
(420,718,o),
(392,745,o),
(339,745,cs),
(212,745,o),
(95,591,o),
(95,453,cs),
(95,368,o),
(139,313,o),
(211,313,cs)
);
},
{
closed = 1;
nodes = (
(169,344,o),
(158,374,o),
(158,419,cs),
(158,442,o),
(161,462,o),
(165,478,c),
(199,522,o),
(232,547,o),
(262,547,cs),
(286,547,o),
(309,532,o),
(309,488,cs),
(309,434,o),
(274,344,o),
(207,344,cs)
);
}
);
width = 342;
}
);
unicode = 8310;
},
{
glyphname = sevensuperior;
lastChange = "2024-08-06 02:24:23 +0000";
layers = (
{
layerId = m01;
shapes = (
{
closed = 1;
nodes = (
(215,312,o),
(221,339,o),
(228,364,cs),
(262,486,o),
(336,583,o),
(439,701,c),
(447,734,l),
(193,734,l),
(132,615,l),
(159,601,l),
(202,674,o),
(227,682,o),
(287,682,cs),
(380,682,l),
(333,628,o),
(282,573,o),
(238,513,cs),
(203,465,o),
(149,392,o),
(149,347,cs),
(149,327,o),
(160,312,o),
(183,312,cs)
);
}
);
width = 342;
}
);
unicode = 8311;
},
{
glyphname = eightsuperior;
lastChange = "2024-08-06 02:24:23 +0000";
layers = (
{
layerId = m01;
shapes = (
{
closed = 1;
nodes = (
(300,313,o),
(366,362,o),
(366,435,cs),
(366,486,o),
(333,515,o),
(308,535,c),
(357,555,o),
(405,589,o),
(405,646,cs),
(405,701,o),
(361,745,o),
(288,745,cs),
(203,745,o),
(149,685,o),
(149,625,cs),
(149,589,o),
(169,562,o),
(196,538,c),
(129,517,o),
(73,480,o),
(73,418,cs),
(73,353,o),
(136,313,o),
(214,313,cs)
);
},
{
closed = 1;
nodes = (
(174,344,o),
(138,365,o),
(138,415,cs),
(138,466,o),
(176,500,o),
(221,515,c),
(274,478,o),
(307,458,o),
(307,413,cs),
(307,368,o),
(269,344,o),
(220,344,cs)
);
},
{
closed = 1;
nodes = (
(249,582,o),
(204,604,o),
(204,647,cs),
(204,684,o),
(239,714,o),
(281,714,cs),
(312,714,o),
(348,698,o),
(348,647,cs),
(348,604,o),
(322,571,o),
(282,556,c)
);
}
);
width = 342;
}
);
unicode = 8312;
},
{
glyphname = ninesuperior;
lastChange = "2024-08-06 02:24:23 +0000";
layers = (
{
layerId = m01;
shapes = (
{
closed = 1;
nodes = (
(293,313,o),
(406,479,o),
(406,608,cs),
(406,690,o),
(361,745,o),
(288,745,cs),
(200,745,o),
(122,665,o),
(122,579,cs),
(122,513,o),
(167,474,o),
(222,474,cs),
(253,474,o),
(285,487,o),
(319,517,c),
(280,403,o),
(230,347,o),
(190,347,cs),
(148,347,o),
(163,406,o),
(119,406,cs),
(96,406,o),
(76,389,o),
(76,367,cs),
(76,341,o),
(105,313,o),
(160,313,cs)
);
},
{
closed = 1;
nodes = (
(214,512,o),
(190,527,o),
(190,568,cs),
(190,613,o),
(220,713,o),
(291,713,cs),
(325,713,o),
(344,690,o),
(344,648,cs),
(344,625,o),
(338,592,o),
(334,575,c),
(300,535,o),
(270,512,o),
(239,512,cs)
);
}
);
width = 342;
}
);
unicode = 8313;
},
{
glyphname = period;
lastChange = "2024-08-06 02:24:23 +0000";
layers = (
{
layerId = m01;
shapes = (
{
closed = 1;
nodes = (
(116,-14,o),
(145,13,o),
(145,51,cs),
(145,89,o),
(116,115,o),
(81,115,cs),
(46,115,o),
(16,89,o),
(16,51,cs),
(16,13,o),
(46,-14,o),
(81,-14,cs)
);
}
);
width = 258;
}
);
unicode = 46;
},
{
glyphname = comma;
lastChange = "2024-08-06 02:24:23 +0000";
layers = (
{
layerId = m01;
shapes = (
{
closed = 1;
nodes = (
(66,-102,o),
(145,-35,o),
(145,42,cs),
(145,95,o),
(108,114,o),
(80,114,cs),
(49,114,o),
(21,90,o),
(21,54,cs),
(21,9,o),
(63,5,o),
(63,-20,cs),
(63,-52,o),
(-6,-100,o),
(-25,-111,c),
(-2,-142,l)
);
}
);
width = 258;
}
);
unicode = 44;
},
{
glyphname = exclam;
lastChange = "2024-08-06 02:24:23 +0000";
layers = (
{
layerId = m01;
shapes = (
{
closed = 1;
nodes = (
(215,387,ls),
(250,513,o),
(319,595,o),
(319,667,cs),
(319,706,o),
(299,735,o),
(258,735,cs),
(215,735,o),
(183,703,o),
(183,552,cs),
(183,416,o),
(150,323,o),
(124,209,c),
(163,199,l)
);
},
{
closed = 1;
nodes = (
(141,-14,o),
(170,13,o),
(170,51,cs),
(170,89,o),
(141,115,o),
(106,115,cs),
(71,115,o),
(41,89,o),
(41,51,cs),
(41,13,o),
(71,-14,o),
(106,-14,cs)
);
}
);
width = 296;
}
);
unicode = 33;
},
{
glyphname = exclamdown;
lastChange = "2024-08-06 02:24:23 +0000";
layers = (
{
layerId = m01;
shapes = (
{
closed = 1;
nodes = (
(85,-267,o),
(118,-235,o),
(118,-84,cs),
(118,52,o),
(150,145,o),
(176,259,c),
(137,269,l),
(120,203,o),
(101,137,o),
(85,80,cs),
(50,-46,o),
(-18,-127,o),
(-18,-199,cs),
(-18,-237,o),
(1,-267,o),
(42,-267,cs)
);
},
{
closed = 1;
nodes = (
(229,354,o),
(259,379,o),
(259,417,cs),
(259,455,o),
(229,482,o),
(195,482,cs),
(160,482,o),
(131,455,o),
(131,417,cs),
(131,379,o),
(160,354,o),
(195,354,cs)
);
}
);
width = 296;
}
);
unicode = 161;
},
{
glyphname = question;
lastChange = "2024-08-06 02:24:23 +0000";
layers = (
{
layerId = m01;
shapes = (
{
closed = 1;
nodes = (
(229,328,l),
(239,326,o),
(251,325,o),
(263,325,cs),
(369,325,o),
(452,408,o),
(452,529,cs),
(452,639,o),
(383,735,o),
(278,735,cs),
(215,735,o),
(164,700,o),
(164,657,cs),
(164,630,o),
(184,608,o),
(210,608,cs),
(257,608,o),
(264,681,o),
(314,681,cs),
(348,681,o),
(383,648,o),
(383,574,cs),
(383,486,o),
(333,413,o),
(243,413,cs),
(228,413,o),
(213,415,o),
(203,417,c),
(147,206,l),
(192,196,l)
);
},
{
closed = 1;
nodes = (
(172,-14,o),
(201,13,o),
(201,51,cs),
(201,89,o),
(172,115,o),
(137,115,cs),
(103,115,o),
(72,89,o),
(72,51,cs),
(72,13,o),
(103,-14,o),
(137,-14,cs)
);
}
);
width = 441;
}
);
unicode = 63;
},
{
glyphname = questiondown;
lastChange = "2024-08-06 02:24:23 +0000";
layers = (
{
layerId = m01;
shapes = (
{
closed = 1;
nodes = (
(225,-267,o),
(276,-232,o),
(276,-189,cs),
(276,-162,o),
(256,-139,o),
(230,-139,cs),
(183,-139,o),
(177,-213,o),
(126,-213,cs),
(92,-213,o),
(57,-180,o),
(57,-106,cs),
(57,-18,o),
(107,55,o),
(197,55,cs),
(212,55,o),
(227,53,o),
(237,51,c),
(293,262,l),
(248,272,l),
(211,141,l),
(201,142,o),
(189,143,o),
(177,143,cs),
(71,143,o),
(-12,60,o),
(-12,-61,cs),
(-12,-171,o),
(57,-267,o),
(162,-267,cs)
);
},
{
closed = 1;
nodes = (
(337,354,o),
(368,379,o),
(368,417,cs),
(368,455,o),
(337,482,o),
(303,482,cs),
(268,482,o),
(239,455,o),
(239,417,cs),
(239,379,o),
(268,354,o),
(303,354,cs)
);
}
);
width = 441;
}
);
unicode = 191;
},
{
glyphname = bullet;
lastChange = "2024-08-06 02:24:23 +0000";
layers = (
{
layerId = m01;
shapes = (
{
closed = 1;
nodes = (
(443,216,o),
(511,284,o),
(511,366,cs),
(511,449,o),
(443,516,o),
(361,516,cs),
(279,516,o),
(212,449,o),
(212,366,cs),
(212,284,o),
(279,216,o),
(361,216,cs)
);
}
);
width = 721;
}
);
unicode = 8226;
},
{
glyphname = asterisk;
lastChange = "2024-08-06 02:24:23 +0000";
layers = (
{
layerId = m01;
shapes = (
{
closed = 1;
nodes = (
(407,396,o),
(425,415,o),
(425,438,cs),
(425,443,o),
(424,449,o),
(422,454,cs),
(411,484,o),
(375,505,o),
(357,551,c),
(403,556,o),
(440,533,o),
(469,533,cs),
(494,533,o),
(514,551,o),
(514,573,cs),
(514,593,o),
(497,613,o),
(471,613,cs),
(440,613,o),
(406,585,o),
(356,582,c),
(366,630,o),
(403,658,o),
(409,685,cs),
(410,689,o),
(410,693,o),
(410,697,cs),
(410,721,o),
(393,739,o),
(372,739,cs),
(349,739,o),
(328,719,o),
(328,683,cs),
(328,670,o),
(331,651,o),
(331,630,cs),
(331,618,o),
(330,604,o),
(326,589,c),
(283,614,o),
(270,655,o),
(244,671,cs),
(234,677,o),
(223,679,o),
(216,679,cs),
(203,679,o),
(190,671,o),
(185,662,cs),
(182,656,o),
(180,648,o),
(180,641,cs),
(180,628,o),
(186,613,o),
(202,603,cs),
(228,587,o),
(269,589,o),
(310,564,c),
(274,531,o),
(227,530,o),
(206,511,cs),
(195,501,o),
(190,489,o),
(190,477,cs),
(190,468,o),
(193,459,o),
(199,452,cs),
(206,444,o),
(218,439,o),
(229,439,cs),
(238,439,o),
(249,442,o),
(258,449,cs),
(281,466,o),
(291,508,o),
(329,541,c),
(348,495,o),
(335,455,o),
(347,425,cs),
(355,406,o),
(371,396,o),
(386,396,cs)
);
}
);
width = 506;
}
);
unicode = 42;
},
{
glyphname = numbersign;
lastChange = "2024-08-06 02:24:23 +0000";
layers = (
{
hints = (
{
horizontal = 1;
origin = (0,27);
target = up;
type = BottomGhost;
},
{
horizontal = 1;
origin = (0,25);
target = (0,24);
type = Stem;
},
{
horizontal = 1;
origin = (0,21);
target = (0,20);
type = Stem;
}
);
layerId = m01;
shapes = (
{
closed = 1;
nodes = (
(105,0,l),
(184,236,l),
(323,236,l),
(244,0,l),
(311,0,l),
(390,236,l),
(510,236,l),
(522,294,l),
(410,294,l),
(463,452,l),
(585,452,l),
(597,510,l),
(482,510,l),
(561,746,l),
(495,746,l),
(416,510,l),
(276,510,l),
(355,746,l),
(289,746,l),
(210,510,l),
(86,510,l),
(75,452,l),
(190,452,l),
(137,294,l),
(16,294,l),
(4,236,l),
(117,236,l),
(38,0,l)
);
},
{
closed = 1;
nodes = (
(256,452,l),
(397,452,l),
(344,294,l),
(203,294,l)
);
}
);
width = 601;
}
);
unicode = 35;
},
{
glyphname = slash;
lastChange = "2024-08-06 02:24:23 +0000";
layers = (
{
layerId = m01;
shapes = (
{
closed = 1;
nodes = (
(-59,-187,l),
(503,721,l),
(439,721,l),
(-121,-187,l)
);
}
);
width = 414;
}
);
unicode = 47;
},
{
glyphname = backslash;
lastChange = "2024-08-06 02:24:23 +0000";
layers = (
{
layerId = m01;
shapes = (
{
closed = 1;
nodes = (
(308,-187,l),
(236,721,l),
(181,721,l),
(256,-187,l)
);
}
);
width = 414;
}
);
unicode = 92;
},
{
glyphname = hyphen;
lastChange = "2024-08-06 02:24:23 +0000";
layers = (
{
layerId = m01;
shapes = (
{
closed = 1;
nodes = (
(179,246,l),
(198,315,l),
(22,315,l),
(3,246,l)
);
}
);
width = 176;
}
);
unicode = 45;
},
{
glyphname = endash;
lastChange = "2024-08-06 02:24:23 +0000";
layers = (
{
layerId = m01;
shapes = (
{
closed = 1;
nodes = (
(470,252,l),
(485,310,l),
(68,310,l),
(53,252,l)
);
}
);
width = 514;
}
);
unicode = 8211;
},
{
glyphname = emdash;
lastChange = "2024-08-06 02:24:23 +0000";
layers = (
{
layerId = m01;
shapes = (
{
closed = 1;
nodes = (
(573,252,l),
(588,310,l),
(19,310,l),
(4,252,l)
);
}
);
width = 568;
}
);
unicode = 8212;
},
{
glyphname = underscore;
lastChange = "2024-08-06 02:24:23 +0000";
layers = (
{
layerId = m01;
shapes = (
{
closed = 1;
nodes = (
(517,-145,l),
(517,-95,l),
(23,-95,l),
(23,-145,l)
);
}
);
width = 541;
}
);
unicode = 95;
},
{
glyphname = parenleft;
lastChange = "2024-08-06 02:24:23 +0000";
layers = (
{
layerId = m01;
shapes = (
{
closed = 1;
nodes = (
(181,-185,l),
(152,-102,o),
(128,-43,o),
(128,76,cs),
(128,255,o),
(182,553,o),
(422,714,c),
(402,739,l),
(271,660,o),
(51,476,o),
(51,154,cs),
(51,25,o),
(86,-79,o),
(155,-205,c)
);
}
);
width = 329;
}
);
unicode = 40;
},
{
glyphname = parenright;
lastChange = "2024-08-06 02:24:23 +0000";
layers = (
{
layerId = m01;
shapes = (
{
closed = 1;
nodes = (
(76,-126,o),
(296,58,o),
(296,380,cs),
(296,509,o),
(261,613,o),
(192,739,c),
(166,719,l),
(195,636,o),
(219,577,o),
(219,458,cs),
(219,279,o),
(165,-19,o),
(-75,-179,c),
(-55,-205,l)
);
}
);
width = 329;
}
);
unicode = 41;
},
{
glyphname = braceleft;
lastChange = "2024-08-06 02:24:23 +0000";
layers = (
{
layerId = m01;
shapes = (
{
closed = 1;
nodes = (
(323,-181,l),
(335,-138,l),
(243,-138,o),
(216,-115,o),
(216,-69,cs),
(216,-51,o),
(220,-29,o),
(229,4,cs),
(263,130,ls),
(274,170,o),
(279,198,o),
(279,218,cs),
(279,261,o),
(256,269,o),
(222,285,c),
(276,310,o),
(311,310,o),
(338,410,cs),
(372,537,ls),
(396,628,o),
(417,679,o),
(554,679,c),
(565,721,l),
(539,721,ls),
(354,721,o),
(325,675,o),
(289,536,cs),
(276,487,o),
(260,416,o),
(252,388,cs),
(231,312,o),
(183,310,o),
(124,306,c),
(114,265,l),
(161,262,o),
(202,259,o),
(202,214,cs),
(202,205,o),
(200,195,o),
(197,183,cs),
(187,143,o),
(164,71,o),
(146,4,cs),
(135,-37,o),
(127,-72,o),
(127,-99,cs),
(127,-158,o),
(167,-181,o),
(297,-181,cs)
);
}
);
width = 519;
}
);
unicode = 123;
},
{
glyphname = braceright;
lastChange = "2024-08-06 02:24:23 +0000";
layers = (
{
layerId = m01;
shapes = (
{
closed = 1;
nodes = (
(-1,-181,ls),
(172,-181,o),
(212,-144,o),
(250,4,cs),
(263,53,o),
(277,121,o),
(286,152,cs),
(306,219,o),
(339,230,o),
(414,235,c),
(425,276,l),
(378,279,o),
(337,281,o),
(337,326,cs),
(337,335,o),
(339,346,o),
(342,358,cs),
(356,412,o),
(379,486,o),
(392,536,cs),
(403,578,o),
(411,612,o),
(411,638,cs),
(411,699,o),
(371,721,o),
(241,721,cs),
(215,721,l),
(203,679,l),
(295,679,o),
(322,656,o),
(322,609,cs),
(322,591,o),
(318,570,o),
(309,536,cs),
(276,411,ls),
(265,370,o),
(260,342,o),
(260,322,cs),
(260,279,o),
(282,272,o),
(317,255,c),
(263,230,o),
(226,230,o),
(200,131,cs),
(166,3,ls),
(142,-88,o),
(121,-138,o),
(-15,-138,c),
(-27,-181,l)
);
}
);
width = 519;
}
);
unicode = 125;
},
{
glyphname = bracketleft;
lastChange = "2024-08-06 02:24:23 +0000";
layers = (
{
layerId = m01;
shapes = (
{
closed = 1;
nodes = (
(179,-187,l),
(190,-147,l),
(72,-147,l),
(295,681,l),
(398,681,l),
(409,721,l),
(224,721,l),
(-19,-187,l)
);
}
);
width = 329;
}
);
unicode = 91;
},
{
glyphname = bracketright;
lastChange = "2024-08-06 02:24:23 +0000";
layers = (
{
layerId = m01;
shapes = (
{
closed = 1;
nodes = (
(122,-187,l),
(365,721,l),
(166,721,l),
(156,681,l),
(274,681,l),
(51,-147,l),
(-52,-147,l),
(-63,-187,l)
);
}
);
width = 329;
}
);
unicode = 93;
},
{
glyphname = quotesinglbase;
lastChange = "2024-08-06 02:24:23 +0000";
layers = (
{
layerId = m01;
shapes = (
{
closed = 1;
nodes = (
(56,-102,o),
(135,-35,o),
(135,42,cs),
(135,95,o),
(98,114,o),
(70,114,cs),
(39,114,o),
(11,90,o),
(11,54,cs),
(11,9,o),
(53,5,o),
(53,-20,cs),
(53,-52,o),
(-15,-100,o),
(-35,-111,c),
(-12,-142,l)
);
}
);
width = 254;
}
);
unicode = 8218;
},
{
glyphname = quotedblleft;
lastChange = "2024-08-06 02:24:23 +0000";
layers = (
{
layerId = m01;
shapes = (
{
closed = 1;
nodes = (
(412,480,o),
(440,504,o),
(440,540,cs),
(440,584,o),
(398,589,o),
(398,614,cs),
(398,643,o),
(456,686,o),
(485,705,c),
(463,735,l),
(395,695,o),
(316,629,o),
(316,551,cs),
(316,498,o),
(353,480,o),
(380,480,cs)
);
},
{
closed = 1;
nodes = (
(250,480,o),
(278,504,o),
(278,540,cs),
(278,584,o),
(236,589,o),
(236,614,cs),
(236,643,o),
(294,686,o),
(323,705,c),
(301,735,l),
(232,695,o),
(154,629,o),
(154,551,cs),
(154,498,o),
(190,480,o),
(218,480,cs)
);
}
);
width = 416;
}
);
unicode = 8220;
},
{
glyphname = quoteleft;
lastChange = "2024-08-06 02:24:23 +0000";
layers = (
{
layerId = m01;
shapes = (
{
closed = 1;
nodes = (
(250,480,o),
(278,504,o),
(278,540,cs),
(278,584,o),
(236,589,o),
(236,614,cs),
(236,643,o),
(294,686,o),
(323,705,c),
(301,735,l),
(232,695,o),
(154,629,o),
(154,551,cs),
(154,498,o),
(190,480,o),
(218,480,cs)
);
}
);
width = 254;
}
);
unicode = 8216;
},
{
glyphname = quoteright;
lastChange = "2024-08-06 02:24:23 +0000";
layers = (
{
layerId = m01;
shapes = (
{
closed = 1;
nodes = (
(223,520,o),
(302,587,o),
(302,664,cs),
(302,717,o),
(265,735,o),
(237,735,cs),
(205,735,o),
(177,711,o),
(177,675,cs),
(177,631,o),
(219,626,o),
(219,601,cs),
(219,572,o),
(161,529,o),
(132,510,c),
(155,480,l)
);
}
);
width = 254;
}
);
unicode = 8217;
},
{
glyphname = guilsinglleft;
lastChange = "2024-08-06 02:24:23 +0000";
layers = (
{
layerId = m01;
shapes = (
{
closed = 1;
nodes = (
(195,137,l),
(174,187,o),
(154,229,o),
(124,274,c),
(172,318,o),
(210,364,o),
(251,416,c),
(227,436,l),
(168,377,o),
(102,330,o),
(51,286,c),
(46,274,l),
(88,228,o),
(126,175,o),
(168,123,c)
);
}
);
width = 256;
}
);
unicode = 8249;
},
{
glyphname = guilsinglright;
lastChange = "2024-08-06 02:24:23 +0000";
layers = (
{
layerId = m01;
shapes = (
{
closed = 1;
nodes = (
(114,182,o),
(179,230,o),
(230,274,c),
(235,286,l),
(194,332,o),
(155,384,o),
(114,436,c),
(86,423,l),
(107,373,o),
(128,330,o),
(157,285,c),
(109,241,o),
(71,196,o),
(30,144,c),
(54,123,l)
);
}
);
width = 256;
}
);
unicode = 8250;
},
{
glyphname = quotesingle;
lastChange = "2024-08-06 02:24:23 +0000";
layers = (
{
layerId = m01;
shapes = (
{
closed = 1;
nodes = (
(179,468,l),
(198,532,o),
(268,633,o),
(276,674,cs),
(277,679,o),
(278,690,o),
(278,696,cs),
(278,725,o),
(256,735,o),
(232,735,cs),
(199,735,o),
(171,715,o),
(162,674,cs),
(152,630,o),
(157,531,o),
(146,468,c)
);
}
);
width = 200;
}
);
unicode = 39;
},
{
glyphname = florin;
lastChange = "2024-08-06 02:24:23 +0000";
layers = (
{
layerId = m01;
shapes = (
{
closed = 1;
nodes = (
(77,-145,o),
(152,-62,o),
(188,7,cs),
(259,143,o),
(308,301,o),
(339,425,c),
(432,425,l),
(444,468,l),
(349,468,l),
(377,574,o),
(435,692,o),
(473,692,cs),
(495,692,o),
(513,665,o),
(543,665,cs),
(570,665,o),
(588,687,o),
(588,710,cs),
(588,734,o),
(569,757,o),
(531,757,cs),
(440,757,o),
(325,646,o),
(272,468,c),
(190,468,l),
(178,425,l),
(259,425,l),
(227,305,o),
(193,164,o),
(141,12,cs),
(130,-21,o),
(97,-56,o),
(57,-54,cs),
(18,-52,ls),
(-1,-51,o),
(-38,-63,o),
(-38,-105,cs),
(-38,-132,o),
(-22,-145,o),
(6,-145,cs)
);
}
);
width = 514;
}
);
unicode = 402;
},
{
glyphname = at;
lastChange = "2024-08-06 02:24:23 +0000";
layers = (
{
layerId = m01;
shapes = (
{
closed = 1;
nodes = (
(497,-14,o),
(596,52,o),
(657,96,c),
(639,125,l),
(571,79,o),
(485,29,o),
(386,29,cs),
(241,29,o),
(129,137,o),
(129,289,cs),
(129,491,o),
(327,691,o),
(545,691,cs),
(680,691,o),
(769,615,o),
(769,486,cs),
(769,317,o),
(615,206,o),
(562,206,cs),
(546,206,o),
(543,216,o),
(543,225,cs),
(543,268,o),
(618,451,o),
(662,561,c),
(594,561,l),
(576,520,l),
(568,546,o),
(550,562,o),
(517,562,cs),
(409,562,o),
(270,396,o),
(270,268,cs),
(270,202,o),
(308,159,o),
(359,159,cs),
(416,159,o),
(459,214,o),
(476,238,c),
(476,231,o),
(471,226,o),
(471,208,cs),
(471,183,o),
(481,159,o),
(533,159,cs),
(665,159,o),
(821,316,o),
(821,498,cs),
(821,665,o),
(690,736,o),
(546,736,cs),
(296,736,o),
(74,523,o),
(74,287,cs),
(74,114,o),
(194,-14,o),
(370,-14,cs)
);
},
{
closed = 1;
nodes = (
(345,199,o),
(342,223,o),
(342,244,cs),
(342,307,o),
(370,369,o),
(409,435,cs),
(432,474,o),
(467,528,o),
(512,528,cs),
(535,528,o),
(547,514,o),
(547,487,cs),
(547,451,o),
(525,394,o),
(503,348,cs),
(477,294,o),
(425,199,o),
(372,199,cs)
);
}
);
width = 812;
}
);
unicode = 64;
},
{
glyphname = ampersand;
lastChange = "2024-08-06 02:24:23 +0000";
layers = (
{
layerId = m01;
shapes = (
{
closed = 1;
nodes = (
(297,-18,o),
(363,24,o),
(394,50,c),
(419,23,o),
(451,-14,o),
(508,-14,cs),
(582,-14,o),
(653,48,o),
(690,95,c),
(661,123,l),
(646,109,o),
(601,58,o),
(547,58,cs),
(509,58,o),
(484,84,o),
(466,110,c),
(530,169,o),
(560,218,o),
(592,264,cs),
(624,309,o),
(644,337,o),
(719,345,c),
(730,386,l),
(477,386,l),
(466,344,l),
(528,339,o),
(552,332,o),
(552,310,cs),
(552,283,o),
(514,218,o),
(441,148,c),
(400,221,o),
(374,291,o),
(357,405,c),
(452,445,o),
(584,499,o),
(584,617,cs),
(584,693,o),
(529,739,o),
(457,739,cs),
(351,739,o),
(252,637,o),
(252,481,cs),
(252,450,o),
(256,428,o),
(259,405,c),
(171,369,o),
(22,291,o),
(22,155,cs),
(22,58,o),
(97,-18,o),
(212,-18,cs)
);
},
{
closed = 1;
nodes = (
(177,48,o),
(126,110,o),
(126,190,cs),
(126,266,o),
(173,324,o),
(267,363,c),
(286,269,o),
(305,187,o),
(366,88,c),
(343,75,o),
(299,48,o),
(250,48,cs)
);
},
{
closed = 1;
nodes = (
(347,466,o),
(343,497,o),
(343,523,cs),
(343,625,o),
(402,696,o),
(460,696,cs),
(495,696,o),
(512,670,o),
(512,631,cs),
(512,547,o),
(434,486,o),
(349,449,c)
);
}
);
width = 743;
}
);
unicode = 38;
},
{
glyphname = paragraph;
lastChange = "2024-08-06 02:24:23 +0000";
layers = (
{
layerId = m01;
shapes = (
{
closed = 1;
nodes = (
(164,-187,l),
(397,679,l),
(486,679,l),
(255,-187,l),
(417,-187,l),
(428,-145,l),
(357,-145,o),
(347,-130,o),
(347,-109,cs),
(347,-99,o),
(345,-106,o),
(355,-69,cs),
(531,586,ls),
(554,672,o),
(566,681,o),
(649,679,c),
(661,721,l),
(325,721,ls),
(269,721,o),
(221,701,o),
(183,665,cs),
(124,610,o),
(91,516,o),
(91,443,cs),
(91,382,o),
(114,332,o),
(236,332,c),
(125,-74,ls),
(107,-142,o),
(84,-145,o),
(6,-145,c),
(-4,-187,l)
);
}
);
width = 549;
}
);
unicode = 182;
},
{
glyphname = section;
lastChange = "2024-08-06 02:24:23 +0000";
layers = (
{
layerId = m01;
shapes = (
{
closed = 1;
nodes = (
(273,-205,o),
(376,-110,o),
(376,-9,cs),
(376,50,o),
(341,95,o),
(305,128,c),
(378,143,o),
(471,196,o),
(471,295,cs),
(471,455,o),
(226,479,o),
(226,606,cs),
(226,658,o),
(268,704,o),
(333,704,cs),
(439,704,o),
(394,584,o),
(471,584,cs),
(500,584,o),
(522,601,o),
(522,633,cs),
(522,690,o),
(450,739,o),
(367,739,cs),
(262,739,o),
(156,661,o),
(156,559,cs),
(156,503,o),
(188,469,o),
(225,436,c),
(171,427,o),
(57,374,o),
(57,267,cs),
(57,109,o),
(302,90,o),
(302,-50,cs),
(302,-120,o),
(242,-166,o),
(170,-166,cs),
(44,-166,o),
(101,-28,o),
(19,-28,cs),
(-17,-28,o),
(-38,-54,o),
(-38,-85,cs),
(-38,-141,o),
(33,-205,o),
(141,-205,cs)
);
},
{
closed = 1;
nodes = (
(242,158,o),
(128,238,o),
(128,313,cs),
(128,361,o),
(174,405,o),
(223,405,cs),
(290,405,o),
(401,321,o),
(401,249,cs),
(401,201,o),
(351,158,o),
(305,158,cs)
);
}
);
width = 514;
}
);
unicode = 167;
},
{
glyphname = copyright;
lastChange = "2024-08-06 02:24:23 +0000";
layers = (
{
layerId = m01;
shapes = (
{
closed = 1;
nodes = (
(624,-14,o),
(792,155,o),
(792,361,cs),
(792,566,o),
(625,735,o),
(420,735,cs),
(214,735,o),
(43,564,o),
(43,359,cs),
(43,155,o),
(213,-14,o),
(419,-14,cs)
);
},
{
closed = 1;
nodes = (
(235,22,o),
(83,174,o),
(83,359,cs),
(83,546,o),
(237,699,o),
(420,699,cs),
(603,699,o),
(752,547,o),
(752,361,cs),
(752,174,o),
(602,22,o),
(419,22,cs)
);
},
{
closed = 1;
nodes = (
(482,150,o),
(547,191,o),
(578,271,c),
(549,283,l),
(530,235,o),
(490,200,o),
(435,200,cs),
(378,200,o),
(304,238,o),
(304,376,cs),
(304,484,o),
(349,546,o),
(415,546,cs),
(475,546,o),
(529,495,o),
(548,451,c),
(578,463,l),
(539,575,l),
(528,571,o),
(507,562,o),
(494,562,cs),
(479,562,o),
(457,577,o),
(417,577,cs),
(299,577,o),
(232,450,o),
(232,342,cs),
(232,224,o),
(313,150,o),
(410,150,cs)
);
}
);
width = 836;
}
);
unicode = 169;
},
{
glyphname = registered;
lastChange = "2024-08-06 02:24:23 +0000";
layers = (
{
layerId = m01;
shapes = (
{
closed = 1;
nodes = (
(624,-14,o),
(792,155,o),
(792,361,cs),
(792,566,o),
(625,735,o),
(420,735,cs),
(214,735,o),
(43,564,o),
(43,359,cs),
(43,155,o),
(213,-14,o),
(419,-14,cs)
);
},
{
closed = 1;
nodes = (
(235,22,o),
(83,174,o),
(83,359,cs),
(83,546,o),
(237,699,o),
(420,699,cs),
(603,699,o),
(752,547,o),
(752,361,cs),
(752,174,o),
(602,22,o),
(419,22,cs)
);
},
{
closed = 1;
nodes = (
(416,159,l),
(416,189,l),
(406,189,ls),
(374,189,o),
(364,196,o),
(364,242,cs),
(365,351,l),
(401,351,l),
(512,159,l),
(619,159,l),
(619,189,l),
(608,189,ls),
(570,189,o),
(561,199,o),
(536,243,cs),
(470,359,l),
(545,366,o),
(581,415,o),
(581,465,cs),
(581,516,o),
(544,544,o),
(506,557,cs),
(483,565,o),
(451,570,o),
(400,570,cs),
(243,570,l),
(243,539,l),
(257,539,ls),
(291,539,o),
(298,530,o),
(298,492,cs),
(298,238,ls),
(298,191,o),
(289,189,o),
(256,189,cs),
(243,189,l),
(243,159,l)
);
},
{
closed = 1;
nodes = (
(365,503,ls),
(365,535,o),
(379,541,o),
(411,541,cs),
(472,541,o),
(508,520,o),
(508,462,cs),
(508,405,o),
(474,383,o),
(414,383,cs),
(365,383,l)
);
}
);
width = 836;
}
);
unicode = 174;
},
{
glyphname = trademark;
lastChange = "2024-08-06 02:24:23 +0000";
layers = (
{
layerId = m01;
shapes = (
{
closed = 1;
nodes = (
(586,310,l),
(594,339,l),
(561,344,o),
(551,345,o),
(546,358,cs),
(545,361,o),
(544,365,o),
(544,369,cs),
(544,372,o),
(545,381,o),
(549,396,cs),
(616,645,l),
(648,310,l),
(670,310,l),
(880,655,l),
(804,375,ls),
(796,344,o),
(786,342,o),
(745,339,c),
(737,310,l),
(915,310,l),
(922,339,l),
(879,339,o),
(869,345,o),
(869,358,cs),
(869,362,o),
(870,367,o),
(872,375,cs),
(944,643,ls),
(957,692,o),
(961,690,o),
(1008,692,c),
(1016,721,l),
(883,721,l),
(701,423,l),
(672,721,l),
(542,721,l),
(534,692,l),
(576,692,o),
(587,686,o),
(587,674,cs),
(587,668,o),
(585,659,o),
(583,652,cs),
(515,396,ls),
(506,361,o),
(498,348,o),
(449,338,c),
(441,310,l)
);
},
{
closed = 1;
nodes = (
(324,310,l),
(332,339,l),
(284,339,o),
(275,345,o),
(275,357,cs),
(275,363,o),
(278,376,o),
(280,384,cs),
(354,658,ls),
(361,684,o),
(372,691,o),
(389,691,cs),
(428,691,o),
(460,651,o),
(478,605,c),
(506,611,l),
(490,721,l),
(169,721,l),
(111,622,l),
(131,604,l),
(179,648,o),
(236,691,o),
(272,691,cs),
(285,691,o),
(290,685,o),
(290,675,cs),
(290,671,o),
(289,667,o),
(286,655,cs),
(213,384,ls),
(202,344,o),
(198,341,o),
(146,339,c),
(138,310,l)
);
}
);
width = 926;
}
);
unicode = 8482;
},
{
glyphname = degree;
lastChange = "2024-08-06 02:24:23 +0000";
layers = (
{
layerId = m01;
shapes = (
{
closed = 1;
nodes = (
(297,468,o),
(357,517,o),
(357,601,cs),
(357,685,o),
(298,735,o),
(239,735,cs),
(179,735,o),
(119,686,o),
(119,603,cs),
(119,519,o),
(178,468,o),
(238,468,cs)
);
},
{
closed = 1;
nodes = (
(198,519,o),
(183,561,o),
(183,601,cs),
(183,641,o),
(199,684,o),
(239,684,cs),
(280,684,o),
(293,641,o),
(293,601,cs),
(293,561,o),
(278,519,o),
(238,519,cs)
);
}
);
width = 324;
}
);
unicode = 176;
},
{
glyphname = bar;
lastChange = "2024-08-06 02:24:23 +0000";
layers = (
{
layerId = m01;
shapes = (
{
closed = 1;
nodes = (
(302,-181,l),
(302,721,l),
(239,721,l),
(239,-181,l)
);
}
);
width = 541;
}
);
unicode = 124;
},
{
glyphname = brokenbar;
lastChange = "2024-08-06 02:24:23 +0000";
layers = (
{
layerId = m01;
shapes = (
{
closed = 1;
nodes = (
(302,357,l),
(302,721,l),
(239,721,l),
(239,357,l)
);
},
{
closed = 1;
nodes = (
(302,-181,l),
(302,165,l),
(239,165,l),
(239,-181,l)
);
}
);
width = 541;
}
);
unicode = 166;
},
{
glyphname = dagger;
lastChange = "2024-08-06 02:24:23 +0000";
layers = (
{
layerId = m01;
shapes = (
{
closed = 1;
nodes = (
(184,-205,l),
(223,-28,o),
(256,156,o),
(332,283,c),
(323,324,o),
(318,351,o),
(318,381,cs),
(318,404,o),
(321,429,o),
(328,462,c),
(417,462,o),
(437,426,o),
(475,426,cs),
(502,426,o),
(531,444,o),
(531,482,cs),
(531,520,o),
(503,536,o),
(476,536,cs),
(440,536,o),
(415,509,o),
(335,502,c),
(342,534,o),
(347,550,o),
(359,574,cs),
(382,619,o),
(409,641,o),
(409,680,cs),
(409,715,o),
(387,739,o),
(356,739,cs),
(324,739,o),
(294,715,o),
(294,666,cs),
(294,637,o),
(305,606,o),
(305,573,cs),
(305,546,o),
(298,521,o),
(295,502,c),
(218,504,o),
(192,536,o),
(155,536,cs),
(128,536,o),
(95,520,o),
(95,481,cs),
(95,445,o),
(123,426,o),
(152,426,cs),
(188,426,o),
(209,455,o),
(285,462,c),
(271,396,o),
(245,344,o),
(209,292,c),
(210,238,ls),
(212,129,o),
(189,10,o),
(142,-205,c)
);
}
);
width = 506;
}
);
unicode = 8224;
},
{
glyphname = daggerdbl;
lastChange = "2024-08-06 02:24:23 +0000";
layers = (
{
layerId = m01;
shapes = (
{
closed = 1;
nodes = (
(195,-206,o),
(225,-182,o),
(225,-133,cs),
(225,-104,o),
(214,-75,o),
(214,-39,cs),
(214,-13,o),
(220,11,o),
(224,31,c),
(301,29,o),
(327,-3,o),
(364,-3,cs),
(391,-3,o),
(424,13,o),
(424,52,cs),
(424,88,o),
(396,107,o),
(367,107,cs),
(331,107,o),
(310,78,o),
(234,71,c),
(248,137,o),
(282,214,o),
(318,266,c),
(309,307,o),
(305,345,o),
(305,370,cs),
(305,395,o),
(309,419,o),
(318,462,c),
(408,462,o),
(427,426,o),
(465,426,cs),
(492,426,o),
(521,444,o),
(521,482,cs),
(521,520,o),
(493,536,o),
(466,536,cs),
(430,536,o),
(406,509,o),
(325,502,c),
(332,534,o),
(337,550,o),
(349,574,cs),
(372,619,o),
(399,641,o),
(399,680,cs),
(399,715,o),
(377,739,o),
(346,739,cs),
(314,739,o),
(284,715,o),
(284,666,cs),
(284,637,o),
(295,607,o),
(295,571,cs),
(295,547,o),
(290,526,o),
(285,502,c),
(207,504,o),
(182,536,o),
(145,536,cs),
(118,536,o),
(85,520,o),
(85,481,cs),
(85,445,o),
(114,426,o),
(143,426,cs),
(178,426,o),
(198,455,o),
(276,462,c),
(262,396,o),
(227,319,o),
(191,267,c),
(200,226,o),
(204,188,o),
(204,163,cs),
(204,138,o),
(200,114,o),
(191,71,c),
(102,71,o),
(82,107,o),
(44,107,cs),
(17,107,o),
(-12,89,o),
(-12,51,cs),
(-12,13,o),
(16,-3,o),
(43,-3,cs),
(79,-3,o),
(104,24,o),
(184,31,c),
(177,-1,o),
(172,-17,o),
(160,-41,cs),
(137,-86,o),
(110,-108,o),
(110,-147,cs),
(110,-182,o),
(132,-206,o),
(164,-206,cs)
);
}
);
width = 506;
}
);
unicode = 8225;
},
{
glyphname = cent;
lastChange = "2024-08-06 02:24:23 +0000";
layers = (
{
layerId = m01;
shapes = (
{
closed = 1;
nodes = (
(231,32,l),
(255,122,l),
(337,125,o),
(404,206,o),
(445,257,c),
(418,279,l),
(383,241,o),
(323,170,o),
(269,170,c),
(378,578,l),
(387,577,o),
(394,574,o),
(394,562,cs),
(394,552,o),
(390,545,o),
(390,533,cs),
(390,511,o),
(405,484,o),
(436,484,cs),
(464,484,o),
(485,505,o),
(485,536,cs),
(485,575,o),
(450,618,o),
(390,618,cs),
(389,618,l),
(408,688,l),
(373,688,l),
(354,614,l),
(304,603,o),
(261,569,o),
(223,524,cs),
(161,451,o),
(123,362,o),
(123,284,cs),
(123,203,o),
(164,143,o),
(223,125,c),
(198,32,l)
);
},
{
closed = 1;
nodes = (
(217,197,o),
(212,217,o),
(212,245,cs),
(212,298,o),
(230,376,o),
(259,448,cs),
(280,500,o),
(307,550,o),
(342,570,c),
(237,179,l)
);
}
);
width = 514;
}
);
unicode = 162;
},
{
glyphname = currency;
lastChange = "2024-08-06 02:24:23 +0000";
layers = (
{
hints = (
{
horizontal = 1;
origin = (0,3);
target = (1,11);
type = Stem;
},
{
horizontal = 1;
origin = (1,5);
target = (0,21);
type = Stem;
},
{
origin = (0,30);
target = (1,2);
type = Stem;
},
{
origin = (1,8);
target = (0,12);
type = Stem;
}
);
layerId = m01;
shapes = (
{
closed = 1;
nodes = (
(134,164,l),
(179,126,o),
(239,105,o),
(300,105,cs),
(364,105,o),
(422,128,o),
(468,164,c),
(525,103,l),
(572,149,l),
(514,210,l),
(548,255,o),
(569,312,o),
(569,373,cs),
(569,435,o),
(548,491,o),
(512,536,c),
(572,597,l),
(523,645,l),
(464,586,l),
(418,621,o),
(361,641,o),
(301,641,cs),
(239,641,o),
(182,619,o),
(136,585,c),
(77,645,l),
(29,597,l),
(89,537,l),
(54,492,o),
(32,435,o),
(32,373,cs),
(32,312,o),
(53,255,o),
(88,210,c),
(29,149,l),
(76,103,l)
);
},
{
closed = 1;
nodes = (
(189,170,o),
(104,265,o),
(104,373,cs),
(104,481,o),
(189,576,o),
(300,576,cs),
(409,576,o),
(497,484,o),
(497,373,cs),
(497,262,o),
(409,170,o),
(300,170,cs)
);
}
);
width = 601;
}
);
note = currency;
unicode = 164;
},
{
glyphname = dollar;
lastChange = "2024-08-06 02:24:23 +0000";
layers = (
{
layerId = m01;
shapes = (
{
closed = 1;
nodes = (
(199,-89,l),
(217,-14,l),
(227,-16,o),
(242,-17,o),
(254,-17,cs),
(374,-17,o),
(480,90,o),
(480,212,cs),
(480,325,o),
(388,371,o),
(322,405,c),
(384,652,l),
(424,646,o),
(455,621,o),
(455,597,cs),
(455,576,o),
(431,564,o),
(431,529,cs),
(431,496,o),
(453,482,o),
(478,482,cs),
(514,482,o),
(545,513,o),
(545,556,cs),
(545,603,o),
(509,677,o),
(395,697,c),
(423,810,l),
(363,810,l),
(337,707,l),
(333,707,ls),
(206,707,o),
(117,619,o),
(117,503,cs),
(117,406,o),
(180,363,o),
(243,330,c),
(173,40,l),
(125,50,o),
(96,81,o),
(96,105,cs),
(96,130,o),
(128,139,o),
(128,173,cs),
(128,202,o),
(104,215,o),
(81,215,cs),
(38,215,o),
(12,169,o),
(12,136,cs),
(12,86,o),
(69,15,o),
(161,-3,c),
(139,-89,l)
);
},
{
closed = 1;
nodes = (
(248,28,o),
(238,29,o),
(228,30,c),
(296,303,l),
(347,277,o),
(399,239,o),
(399,172,cs),
(399,95,o),
(332,28,o),
(257,28,cs)
);
},
{
closed = 1;
nodes = (
(227,459,o),
(196,493,o),
(196,544,cs),
(196,613,o),
(251,657,o),
(326,662,c),
(269,434,l)
);
}
);
width = 514;
}
);
unicode = 36;
},
{
glyphname = euro;
lastChange = "2024-08-06 02:24:23 +0000";
layers = (
{
layerId = m01;
shapes = (
{
closed = 1;
nodes = (
(554,414,l),
(587,474,l),
(141,474,l),
(107,414,l)
);
},
{
closed = 1;
nodes = (
(501,306,l),
(534,365,l),
(120,365,l),
(86,306,l)
);
},
{
pos = (97,0);
ref = C;
}
);
width = 773;
}
);
unicode = 8364;
},
{
glyphname = lira;
lastChange = "2024-08-06 02:24:23 +0000";
layers = (
{
layerId = m01;
shapes = (
{
closed = 1;
nodes = (
(389,-25,o),
(443,51,o),
(472,148,c),
(435,148,l),
(413,76,o),
(379,58,o),
(338,58,cs),
(293,58,o),
(243,80,o),
(203,98,c),
(227,129,o),
(254,178,o),
(264,243,c),
(408,243,l),
(418,282,l),
(268,282,l),
(268,294,l),
(267,345,l),
(435,345,l),
(445,384,l),
(267,384,l),
(266,456,ls),
(265,563,o),
(283,602,o),
(310,629,cs),
(340,659,o),
(375,664,o),
(390,664,cs),
(417,664,o),
(448,648,o),
(448,615,cs),
(448,594,o),
(436,575,o),
(436,554,cs),
(436,529,o),
(454,507,o),
(483,507,cs),
(517,507,o),
(543,537,o),
(543,581,cs),
(543,641,o),
(493,703,o),
(400,703,cs),
(352,703,o),
(311,686,o),
(278,662,cs),
(208,610,o),
(171,517,o),
(170,384,c),
(83,384,l),
(72,345,l),
(170,345,l),
(172,282,l),
(56,282,l),
(45,243,l),
(172,243,l),
(171,188,o),
(163,156,o),
(156,119,c),
(137,126,o),
(99,147,o),
(65,147,cs),
(22,147,o),
(-23,113,o),
(-23,59,cs),
(-23,6,o),
(21,-18,o),
(58,-18,cs),
(107,-18,o),
(142,21,o),
(156,36,c),
(183,15,o),
(235,-25,o),
(300,-25,cs)
);
},
{
closed = 1;
nodes = (
(31,24,o),
(24,44,o),
(24,59,cs),
(24,80,o),
(37,95,o),
(58,95,cs),
(84,95,o),
(109,71,o),
(122,62,c),
(112,46,o),
(94,24,o),
(62,24,cs)
);
}
);
width = 514;
}
);
unicode = 8356;
},
{
glyphname = sterling;
lastChange = "2024-08-06 02:29:14 +0000";
layers = (
{
layerId = m01;
shapes = (
{
closed = 1;
nodes = (
(389,-25,o),
(443,51,o),
(472,148,c),
(435,148,l),
(413,76,o),
(379,58,o),
(338,58,cs),
(293,58,o),
(243,80,o),
(203,98,c),
(234,136,o),
(268,204,o),
(268,294,c),
(421,294,l),
(432,333,l),
(268,333,l),
(266,456,ls),
(264,559,o),
(283,602,o),
(310,629,cs),
(340,659,o),
(375,664,o),
(390,664,cs),
(417,664,o),
(448,648,o),
(448,615,cs),
(448,594,o),
(436,575,o),
(436,554,cs),
(436,529,o),
(454,507,o),
(483,507,cs),
(517,507,o),
(543,537,o),
(543,581,cs),
(543,641,o),
(493,703,o),
(401,703,cs),
(352,703,o),
(311,686,o),
(278,662,cs),
(208,610,o),
(171,515,o),
(171,375,cs),
(171,333,l),
(70,333,l),
(58,294,l),
(172,294,l),
(172,263,ls),
(172,195,o),
(164,160,o),
(156,119,c),
(137,126,o),
(99,147,o),
(65,147,cs),
(22,147,o),
(-23,113,o),
(-23,59,cs),
(-23,6,o),
(21,-18,o),
(58,-18,cs),
(107,-18,o),
(142,21,o),
(156,36,c),
(183,15,o),
(235,-25,o),
(300,-25,cs)
);
},
{
closed = 1;
nodes = (
(31,24,o),
(24,44,o),
(24,59,cs),
(24,80,o),
(37,95,o),
(58,95,cs),
(84,95,o),
(109,71,o),
(122,62,c),
(112,46,o),
(94,24,o),
(62,24,cs)
);
}
);
width = 514;
}
);
unicode = 163;
},
{
glyphname = yen;
lastChange = "2024-08-06 02:24:23 +0000";
layers = (
{
layerId = m01;
shapes = (
{
closed = 1;
nodes = (
(387,0,l),
(397,40,l),
(318,40,o),
(302,53,o),
(302,74,cs),
(302,85,o),
(306,107,o),
(308,114,cs),
(347,257,l),
(536,257,l),
(548,317,l),
(371,317,l),
(443,403,l),
(565,403,l),
(576,463,l),
(493,463,l),
(595,584,ls),
(668,670,o),
(680,674,o),
(731,681,c),
(741,721,l),
(509,721,l),
(498,681,l),
(564,681,o),
(573,666,o),
(573,651,cs),
(573,626,o),
(542,594,o),
(532,582,cs),
(337,346,l),
(277,599,ls),
(275,608,o),
(267,630,o),
(267,647,cs),
(267,666,o),
(277,681,o),
(350,681,c),
(360,721,l),
(94,721,l),
(83,681,l),
(130,681,o),
(159,671,o),
(172,618,cs),
(211,463,l),
(108,463,l),
(97,403,l),
(225,403,l),
(246,317,l),
(80,317,l),
(68,257,l),
(246,257,l),
(208,114,ls),
(192,53,o),
(176,42,o),
(94,40,c),
(83,0,l)
);
}
);
width = 626;
}
);
unicode = 165;
},
{
glyphname = plus;
lastChange = "2024-08-06 02:24:23 +0000";
layers = (
{
hints = (
{
horizontal = 1;
origin = (0,11);
target = up;
type = BottomGhost;
},
{
horizontal = 1;
origin = (0,9);
target = (0,8);
type = Stem;
},
{
horizontal = 1;
origin = (0,6);
target = down;
type = TopGhost;
},
{
origin = (0,11);
target = (0,0);
type = Stem;
}
);
layerId = m01;
shapes = (
{
closed = 1;
nodes = (
(336,0,l),
(336,203,l),
(539,203,l),
(539,275,l),
(336,275,l),
(336,478,l),
(265,478,l),
(265,275,l),
(62,275,l),
(62,203,l),
(265,203,l),
(265,0,l)
);
}
);
width = 601;
}
);
unicode = 43;
},
{
glyphname = minus;
lastChange = "2024-08-06 02:24:23 +0000";
layers = (
{
hints = (
{
horizontal = 1;
origin = (0,3);
target = (0,2);
type = Stem;
}
);
layerId = m01;
shapes = (
{
closed = 1;
nodes = (
(539,203,l),
(539,275,l),
(62,275,l),
(62,203,l)
);
}
);
width = 601;
}
);
note = minus;
unicode = 8722;
},
{
glyphname = multiply;
lastChange = "2024-08-06 02:24:23 +0000";
layers = (
{
hints = (
{
horizontal = 1;
origin = (0,7);
target = down;
type = TopGhost;
}
);
layerId = m01;
shapes = (
{
closed = 1;
nodes = (
(301,190,l),
(489,3,l),
(539,53,l),
(349,239,l),
(539,428,l),
(488,478,l),
(301,289,l),
(114,478,l),
(62,428,l),
(252,239,l),
(62,53,l),
(112,3,l)
);
}
);
width = 601;
}
);
note = multiply;
unicode = 215;
},
{
glyphname = divide;
lastChange = "2024-08-06 02:24:23 +0000";
layers = (
{
hints = (
{
horizontal = 1;
origin = (1,11);
target = (1,5);
type = Stem;
},
{
horizontal = 1;
origin = (0,3);
target = (0,2);
type = Stem;
},
{
horizontal = 1;
origin = (2,5);
target = (2,11);
type = Stem;
},
{
origin = (1,8);
target = (1,2);
type = Stem;
}
);
layerId = m01;
shapes = (
{
closed = 1;
nodes = (
(539,203,l),
(539,275,l),
(62,275,l),
(62,203,l)
);
},
{
closed = 1;
nodes = (
(339,-16,o),
(372,16,o),
(372,55,cs),
(372,94,o),
(339,126,o),
(301,126,cs),
(262,126,o),
(229,94,o),
(229,55,cs),
(229,16,o),
(262,-16,o),
(301,-16,cs)
);
},
{
closed = 1;
nodes = (
(339,351,o),
(372,384,o),
(372,423,cs),
(372,462,o),
(339,494,o),
(301,494,cs),
(262,494,o),
(229,462,o),
(229,423,cs),
(229,384,o),
(262,351,o),
(301,351,cs)
);
}
);
width = 601;
}
);
note = divide;
unicode = 247;
},
{
glyphname = equal;
lastChange = "2024-08-06 02:24:23 +0000";
layers = (
{
hints = (
{
horizontal = 1;
origin = (1,3);
target = (1,2);
type = Stem;
},
{
horizontal = 1;
origin = (0,3);
target = (0,2);
type = Stem;
}
);
layerId = m01;
shapes = (
{
closed = 1;
nodes = (
(539,311,l),
(539,383,l),
(62,383,l),
(62,311,l)
);
},
{
closed = 1;
nodes = (
(539,95,l),
(539,166,l),
(62,166,l),
(62,95,l)
);
}
);
width = 601;
}
);
note = equal;
unicode = 61;
},
{
glyphname = notequal;
lastChange = "2024-08-06 02:24:23 +0000";
layers = (
{
hints = (
{
horizontal = 1;
origin = (0,16);
target = (0,15);
type = Stem;
},
{
horizontal = 1;
origin = (0,12);
target = (0,11);
type = Stem;
}
);
layerId = m01;
shapes = (
{
closed = 1;
nodes = (
(251,95,l),
(539,95,l),
(539,166,l),
(291,166,l),
(372,311,l),
(539,311,l),
(539,383,l),
(411,383,l),
(488,520,l),
(435,550,l),
(342,383,l),
(62,383,l),
(62,311,l),
(302,311,l),
(221,166,l),
(62,166,l),
(62,95,l),
(182,95,l),
(106,-40,l),
(159,-70,l)
);
}
);
width = 594;
}
);
note = notequal;
unicode = 8800;
},
{
glyphname = greater;
lastChange = "2024-08-06 02:24:23 +0000";
layers = (
{
hints = (
{
horizontal = 1;
origin = (0,6);
target = up;
type = BottomGhost;
},
{
horizontal = 1;
origin = (0,2);
target = down;
type = TopGhost;
}
);
layerId = m01;
shapes = (
{
closed = 1;
nodes = (
(539,203,l),
(539,275,l),
(62,483,l),
(62,406,l),
(457,239,l),
(62,71,l),
(62,-5,l)
);
}
);
width = 601;
}
);
note = greater;
unicode = 62;
},
{
glyphname = less;
lastChange = "2024-08-06 02:24:23 +0000";
layers = (
{
hints = (
{
horizontal = 1;
origin = (0,6);
target = up;
type = BottomGhost;
},
{
horizontal = 1;
origin = (0,3);
target = down;
type = TopGhost;
}
);
layerId = m01;
shapes = (
{
closed = 1;
nodes = (
(539,71,l),
(144,239,l),
(539,406,l),
(539,483,l),
(62,275,l),
(62,203,l),
(539,-5,l)
);
}
);
width = 601;
}
);
note = less;
unicode = 60;
},
{
glyphname = greaterequal;
lastChange = "2024-08-06 02:24:23 +0000";
layers = (
{
hints = (
{
horizontal = 1;
origin = (1,3);
target = (1,2);
type = Stem;
}
);
layerId = m01;
shapes = (
{
closed = 1;
nodes = (
(539,362,l),
(539,434,l),
(62,642,l),
(62,565,l),
(457,398,l),
(62,230,l),
(62,154,l)
);
},
{
closed = 1;
nodes = (
(539,0,l),
(539,71,l),
(62,71,l),
(62,0,l)
);
}
);
width = 601;
}
);
unicode = 8805;
},
{
glyphname = lessequal;
lastChange = "2024-08-06 02:24:23 +0000";
layers = (
{
hints = (
{
horizontal = 1;
origin = (1,3);
target = (1,2);
type = Stem;
}
);
layerId = m01;
shapes = (
{
closed = 1;
nodes = (
(539,230,l),
(144,398,l),
(539,565,l),
(539,642,l),
(62,434,l),
(62,362,l),
(539,154,l)
);
},
{
closed = 1;
nodes = (
(539,0,l),
(539,71,l),
(62,71,l),
(62,0,l)
);
}
);
width = 601;
}
);
note = lessequal;
unicode = 8804;
},
{
glyphname = plusminus;
lastChange = "2024-08-06 02:24:23 +0000";
layers = (
{
hints = (
{
horizontal = 1;
origin = (1,3);
target = (1,2);
type = Stem;
},
{
horizontal = 1;
origin = (0,11);
target = (0,8);
type = Stem;
},
{
horizontal = 1;
origin = (0,9);
target = (0,8);
type = Stem;
},
{
horizontal = 1;
origin = (0,9);
target = (0,6);
type = Stem;
},
{
origin = (0,11);
target = (0,0);
type = Stem;
}
);
layerId = m01;
shapes = (
{
closed = 1;
nodes = (
(336,133,l),
(336,252,l),
(539,252,l),
(539,323,l),
(336,323,l),
(336,442,l),
(265,442,l),
(265,323,l),
(62,323,l),
(62,252,l),
(265,252,l),
(265,133,l)
);
},
{
closed = 1;
nodes = (
(539,0,l),
(539,71,l),
(62,71,l),
(62,0,l)
);
}
);
width = 601;
}
);
note = plusminus;
unicode = 177;
},
{
glyphname = approxequal;
lastChange = "2024-08-06 02:24:23 +0000";
layers = (
{
hints = (
{
horizontal = 1;
origin = (0,2);
target = (0,15);
type = Stem;
},
{
horizontal = 1;
origin = (1,2);
target = (1,15);
type = Stem;
},
{
horizontal = 1;
origin = (1,5);
target = (1,2);
type = Stem;
},
{
horizontal = 1;
origin = (0,5);
target = (0,2);
type = Stem;
}
);
layerId = m01;
shapes = (
{
closed = 1;
nodes = (
(115,131,o),
(148,148,o),
(186,148,cs),
(265,148,o),
(335,77,o),
(416,77,cs),
(474,77,o),
(512,113,o),
(550,170,c),
(511,224,l),
(489,190,o),
(463,148,o),
(415,148,cs),
(352,148,o),
(279,219,o),
(189,219,cs),
(128,219,o),
(79,186,o),
(51,126,c),
(90,72,l)
);
},
{
closed = 1;
nodes = (
(115,324,o),
(148,342,o),
(187,342,cs),
(265,342,o),
(335,270,o),
(416,270,cs),
(474,270,o),
(512,307,o),
(550,363,c),
(511,417,l),
(489,384,o),
(463,342,o),
(415,342,cs),
(352,342,o),
(278,413,o),
(189,413,cs),
(126,413,o),
(78,377,o),
(51,320,c),
(90,266,l)
);
}
);
width = 594;
}
);
note = approxequal;
unicode = 8776;
},
{
glyphname = asciitilde;
lastChange = "2024-08-06 02:24:23 +0000";
layers = (
{
hints = (
{
horizontal = 1;
origin = (0,2);
target = (0,15);
type = Stem;
},
{
horizontal = 1;
origin = (0,5);
target = (0,2);
type = Stem;
}
);
layerId = m01;
shapes = (
{
closed = 1;
nodes = (
(115,222,o),
(148,239,o),
(186,239,cs),
(265,239,o),
(335,168,o),
(416,168,cs),
(474,168,o),
(512,204,o),
(550,261,c),
(511,315,l),
(489,281,o),
(463,239,o),
(415,239,cs),
(352,239,o),
(279,310,o),
(189,310,cs),
(128,310,o),
(79,277,o),
(51,217,c),
(90,163,l)
);
}
);
width = 601;
}
);
note = asciitilde;
unicode = 126;
},
{
glyphname = logicalnot;
lastChange = "2024-08-06 02:24:23 +0000";
layers = (
{
hints = (
{
horizontal = 1;
origin = (0,3);
target = (0,2);
type = Stem;
},
{
origin = (0,5);
target = (0,0);
type = Stem;
}
);
layerId = m01;
shapes = (
{
closed = 1;
nodes = (
(539,82,l),
(539,383,l),
(62,383,l),
(62,311,l),
(468,311,l),
(468,82,l)
);
}
);
width = 649;
}
);
unicode = 172;
},
{
glyphname = asciicircum;
lastChange = "2024-08-06 02:24:23 +0000";
layers = (
{
hints = (
{
horizontal = 1;
origin = (0,1);
target = (0,5);
type = Stem;
}
);
layerId = m01;
shapes = (
{
closed = 1;
nodes = (
(146,351,l),
(301,666,l),
(455,351,l),
(529,351,l),
(333,746,l),
(268,746,l),
(72,351,l)
);
}
);
width = 601;
}
);
unicode = 94;
},
{
glyphname = infinity;
lastChange = "2024-08-06 02:24:23 +0000";
layers = (
{
layerId = m01;
shapes = (
{
closed = 1;
nodes = (
(259,134,o),
(336,199,o),
(386,250,c),
(435,199,o),
(512,134,o),
(592,134,cs),
(666,134,o),
(745,191,o),
(745,285,cs),
(745,379,o),
(667,437,o),
(592,437,cs),
(512,437,o),
(435,372,o),
(386,321,c),
(335,373,o),
(259,437,o),
(180,437,cs),
(105,437,o),
(27,378,o),
(27,285,cs),
(27,192,o),
(105,134,o),
(180,134,cs)
);
},
{
closed = 1;
nodes = (
(125,190,o),
(82,229,o),
(82,285,cs),
(82,340,o),
(124,382,o),
(184,382,cs),
(259,382,o),
(302,318,o),
(350,285,c),
(302,253,o),
(259,190,o),
(184,190,cs)
);
},
{
closed = 1;
nodes = (
(513,190,o),
(470,253,o),
(422,285,c),
(470,318,o),
(513,382,o),
(587,382,cs),
(647,382,o),
(690,340,o),
(690,285,cs),
(690,231,o),
(648,190,o),
(588,190,cs)
);
}
);
width = 771;
}
);
unicode = 8734;
},
{
glyphname = integral;
lastChange = "2024-08-06 02:24:23 +0000";
layers = (
{
layerId = m01;
shapes = (
{
closed = 1;
nodes = (
(112,-116,o),
(145,-93,o),
(168,-19,cs),
(205,100,o),
(205,308,o),
(205,456,cs),
(205,511,ls),
(205,672,o),
(185,758,o),
(185,880,cs),
(185,897,o),
(192,908,o),
(205,908,cs),
(226,908,o),
(225,882,o),
(259,882,cs),
(281,882,o),
(315,893,o),
(315,929,cs),
(315,961,o),
(289,990,o),
(245,990,cs),
(143,990,o),
(130,833,o),
(130,582,cs),
(130,411,o),
(136,238,o),
(136,50,cs),
(136,0,o),
(122,-39,o),
(108,-39,cs),
(95,-39,o),
(74,-3,o),
(51,-3,cs),
(36,-3,o),
(2,-19,o),
(2,-51,cs),
(2,-77,o),
(24,-116,o),
(74,-116,cs)
);
}
);
width = 296;
}
);
unicode = 8747;
},
{
glyphname = increment;
lastChange = "2024-08-06 02:24:23 +0000";
layers = (
{
layerId = m01;
shapes = (
{
closed = 1;
nodes = (
(598,0,l),
(361,743,l),
(274,716,l),
(39,0,l)
);
},
{
closed = 1;
nodes = (
(298,639,l),
(477,42,l),
(107,42,l)
);
}
);
width = 643;
}
);
unicode = 8710;
},
{
glyphname = product;
lastChange = "2024-08-06 02:24:23 +0000";
layers = (
{
layerId = m01;
shapes = (
{
closed = 1;
nodes = (
(321,-270,l),
(321,-228,l),
(298,-228,ls),
(244,-228,o),
(227,-217,o),
(227,-139,cs),
(227,599,ls),
(227,662,o),
(242,679,o),
(297,679,cs),
(489,679,ls),
(544,679,o),
(559,662,o),
(559,599,cs),
(559,-139,ls),
(559,-217,o),
(542,-228,o),
(488,-228,cs),
(465,-228,l),
(465,-270,l),
(754,-270,l),
(754,-228,l),
(731,-228,ls),
(677,-228,o),
(659,-217,o),
(659,-139,cs),
(659,599,ls),
(659,662,o),
(675,679,o),
(730,679,cs),
(754,679,l),
(754,721,l),
(32,721,l),
(32,679,l),
(56,679,ls),
(111,679,o),
(126,662,o),
(126,599,cs),
(126,-139,ls),
(126,-217,o),
(109,-228,o),
(55,-228,cs),
(32,-228,l),
(32,-270,l)
);
}
);
width = 786;
}
);
unicode = 8719;
},
{
glyphname = summation;
lastChange = "2024-08-06 02:24:23 +0000";
layers = (
{
layerId = m01;
shapes = (
{
closed = 1;
nodes = (
(557,-270,l),
(627,-82,l),
(594,-67,l),
(533,-142,o),
(471,-230,o),
(305,-229,cs),
(141,-228,l),
(439,298,l),
(173,679,l),
(316,679,ls),
(424,679,o),
(485,651,o),
(568,533,c),
(605,546,l),
(542,721,l),
(32,721,l),
(32,679,l),
(322,280,l),
(32,-228,l),
(32,-270,l)
);
}
);
width = 670;
}
);
unicode = 8721;
},
{
glyphname = radical;
lastChange = "2024-08-06 02:24:23 +0000";
layers = (
{
layerId = m01;
shapes = (
{
closed = 1;
nodes = (
(557,986,l),
(519,991,l),
(382,129,l),
(169,564,l),
(11,486,l),
(28,451,l),
(132,502,l),
(395,-41,l)
);
}
);
width = 594;
}
);
unicode = 8730;
},
{
glyphname = micro;
lastChange = "2024-08-06 02:24:23 +0000";
layers = (
{
layerId = m01;
shapes = (
{
closed = 1;
nodes = (
(20,-351,o),
(53,-338,o),
(69,-270,cs),
(84,-207,o),
(67,-168,o),
(92,-1,c),
(103,-10,o),
(117,-14,o),
(130,-14,cs),
(184,-14,o),
(243,58,o),
(277,105,cs),
(305,143,o),
(350,217,o),
(383,274,c),
(363,200,o),
(329,107,o),
(329,57,cs),
(329,11,o),
(357,-12,o),
(384,-12,cs),
(445,-12,o),
(516,104,o),
(551,157,c),
(519,178,l),
(492,136,o),
(432,56,o),
(415,56,cs),
(409,56,o),
(409,67,o),
(409,75,cs),
(409,104,o),
(437,202,o),
(465,279,cs),
(482,326,o),
(516,412,o),
(541,483,c),
(453,483,l),
(399,378,o),
(332,250,o),
(271,164,cs),
(249,133,o),
(197,54,o),
(165,54,cs),
(155,54,o),
(149,62,o),
(149,74,cs),
(149,94,o),
(167,142,o),
(201,241,cs),
(233,334,o),
(253,391,o),
(253,420,cs),
(253,454,o),
(226,483,o),
(192,483,cs),
(148,483,o),
(101,434,o),
(31,328,c),
(65,306,l),
(90,343,o),
(139,418,o),
(160,418,cs),
(166,418,o),
(169,413,o),
(169,407,cs),
(169,396,o),
(157,363,o),
(133,293,cs),
(94,179,o),
(88,155,o),
(65,68,cs),
(-24,-269,o),
(-30,-162,o),
(-51,-271,cs),
(-53,-281,o),
(-54,-289,o),
(-54,-297,cs),
(-54,-337,o),
(-30,-351,o),
(-5,-351,cs)
);
}
);
width = 572;
}
);
unicode = 181;
},
{
glyphname = partialdiff;
lastChange = "2024-08-06 02:24:23 +0000";
layers = (
{
layerId = m01;
shapes = (
{
closed = 1;
nodes = (
(385,-14,o),
(469,107,o),
(507,198,cs),
(539,274,o),
(568,400,o),
(568,489,cs),
(568,629,o),
(495,746,o),
(360,746,cs),
(273,746,o),
(194,697,o),
(194,642,cs),
(194,618,o),
(209,605,o),
(234,605,cs),
(302,605,o),
(327,702,o),
(393,702,cs),
(442,702,o),
(470,649,o),
(470,552,cs),
(470,526,o),
(468,493,o),
(464,457,c),
(443,474,o),
(417,482,o),
(389,482,cs),
(343,482,o),
(302,462,o),
(262,426,cs),
(192,363,o),
(132,253,o),
(132,154,cs),
(132,54,o),
(192,-14,o),
(275,-14,cs)
);
},
{
closed = 1;
nodes = (
(225,22,o),
(217,75,o),
(217,110,cs),
(217,184,o),
(252,298,o),
(285,362,cs),
(314,418,o),
(347,446,o),
(383,446,cs),
(420,446,o),
(444,415,o),
(444,360,cs),
(444,293,o),
(409,177,o),
(384,120,cs),
(354,52,o),
(320,22,o),
(279,22,cs)
);
}
);
width = 558;
}
);
unicode = 8706;
},
{
glyphname = percent;
lastChange = "2024-08-06 02:24:23 +0000";
layers = (
{
layerId = m01;
shapes = (
{
closed = 1;
nodes = (
(116,0,l),
(678,721,l),
(628,721,l),
(65,0,l)
);
},
{
closed = 1;
nodes = (
(526,-14,o),
(630,141,o),
(630,279,cs),
(630,368,o),
(586,409,o),
(542,409,cs),
(506,409,o),
(467,382,o),
(434,345,cs),
(393,299,o),
(345,219,o),
(345,122,cs),
(345,47,o),
(374,-14,o),
(433,-14,cs)
);
},
{
closed = 1;
nodes = (
(412,16,o),
(401,37,o),
(401,78,cs),
(401,158,o),
(444,284,o),
(476,335,cs),
(496,367,o),
(516,378,o),
(536,378,cs),
(562,378,o),
(574,359,o),
(574,321,cs),
(574,261,o),
(545,149,o),
(512,82,cs),
(487,32,o),
(464,16,o),
(440,16,cs)
);
},
{
closed = 1;
nodes = (
(290,312,o),
(395,467,o),
(395,604,cs),
(395,692,o),
(352,735,o),
(307,735,cs),
(272,735,o),
(233,710,o),
(201,675,cs),
(157,627,o),
(109,543,o),
(109,448,cs),
(109,374,o),
(138,312,o),
(197,312,cs)
);
},
{
closed = 1;
nodes = (
(176,343,o),
(165,363,o),
(165,403,cs),
(165,484,o),
(209,611,o),
(240,662,cs),
(259,693,o),
(280,705,o),
(300,705,cs),
(326,705,o),
(338,686,o),
(338,648,cs),
(338,589,o),
(310,475,o),
(277,409,cs),
(252,359,o),
(228,343,o),
(203,343,cs)
);
}
);
width = 676;
}
);
unicode = 37;
},
{
glyphname = perthousand;
lastChange = "2024-08-06 02:24:23 +0000";
layers = (
{
layerId = m01;
shapes = (
{
closed = 1;
nodes = (
(116,0,l),
(678,721,l),
(628,721,l),
(65,0,l)
);
},
{
closed = 1;
nodes = (
(526,-14,o),
(630,141,o),
(630,279,cs),
(630,368,o),
(586,409,o),
(542,409,cs),
(506,409,o),
(467,382,o),
(434,345,cs),
(393,299,o),
(345,219,o),
(345,122,cs),
(345,47,o),
(374,-14,o),
(433,-14,cs)
);
},
{
closed = 1;
nodes = (
(412,16,o),
(401,37,o),
(401,78,cs),
(401,158,o),
(444,284,o),
(476,335,cs),
(496,367,o),
(516,378,o),
(536,378,cs),
(562,378,o),
(574,359,o),
(574,321,cs),
(574,261,o),
(545,149,o),
(512,82,cs),
(487,32,o),
(464,16,o),
(440,16,cs)
);
},
{
closed = 1;
nodes = (
(290,312,o),
(395,467,o),
(395,604,cs),
(395,692,o),
(352,735,o),
(307,735,cs),
(272,735,o),
(233,710,o),
(201,675,cs),
(157,627,o),
(109,543,o),
(109,448,cs),
(109,374,o),
(138,312,o),
(197,312,cs)
);
},
{
closed = 1;
nodes = (
(176,343,o),
(165,363,o),
(165,403,cs),
(165,484,o),
(209,611,o),
(240,662,cs),
(259,693,o),
(280,705,o),
(300,705,cs),
(326,705,o),
(338,686,o),
(338,648,cs),
(338,589,o),
(310,475,o),
(277,409,cs),
(252,359,o),
(228,343,o),
(203,343,cs)
);
},
{
closed = 1;
nodes = (
(841,-14,o),
(946,140,o),
(946,278,cs),
(946,368,o),
(902,409,o),
(858,409,cs),
(824,409,o),
(785,384,o),
(752,348,cs),
(710,302,o),
(661,219,o),
(661,122,cs),
(661,47,o),
(690,-14,o),
(748,-14,cs)
);
},
{
closed = 1;
nodes = (
(728,16,o),
(717,37,o),
(717,78,cs),
(717,160,o),
(761,285,o),
(790,333,cs),
(810,366,o),
(831,378,o),
(852,378,cs),
(878,378,o),
(890,359,o),
(890,321,cs),
(890,262,o),
(861,148,o),
(828,82,cs),
(804,34,o),
(780,16,o),
(755,16,cs)
);
}
);
width = 991;
}
);
unicode = 8240;
},
{
glyphname = lozenge;
lastChange = "2024-08-06 02:24:23 +0000";
layers = (
{
layerId = m01;
shapes = (
{
closed = 1;
nodes = (
(294,0,l),
(504,408,l),
(294,805,l),
(229,805,l),
(19,408,l),
(229,0,l)
);
},
{
closed = 1;
nodes = (
(84,408,l),
(262,747,l),
(439,408,l),
(262,58,l)
);
}
);
width = 534;
}
);
unicode = 9674;
},
{
glyphname = dieresiscomb;
lastChange = "2024-08-06 02:24:23 +0000";
layers = (
{
anchors = (
{
name = _top;
pos = (283,494);
},
{
name = top;
pos = (312,659);
}
);
layerId = m01;
shapes = (
{
closed = 1;
nodes = (
(199,554,o),
(223,575,o),
(223,606,cs),
(223,636,o),
(199,657,o),
(172,657,cs),
(144,657,o),
(119,636,o),
(119,606,cs),
(119,575,o),
(144,554,o),
(172,554,cs)
);
},
{
closed = 1;
nodes = (
(368,555,o),
(391,576,o),
(391,607,cs),
(391,637,o),
(368,658,o),
(340,658,cs),
(312,658,o),
(288,637,o),
(288,607,cs),
(288,576,o),
(312,555,o),
(340,555,cs)
);
}
);
width = 275;
}
);
unicode = 776;
},
{
glyphname = dotaccentcomb;
lastChange = "2024-08-06 02:24:23 +0000";
layers = (
{
anchors = (
{
name = _top;
pos = (210,558);
},
{
name = _top_dot;
pos = (184,494);
},
{
name = top;
pos = (243,723);
}
);
layerId = m01;
shapes = (
{
closed = 1;
nodes = (
(212,623,o),
(236,644,o),
(236,675,cs),
(236,705,o),
(212,726,o),
(184,726,cs),
(157,726,o),
(132,705,o),
(132,675,cs),
(132,644,o),
(157,623,o),
(184,623,cs)
);
}
);
width = 106;
}
);
unicode = 775;
},
{
glyphname = gravecomb;
lastChange = "2024-08-06 02:24:23 +0000";
layers = (
{
anchors = (
{
name = _top;
pos = (304,494);
}
);
layerId = m01;
shapes = (
{
closed = 1;
nodes = (
(272,525,l),
(201,656,ls),
(191,674,o),
(181,692,o),
(164,692,cs),
(147,692,o),
(128,675,o),
(128,656,cs),
(128,638,o),
(146,618,o),
(163,601,cs),
(246,518,l)
);
}
);
width = 171;
}
);
unicode = 768;
},
{
glyphname = acutecomb;
lastChange = "2024-08-06 02:24:23 +0000";
layers = (
{
anchors = (
{
name = _top;
pos = (186,494);
},
{
name = top;
pos = (278,659);
}
);
layerId = m01;
shapes = (
{
closed = 1;
nodes = (
(236,587,ls),
(287,618,o),
(323,640,o),
(323,667,cs),
(323,680,o),
(315,692,o),
(299,692,cs),
(278,692,o),
(256,672,o),
(240,657,cs),
(102,525,l),
(123,518,l)
);
}
);
width = 195;
}
);
unicode = 769;
},
{
glyphname = hungarumlautcomb;
lastChange = "2024-08-06 02:24:23 +0000";
layers = (
{
anchors = (
{
name = _top;
pos = (236,494);
}
);
layerId = m01;
shapes = (
{
closed = 1;
nodes = (
(355,601,ls),
(371,617,o),
(390,638,o),
(390,657,cs),
(390,676,o),
(370,692,o),
(354,692,cs),
(337,692,o),
(327,674,o),
(317,656,cs),
(245,525,l),
(271,518,l)
);
},
{
closed = 1;
nodes = (
(211,601,ls),
(228,618,o),
(246,638,o),
(246,656,cs),
(246,676,o),
(226,692,o),
(211,692,cs),
(193,692,o),
(180,669,o),
(173,656,cs),
(102,525,l),
(128,518,l)
);
}
);
width = 264;
}
);
unicode = 779;
},
{
glyphname = caroncomb.alt;
lastChange = "2024-08-06 02:24:23 +0000";
layers = (
{
anchors = (
{
name = _caroncombalt;
pos = (192,735);
}
);
layerId = m01;
shapes = (
{
closed = 1;
nodes = (
(197,574,o),
(243,626,o),
(243,677,cs),
(243,712,o),
(221,735,o),
(193,735,cs),
(169,735,o),
(144,719,o),
(144,688,cs),
(144,653,o),
(177,648,o),
(177,629,cs),
(177,614,o),
(156,587,o),
(108,557,c),
(125,532,l)
);
}
);
width = 114;
}
);
},
{
glyphname = circumflexcomb;
lastChange = "2024-08-06 02:24:23 +0000";
layers = (
{
anchors = (
{
name = _top;
pos = (286,494);
},
{
name = top;
pos = (334,676);
},
{
name = top_viet;
pos = (441,627);
}
);
layerId = m01;
shapes = (
{
closed = 1;
nodes = (
(134,522,l),
(270,629,l),
(346,522,l),
(371,522,l),
(302,686,l),
(249,686,l),
(102,522,l)
);
}
);
width = 269;
}
);
unicode = 770;
},
{
glyphname = caroncomb;
lastChange = "2024-08-06 02:24:23 +0000";
layers = (
{
anchors = (
{
name = _top;
pos = (282,494);
},
{
name = top;
pos = (294,643);
}
);
layerId = m01;
shapes = (
{
closed = 1;
nodes = (
(255,522,l),
(402,686,l),
(370,686,l),
(235,579,l),
(158,686,l),
(133,686,l),
(203,522,l)
);
}
);
width = 269;
}
);
unicode = 780;
},
{
glyphname = brevecomb;
lastChange = "2024-08-06 02:24:23 +0000";
layers = (
{
anchors = (
{
name = _top;
pos = (289,494);
},
{
name = top;
pos = (321,649);
}
);
layerId = m01;
shapes = (
{
closed = 1;
nodes = (
(319,541,o),
(388,621,o),
(399,675,c),
(362,675,l),
(335,625,o),
(296,602,o),
(245,602,cs),
(191,602,o),
(170,631,o),
(170,675,c),
(132,675,l),
(129,662,o),
(128,655,o),
(128,645,cs),
(128,580,o),
(166,541,o),
(229,541,cs)
);
}
);
width = 268;
}
);
unicode = 774;
},
{
glyphname = ringcomb;
lastChange = "2024-08-06 02:24:23 +0000";
layers = (
{
anchors = (
{
name = _top;
pos = (248,494);
},
{
name = top;
pos = (285,692);
}
);
layerId = m01;
shapes = (
{
closed = 1;
nodes = (
(250,519,o),
(293,551,o),
(293,605,cs),
(293,659,o),
(251,692,o),
(208,692,cs),
(164,692,o),
(120,661,o),
(120,606,cs),
(120,552,o),
(163,519,o),
(206,519,cs)
);
},
{
closed = 1;
nodes = (
(177,557,o),
(158,579,o),
(158,605,cs),
(158,631,o),
(178,654,o),
(208,654,cs),
(237,654,o),
(255,631,o),
(255,605,cs),
(255,579,o),
(236,557,o),
(206,557,cs)
);
}
);
width = 177;
}
);
unicode = 778;
},
{
glyphname = tildecomb;
lastChange = "2024-08-06 02:24:23 +0000";
layers = (
{
anchors = (
{
name = _top;
pos = (278,494);
},
{
name = top;
pos = (316,659);
}
);
layerId = m01;
shapes = (
{
closed = 1;
nodes = (
(341,552,o),
(384,634,o),
(391,646,c),
(362,657,l),
(349,638,o),
(337,614,o),
(319,614,cs),
(293,614,o),
(235,663,o),
(202,663,cs),
(164,663,o),
(129,601,o),
(110,569,c),
(139,558,l),
(155,582,o),
(168,601,o),
(183,601,cs),
(207,601,o),
(268,552,o),
(300,552,cs)
);
}
);
width = 266;
}
);
unicode = 771;
},
{
glyphname = macroncomb;
lastChange = "2024-08-06 02:24:23 +0000";
layers = (
{
anchors = (
{
name = _top;
pos = (257,494);
},
{
name = top;
pos = (290,659);
}
);
layerId = m01;
shapes = (
{
closed = 1;
nodes = (
(333,586,l),
(346,636,l),
(126,636,l),
(114,586,l)
);
}
);
width = 223;
}
);
unicode = 772;
},
{
glyphname = hookabovecomb;
lastChange = "2024-08-06 02:24:23 +0000";
layers = (
{
anchors = (
{
name = _top;
pos = (281,494);
}
);
layerId = m01;
shapes = (
{
closed = 1;
nodes = (
(227,524,o),
(241,526,o),
(252,529,c),
(256,552,l),
(234,552,o),
(218,552,o),
(223,564,cs),
(236,593,o),
(348,620,o),
(348,676,cs),
(348,709,o),
(309,737,o),
(248,737,cs),
(186,737,o),
(133,708,o),
(133,676,cs),
(133,664,o),
(140,652,o),
(160,652,cs),
(179,652,o),
(195,663,o),
(197,675,cs),
(199,688,o),
(213,698,o),
(242,698,cs),
(276,698,o),
(291,684,o),
(284,665,cs),
(270,627,o),
(181,618,o),
(175,568,cs),
(172,543,o),
(191,524,o),
(218,524,cs)
);
}
);
width = 217;
}
);
unicode = 777;
},
{
glyphname = dblgravecomb;
lastChange = "2024-08-06 02:24:23 +0000";
layers = (
{
anchors = (
{
name = _top;
pos = (381,494);
}
);
layerId = m01;
shapes = (
{
closed = 1;
nodes = (
(416,525,l),
(345,656,ls),
(338,669,o),
(324,692,o),
(307,692,cs),
(293,692,o),
(271,677,o),
(271,657,cs),
(271,637,o),
(292,616,o),
(307,601,cs),
(390,518,l)
);
},
{
closed = 1;
nodes = (
(272,525,l),
(201,656,ls),
(191,674,o),
(181,692,o),
(164,692,cs),
(147,692,o),
(128,675,o),
(128,656,cs),
(128,638,o),
(146,618,o),
(163,601,cs),
(246,518,l)
);
}
);
width = 315;
}
);
unicode = 783;
},
{
glyphname = breveinvertedcomb;
lastChange = "2024-08-06 02:24:23 +0000";
layers = (
{
anchors = (
{
name = _top;
pos = (289,494);
},
{
name = top;
pos = (321,649);
}
);
layerId = m01;
shapes = (
{
closed = 1;
nodes = (
(142,541,l),
(169,590,o),
(208,613,o),
(258,613,cs),
(312,613,o),
(334,584,o),
(334,541,c),
(372,541,l),
(375,553,o),
(376,560,o),
(376,570,cs),
(376,636,o),
(337,675,o),
(275,675,cs),
(185,675,o),
(116,595,o),
(105,541,c)
);
}
);
width = 267;
}
);
unicode = 785;
},
{
glyphname = commaturnedabovecomb;
lastChange = "2024-08-06 02:24:23 +0000";
layers = (
{
anchors = (
{
name = _top;
pos = (223,494);
}
);
layerId = m01;
shapes = (
{
closed = 1;
nodes = (
(191,533,o),
(216,549,o),
(216,580,cs),
(216,615,o),
(183,621,o),
(183,639,cs),
(183,653,o),
(204,681,o),
(252,711,c),
(235,736,l),
(163,694,o),
(117,642,o),
(117,591,cs),
(117,556,o),
(139,533,o),
(167,533,cs)
);
}
);
width = 114;
}
);
unicode = 786;
},
{
glyphname = horncomb;
lastChange = "2024-08-06 02:24:23 +0000";
layers = (
{
anchors = (
{
name = _attachhorn;
pos = (99,510);
}
);
layerId = m01;
shapes = (
{
closed = 1;
nodes = (
(190,520,o),
(269,587,o),
(269,664,cs),
(269,717,o),
(232,735,o),
(205,735,cs),
(173,735,o),
(145,711,o),
(145,675,cs),
(145,631,o),
(187,626,o),
(187,601,cs),
(187,572,o),
(129,529,o),
(99,510,c),
(122,480,l)
);
}
);
width = 143;
}
);
unicode = 795;
},
{
glyphname = dotbelowcomb;
lastChange = "2024-08-06 02:24:23 +0000";
layers = (
{
anchors = (
{
name = _dotbelow;
pos = (32,0);
}
);
layerId = m01;
shapes = (
{
closed = 1;
nodes = (
(55,-183,o),
(79,-161,o),
(79,-131,cs),
(79,-101,o),
(55,-79,o),
(27,-79,cs),
(0,-79,o),
(-25,-101,o),
(-25,-131,cs),
(-25,-161,o),
(0,-183,o),
(27,-183,cs)
);
}
);
width = 105;
}
);
unicode = 803;
},
{
glyphname = dieresisbelowcomb;
lastChange = "2024-08-06 02:24:23 +0000";
layers = (
{
anchors = (
{
name = _dotbelow;
pos = (119,0);
}
);
layerId = m01;
shapes = (
{
closed = 1;
nodes = (
(224,-182,o),
(248,-160,o),
(248,-130,cs),
(248,-99,o),
(224,-78,o),
(196,-78,cs),
(169,-78,o),
(144,-99,o),
(144,-130,cs),
(144,-160,o),
(169,-182,o),
(196,-182,cs)
);
},
{
closed = 1;
nodes = (
(55,-183,o),
(79,-161,o),
(79,-131,cs),
(79,-101,o),
(55,-79,o),
(27,-79,cs),
(0,-79,o),
(-25,-101,o),
(-25,-131,cs),
(-25,-161,o),
(0,-183,o),
(27,-183,cs)
);
}
);
width = 274;
}
);
unicode = 804;
},
{
glyphname = ringbelowcomb;
lastChange = "2024-08-06 02:24:23 +0000";
layers = (
{
anchors = (
{
name = _dotbelow;
pos = (68,0);
}
);
layerId = m01;
shapes = (
{
closed = 1;
nodes = (
(99,-252,o),
(143,-219,o),
(143,-165,cs),
(143,-111,o),
(101,-79,o),
(57,-79,cs),
(14,-79,o),
(-30,-110,o),
(-30,-164,cs),
(-30,-218,o),
(13,-252,o),
(56,-252,cs)
);
},
{
closed = 1;
nodes = (
(27,-214,o),
(8,-191,o),
(8,-165,cs),
(8,-139,o),
(28,-117,o),
(57,-117,cs),
(86,-117,o),
(105,-139,o),
(105,-165,cs),
(105,-191,o),
(85,-214,o),
(56,-214,cs)
);
}
);
width = 176;
}
);
unicode = 805;
},
{
glyphname = commaaccentcomb;
lastChange = "2024-08-06 02:24:23 +0000";
layers = (
{
anchors = (
{
name = _commaaccentbelow;
pos = (41,0);
}
);
layerId = m01;
shapes = (
{
closed = 1;
nodes = (
(45,-206,o),
(92,-155,o),
(92,-103,cs),
(92,-68,o),
(69,-45,o),
(41,-45,cs),
(17,-45,o),
(-8,-62,o),
(-8,-92,cs),
(-8,-128,o),
(26,-133,o),
(26,-151,cs),
(26,-165,o),
(4,-194,o),
(-43,-224,c),
(-26,-249,l)
);
}
);
width = 114;
}
);
unicode = 806;
},
{
glyphname = commaaccentcomb.loclMAH;
lastChange = "2024-08-06 02:24:29 +0000";
layers = (
{
anchors = (
{
name = _attachcedilla;
pos = (75,0);
}
);
layerId = m01;
shapes = (
{
closed = 1;
nodes = (
(138,-200,o),
(188,-160,o),
(188,-113,cs),
(188,-73,o),
(152,-46,o),
(118,-46,cs),
(105,-46,o),
(94,-50,o),
(84,-53,c),
(107,0,l),
(75,0,l),
(40,-82,l),
(77,-80,ls),
(105,-80,o),
(119,-91,o),
(119,-117,cs),
(119,-156,o),
(89,-163,o),
(64,-163,cs),
(32,-163,o),
(9,-151,o),
(-15,-141,c),
(-34,-171,l),
(-11,-181,o),
(21,-200,o),
(69,-200,cs)
);
}
);
width = 212;
}
);
},
{
glyphname = cedillacomb;
lastChange = "2024-08-06 02:24:29 +0000";
layers = (
{
anchors = (
{
name = _attachcedilla;
pos = (75,0);
}
);
layerId = m01;
shapes = (
{
closed = 1;
nodes = (
(138,-200,o),
(188,-160,o),
(188,-113,cs),
(188,-73,o),
(152,-46,o),
(118,-46,cs),
(105,-46,o),
(94,-50,o),
(84,-53,c),
(107,0,l),
(75,0,l),
(40,-82,l),
(77,-80,ls),
(105,-80,o),
(119,-91,o),
(119,-117,cs),
(119,-156,o),
(89,-163,o),
(64,-163,cs),
(32,-163,o),
(9,-151,o),
(-15,-141,c),
(-34,-171,l),
(-11,-181,o),
(21,-200,o),
(69,-200,cs)
);
}
);
width = 212;
}
);
unicode = 807;
},
{
glyphname = ogonekcomb;
lastChange = "2024-08-06 02:24:23 +0000";
layers = (
{
anchors = (
{
name = _ogonek;
pos = (80,0);
}
);
layerId = m01;
shapes = (
{
closed = 1;
nodes = (
(101,-194,o),
(132,-175,o),
(147,-166,c),
(137,-134,l),
(126,-140,o),
(111,-148,o),
(87,-148,cs),
(51,-148,o),
(40,-129,o),
(40,-105,cs),
(40,-62,o),
(76,-27,o),
(118,0,c),
(80,0,l),
(40,-18,o),
(-23,-57,o),
(-23,-128,cs),
(-23,-160,o),
(-10,-194,o),
(54,-194,cs)
);
}
);
width = 179;
}
);
unicode = 808;
},
{
glyphname = circumflexbelowcomb;
lastChange = "2024-08-06 02:24:23 +0000";
layers = (
{
anchors = (
{
name = _dotbelow;
pos = (126,0);
}
);
layerId = m01;
shapes = (
{
closed = 1;
nodes = (
(-16,-248,l),
(120,-141,l),
(196,-248,l),
(221,-248,l),
(151,-83,l),
(98,-83,l),
(-49,-248,l)
);
}
);
width = 269;
}
);
unicode = 813;
},
{
glyphname = brevebelowcomb;
lastChange = "2024-08-06 02:24:23 +0000";
layers = (
{
anchors = (
{
name = _dotbelow;
pos = (129,0);
}
);
layerId = m01;
shapes = (
{
closed = 1;
nodes = (
(171,-217,o),
(240,-137,o),
(251,-83,c),
(214,-83,l),
(187,-133,o),
(147,-156,o),
(98,-156,cs),
(43,-156,o),
(22,-126,o),
(22,-83,c),
(-16,-83,l),
(-19,-96,o),
(-21,-100,o),
(-21,-114,cs),
(-21,-177,o),
(18,-217,o),
(81,-217,cs)
);
}
);
width = 267;
}
);
unicode = 814;
},
{
glyphname = tildebelowcomb;
lastChange = "2024-08-06 02:24:23 +0000";
layers = (
{
anchors = (
{
name = _dotbelow;
pos = (96,0);
}
);
layerId = m01;
shapes = (
{
closed = 1;
nodes = (
(201,-169,o),
(243,-90,o),
(252,-75,c),
(223,-64,l),
(210,-83,o),
(198,-107,o),
(180,-107,cs),
(154,-107,o),
(96,-58,o),
(63,-58,cs),
(26,-58,o),
(-10,-118,o),
(-29,-152,c),
(0,-163,l),
(15,-139,o),
(28,-120,o),
(43,-120,cs),
(68,-120,o),
(129,-169,o),
(161,-169,cs)
);
}
);
width = 266;
}
);
unicode = 816;
},
{
glyphname = macronbelowcomb;
lastChange = "2024-08-06 02:24:23 +0000";
layers = (
{
anchors = (
{
name = _dotbelow;
pos = (94,0);
}
);
layerId = m01;
shapes = (
{
closed = 1;
nodes = (
(194,-133,l),
(206,-83,l),
(-13,-83,l),
(-26,-133,l)
);
}
);
width = 223;
}
);
unicode = 817;
},
{
glyphname = doublemacronbelowcomb;
lastChange = "2024-08-06 02:24:23 +0000";
layers = (
{
anchors = (
{
name = _dotbelow;
pos = (94,0);
}
);
layerId = m01;
shapes = (
{
closed = 1;
nodes = (
(413,-133,l),
(426,-83,l),
(-13,-83,l),
(-26,-133,l)
);
}
);
width = 442;
}
);
unicode = 863;
},
{
glyphname = commareversedmod;
lastChange = "2024-08-06 02:24:23 +0000";
layers = (
{
layerId = m01;
shapes = (
{
closed = 1;
nodes = (
(238,510,l),
(215,536,o),
(190,559,o),
(190,582,cs),
(190,621,o),
(264,619,o),
(264,683,cs),
(264,717,o),
(243,736,o),
(213,736,cs),
(166,736,o),
(125,691,o),
(125,632,cs),
(125,568,o),
(173,519,o),
(206,480,c)
);
}
);
width = 267;
}
);
unicode = 701;
},
{
glyphname = ringhalfleft;
lastChange = "2024-08-06 02:24:23 +0000";
layers = (
{
layerId = m01;
shapes = (
{
closed = 1;
nodes = (
(222,506,l),
(181,518,o),
(165,545,o),
(165,577,cs),
(165,585,o),
(166,593,o),
(168,603,cs),
(177,646,o),
(202,684,o),
(259,698,c),
(266,736,l),
(172,736,o),
(104,650,o),
(104,576,cs),
(104,522,o),
(140,469,o),
(214,469,c)
);
}
);
width = 235;
}
);
unicode = 703;
},
